<svg width="920" height="124" viewBox="0 0 920 124" fill="none" xmlns="http://www.w3.org/2000/svg">
  <rect x="0.5" y="3.5" width="919" height="116" rx="11.5" stroke="#CCCCCC" />
  <line x1="40.5" y1="70" x2="40.5" y2="120" stroke="#CCCCCC" />
  <line x1="72.5" y1="91" x2="72.5" y2="120" stroke="#CCCCCC" />
  <line x1="130" y1="66.5" x2="87" y2="66.5" stroke="#CCCCCC" />
  <line x1="73.5" y1="4" x2="73.5" y2="59" stroke="#CCCCCC" />
  <line x1="40.5" y1="1" x2="40.5" y2="40" stroke="#CCCCCC" />
  <line x1="40.0046" y1="70.369" x2="72.2747" y2="91.5822" stroke="#CCCCCC" />
  <line x1="40.2491" y1="39.5664" x2="87.2491" y2="66.5664" stroke="#CCCCCC" />
  <line x1="846" y1="98.5" x2="134" y2="98.5" stroke="#CCCCCC" />
  <line x1="883" y1="38.5" x2="865" y2="38.5" stroke="#CCCCCC" />
  <line x1="882.5" y1="4" x2="882.5" y2="119" stroke="#CCCCCC" />
  <line x1="864.315" y1="54.3881" x2="848.315" y2="67.3881" stroke="#CCCCCC" />
  <line x1="864.5" y1="38" x2="864.5" y2="55" stroke="#CCCCCC" />
  <line x1="132" y1="92" x2="132" y2="120" stroke="#999999" stroke-width="4" />
  <line x1="882" y1="38" x2="882" y2="60" stroke="#999999" stroke-width="2" />
  <line x1="40" y1="40" x2="40" y2="72" stroke="#999999" stroke-width="2" />
  <line x1="2" y1="40" x2="2" y2="78" stroke="#999999" stroke-width="2" />
  <line x1="130" y1="118" x2="849" y2="118" stroke="#999999" stroke-width="4" />
  <line x1="401" y1="92" x2="401" y2="120" stroke="#999999" stroke-width="4" />
  <line x1="669" y1="92" x2="669" y2="120" stroke="#999999" stroke-width="4" />
  <line x1="222" y1="92" x2="222" y2="120" stroke="#999999" stroke-width="4" />
  <line x1="491" y1="92" x2="491" y2="120" stroke="#999999" stroke-width="4" />
  <line x1="759" y1="92" x2="759" y2="120" stroke="#999999" stroke-width="4" />
  <line x1="311" y1="92" x2="311" y2="120" stroke="#999999" stroke-width="4" />
  <line x1="580" y1="92" x2="580" y2="120" stroke="#999999" stroke-width="4" />
  <line x1="848" y1="92" x2="848" y2="120" stroke="#999999" stroke-width="4" />
  <line x1="160" y1="68" x2="130" y2="68" stroke="#999999" stroke-width="4" />
  <line x1="250" y1="68" x2="193" y2="68" stroke="#999999" stroke-width="4" />
  <line x1="429" y1="68" x2="372" y2="68" stroke="#999999" stroke-width="4" />
  <line x1="339" y1="68" x2="282" y2="68" stroke="#999999" stroke-width="4" />
  <line x1="518" y1="68" x2="461" y2="68" stroke="#999999" stroke-width="4" />
  <line x1="608" y1="68" x2="551" y2="68" stroke="#999999" stroke-width="4" />
  <g clip-path="url(#clip0)">
    <path
      d="M60.6552 34.069C60.3981 34.069 60.1897 33.8606 60.1897 33.6035V28.1724H61.1207V33.6035C61.1207 33.8606 60.9123 34.069 60.6552 34.069ZM62.6724 33.6035C62.6724 33.8606 62.464 34.069 62.2069 34.069C61.9498 34.069 61.7414 33.8606 61.7414 33.6035V28.1724H62.6724V33.6035ZM64.2241 26.4655C64.2241 26.7226 64.0157 26.931 63.7586 26.931C63.5015 26.931 63.2931 26.7226 63.2931 26.4655V22.5862C63.2931 22.4148 63.1542 22.2759 62.9828 22.2759C62.8114 22.2759 62.6724 22.4148 62.6724 22.5862V27.5517H60.1897V22.5862C60.1897 22.4148 60.0507 22.2759 59.8793 22.2759C59.7079 22.2759 59.569 22.4148 59.569 22.5862V26.4655C59.569 26.7226 59.3606 26.931 59.1035 26.931C58.8464 26.931 58.6379 26.7226 58.6379 26.4655V22.5862C58.6379 21.9006 59.1937 21.3448 59.8793 21.3448H62.9828C63.6684 21.3448 64.2241 21.9006 64.2241 22.5862V26.4655Z"
      fill="#999999" />
    <path
      d="M50.7241 34.069C50.6004 34.0697 50.4816 34.0209 50.3941 33.9334C50.3067 33.846 50.2579 33.7271 50.2586 33.6034L50.2586 29.4138H51.1897V33.6034C51.1897 33.8605 50.9812 34.069 50.7241 34.069ZM52.7414 33.6034C52.7414 33.8605 52.533 34.069 52.2759 34.069C52.0188 34.069 51.8103 33.8605 51.8103 33.6034V29.4138H52.7414V33.6034ZM54.7428 26.6955C54.4957 26.7654 54.2384 26.6232 54.1662 26.3768L53.0517 22.4975C53.003 22.3348 52.8325 22.2415 52.6692 22.2881C52.5059 22.3347 52.4104 22.5039 52.4549 22.6678L54.1907 28.7931H48.8068L50.5448 22.6669C50.583 22.5053 50.4873 22.3422 50.3276 22.2968C50.1678 22.2514 50.0007 22.3399 49.9483 22.4975L48.8345 26.3749C48.764 26.6226 48.5061 26.7662 48.2585 26.6958C48.0108 26.6254 47.8671 26.3675 47.9376 26.1198L49.0514 22.2448C49.2068 21.7136 49.6927 21.3476 50.2462 21.3448H53.2224C53.4984 21.3461 53.7406 21.5287 53.818 21.7936L55.0624 26.1192C55.0966 26.238 55.0821 26.3655 55.0222 26.4736C54.9622 26.5817 54.8617 26.6616 54.7428 26.6955V26.6955Z"
      fill="#999999" />
    <path
      d="M57.0862 17H56.4655C56.2941 17 56.1552 17.1389 56.1552 17.3103V34.6897C56.1552 34.8611 56.2941 35 56.4655 35H57.0862C57.2576 35 57.3966 34.8611 57.3966 34.6897V17.3103C57.3966 17.1389 57.2576 17 57.0862 17Z"
      fill="#999999" />
    <path
      d="M51.5 20.4138C52.1856 20.4138 52.7414 19.858 52.7414 19.1724C52.7414 18.4868 52.1856 17.931 51.5 17.931C50.8144 17.931 50.2586 18.4868 50.2586 19.1724C50.2586 19.858 50.8144 20.4138 51.5 20.4138Z"
      fill="#999999" />
    <path
      d="M61.431 20.4138C62.1166 20.4138 62.6724 19.858 62.6724 19.1724C62.6724 18.4868 62.1166 17.931 61.431 17.931C60.7455 17.931 60.1897 18.4868 60.1897 19.1724C60.1897 19.858 60.7455 20.4138 61.431 20.4138Z"
      fill="#999999" />
  </g>
  <path
    d="M110.134 41.3866L108.586 40.6733C110.264 40.0105 110.469 39.117 110.487 39.0077C110.518 38.8214 110.396 38.6439 110.211 38.6069C109.002 38.3651 109.037 36.4446 109.077 34.2211C109.085 33.8189 109.092 33.4096 109.092 33.0001C109.149 31.3535 108.33 29.7997 106.939 28.9166L106.278 26.6039C106.247 26.4927 106.162 26.4045 106.053 26.368C105.22 26.129 104.358 26.0051 103.492 26C102.626 26.0051 101.764 26.129 100.931 26.368C100.822 26.4045 100.737 26.4927 100.705 26.6039L100.045 28.9166C98.6539 29.7997 97.8347 31.3535 97.8919 33.0001C97.8919 33.4096 97.8993 33.8189 97.9067 34.2211C97.9472 36.4446 97.982 38.3651 96.7733 38.6069C96.5879 38.6439 96.4655 38.8214 96.4967 39.0077C96.515 39.117 96.7194 40.0105 98.398 40.6733L96.8476 41.3874C96.2098 41.6843 95.7617 42.2794 95.6524 42.9742L95.0958 46.5967C95.0803 46.6978 95.1097 46.8005 95.1762 46.8779C95.2427 46.9555 95.3398 47 95.4419 47H111.542C111.644 47 111.741 46.9555 111.808 46.8779C111.874 46.8004 111.903 46.6978 111.888 46.5969L111.331 42.9729C111.222 42.2778 110.773 41.683 110.134 41.3866V41.3866ZM105.96 42.5607C106.121 43.0441 105.897 43.7846 105.648 44.3622C105.319 43.7617 104.8 43.2879 104.171 43.0156C105.151 42.0983 105.937 40.9944 106.483 39.7691C106.992 40.0336 107.428 40.4202 107.751 40.8943C108.108 41.4305 108.021 42.3957 107.878 43.0936C107.464 42.6639 106.96 42.3308 106.403 42.118C106.277 42.076 106.138 42.1087 106.044 42.2026C105.951 42.2963 105.918 42.4351 105.96 42.5609V42.5607ZM103.492 42.6845C102.647 41.9301 101.942 41.0324 101.409 40.0328L101.742 39.8663V39.9999C101.742 40.1933 101.899 40.35 102.092 40.35C102.285 40.35 102.442 40.1933 102.442 39.9999V37.6505C103.091 38.0285 103.893 38.0285 104.542 37.6505V39.9999C104.542 40.1933 104.699 40.35 104.892 40.35C105.085 40.35 105.242 40.1933 105.242 39.9999V39.8663L105.576 40.0334C105.043 41.033 104.338 41.9307 103.492 42.6845V42.6845ZM100.939 42.2026C100.846 42.1087 100.707 42.076 100.581 42.118C100.023 42.3308 99.5196 42.664 99.1056 43.0941C98.9617 42.397 98.8745 41.4321 99.2331 40.8943C99.5563 40.4202 99.9917 40.0336 100.501 39.7691C101.047 40.9944 101.833 42.0983 102.813 43.0156C102.184 43.2881 101.664 43.7622 101.336 44.3631C101.087 43.7862 100.862 43.0458 101.024 42.561C101.066 42.4351 101.033 42.2963 100.939 42.2026V42.2026ZM101.042 32.8727C102.066 32.6657 102.955 32.0368 103.492 31.1403C104.028 32.0368 104.918 32.6657 105.942 32.8727V34.7919C105.944 35.5166 105.571 36.1906 104.955 36.5727L104.234 37.0234C103.779 37.3054 103.204 37.3054 102.75 37.0234L102.029 36.5727C101.413 36.1908 101.04 35.5166 101.042 34.7919V32.8727ZM101.326 26.9784C102.035 26.8014 102.762 26.708 103.492 26.7C104.222 26.708 104.949 26.8014 105.658 26.9784L106.151 28.7066C105.273 28.5539 104.384 28.4681 103.492 28.45C102.6 28.4681 101.711 28.5539 100.833 28.7066L101.326 26.9784ZM97.3385 39.1559C98.6853 38.533 98.647 36.4266 98.6066 34.2083C98.5993 33.8106 98.5919 33.4052 98.5919 33.0001C98.5321 31.5759 99.247 30.2307 100.461 29.4834C101.461 29.2902 102.474 29.1787 103.492 29.15C104.509 29.1789 105.523 29.2902 106.522 29.4833C107.731 30.2352 108.444 31.5772 108.392 33.0001C108.392 33.4052 108.385 33.8106 108.377 34.2083C108.337 36.4277 108.299 38.5348 109.647 39.1566C109.217 39.6273 108.661 39.9641 108.044 40.126C107.602 39.6098 107.038 39.2118 106.403 38.9681C106.315 38.9387 106.219 38.9456 106.136 38.9871C106.052 39.0285 105.989 39.1013 105.96 39.1894C105.959 39.1933 105.932 39.2698 105.878 39.4015L105.242 39.0837V37.2189L105.326 37.1665C106.147 36.6569 106.645 35.7582 106.642 34.7919V33.0001H106.643C106.827 32.9996 106.98 32.8559 106.991 32.6714C107.002 32.4872 106.869 32.3257 106.685 32.3028C104.196 31.9915 103.85 30.2161 103.837 30.1405C103.836 30.1367 103.834 30.1339 103.833 30.1301C103.827 30.1064 103.818 30.0836 103.806 30.0618C103.8 30.042 103.791 30.0227 103.78 30.0043C103.751 29.9716 103.719 29.9404 103.686 29.9109C103.669 29.901 103.65 29.8925 103.631 29.8857C103.609 29.8744 103.586 29.8654 103.562 29.8593C103.557 29.8584 103.554 29.8555 103.55 29.8547C103.511 29.8574 103.473 29.8574 103.434 29.8547C103.43 29.8555 103.427 29.8582 103.423 29.8592C103.398 29.8654 103.375 29.8744 103.353 29.8857C103.295 29.9146 103.244 29.9553 103.203 30.0051C103.193 30.0231 103.184 30.042 103.177 30.0613C103.166 30.0835 103.157 30.1068 103.151 30.1309C103.15 30.135 103.148 30.1379 103.147 30.1423C103.144 30.1608 102.811 31.9886 100.299 32.3026C100.115 32.3252 99.9807 32.4869 99.992 32.6714C100.003 32.8562 100.156 33.0001 100.341 33.0001H100.342V34.7919C100.339 35.7582 100.837 36.657 101.658 37.1665L101.742 37.2189V39.0837L101.107 39.4012C101.052 39.2694 101.025 39.1928 101.024 39.1889C100.962 39.006 100.764 38.9073 100.581 38.968C99.9464 39.2117 99.3823 39.6097 98.9397 40.1259C98.324 39.9629 97.7681 39.6262 97.3385 39.1559V39.1559ZM96.3441 43.082C96.4173 42.6181 96.7166 42.2207 97.1424 42.0224L98.3162 41.4818C98.2519 42.3194 98.3517 43.1614 98.6098 43.9607C98.6521 44.0876 98.763 44.1792 98.8955 44.1968C99.028 44.2146 99.1591 44.1553 99.2331 44.0442C99.5053 43.6425 99.8597 43.3033 100.273 43.0492C100.372 43.8923 100.651 44.7042 101.092 45.43C101.155 45.5355 101.269 45.6 101.392 45.6C101.412 45.6 101.432 45.5983 101.452 45.5949C101.594 45.5702 101.707 45.4605 101.735 45.3187C101.891 44.5564 102.419 43.9235 103.142 43.6345V46.3H95.8499L96.3441 43.082ZM103.842 46.3V43.637C104.563 43.9269 105.091 44.558 105.249 45.3187C105.277 45.4605 105.39 45.5702 105.533 45.5949C105.552 45.5983 105.572 45.6 105.592 45.6C105.715 45.6 105.829 45.5355 105.892 45.43C106.332 44.7042 106.612 43.8923 106.711 43.0492C107.124 43.3035 107.479 43.6425 107.751 44.0442C107.825 44.1553 107.956 44.2146 108.088 44.1968C108.221 44.1792 108.332 44.0876 108.374 43.9607C108.632 43.1614 108.732 42.3194 108.668 41.4818L109.84 42.0217C110.266 42.2196 110.566 42.6166 110.64 43.0806L111.134 46.3H103.842Z"
    fill="#999999" />
  <g clip-path="url(#clip1)">
    <path
      d="M60.5527 110.208H60.1739V109.829C60.1739 109.203 59.664 108.693 59.0373 108.693H58.6178C58.6786 108.631 58.737 108.565 58.7925 108.497C58.932 108.324 59.0493 108.135 59.1436 107.935H59.208C60.264 107.935 61 107.204 61 106.549C61 106.283 60.8843 106.049 60.6741 105.889C60.4768 105.738 60.2097 105.662 59.8804 105.662C59.5118 105.662 57.4398 105.662 57.1431 105.662V104.096H57.5219C57.7311 104.096 57.9008 103.926 57.9008 103.717V102.58H58.2796C58.4888 102.58 58.6585 102.411 58.6585 102.202V101.065H59.0373C59.664 101.065 60.1739 100.555 60.1739 99.9285V98.4131C60.1739 98.2038 60.0043 98.0342 59.795 98.0342H50.652C49.6075 98.0342 48.7577 98.884 48.7577 99.9285C48.7577 100.104 48.7577 109.928 48.7577 110.208H48.3789C48.1696 110.208 48 110.378 48 110.587C48 110.796 48.1696 110.966 48.3789 110.966H60.5527C60.7619 110.966 60.9316 110.796 60.9316 110.587C60.9316 110.378 60.762 110.208 60.5527 110.208ZM59.4162 106.722V106.42H59.8803C60.0972 106.42 60.1862 106.47 60.2144 106.491C60.2337 106.506 60.2422 106.518 60.2422 106.549C60.2422 106.72 59.9495 107.101 59.3804 107.167C59.4037 107.021 59.4162 106.872 59.4162 106.722ZM58.6585 106.42V106.722C58.6585 107.703 57.958 108.56 57.0638 108.674C56.8711 108.699 56.6575 108.699 56.465 108.674C55.5705 108.561 54.8699 107.704 54.8699 106.722V106.42H58.6585ZM55.2488 102.58H55.6276V103.717C55.6276 103.926 55.7972 104.096 56.0065 104.096H56.3853V105.662H54.491C54.2818 105.662 54.1122 105.831 54.1122 106.041V106.722C54.1122 107.368 54.3338 107.999 54.7361 108.497C54.7914 108.566 54.8496 108.631 54.9103 108.693H53.3545V101.444C53.3545 101.235 53.5245 101.065 53.7333 101.065H54.8699V102.202C54.8699 102.411 55.0395 102.58 55.2488 102.58ZM56.3853 103.338V102.58H57.143V103.338H56.3853V103.338ZM57.9008 101.823C57.6707 101.823 55.9981 101.823 55.6276 101.823V101.065H57.9008V101.823ZM49.5154 99.9285C49.5154 99.3018 50.0253 98.7919 50.652 98.7919H59.4161V99.9285C59.4161 100.137 59.2462 100.307 59.0373 100.307C58.7991 100.307 54.0138 100.307 53.7333 100.307C53.1066 100.307 52.5968 100.817 52.5968 101.444V108.693H49.5154V99.9285ZM59.4162 110.208H49.5154V109.45C49.7536 109.45 58.6404 109.45 59.0373 109.45C59.2462 109.45 59.4162 109.62 59.4162 109.829V110.208Z"
      fill="#999999" />
    <path
      d="M51.0309 100.307C50.6131 100.307 50.2732 100.647 50.2732 101.065C50.2732 101.483 50.6131 101.823 51.0309 101.823C51.4487 101.823 51.7886 101.483 51.7886 101.065C51.7886 100.647 51.4487 100.307 51.0309 100.307Z"
      fill="#999999" />
    <path
      d="M51.0309 102.58C50.6131 102.58 50.2732 102.92 50.2732 103.338C50.2732 103.756 50.6131 104.096 51.0309 104.096C51.4487 104.096 51.7886 103.756 51.7886 103.338C51.7886 102.92 51.4487 102.58 51.0309 102.58Z"
      fill="#999999" />
  </g>
  <line x1="697" y1="68" x2="640" y2="68" stroke="#999999" stroke-width="4" />
  <line x1="787" y1="68" x2="731" y2="68" stroke="#999999" stroke-width="4" />
  <line x1="849" y1="67" x2="821" y2="67" stroke="#999999" stroke-width="4" />
  <line x1="850" y1="5.99997" x2="131" y2="6.00003" stroke="#999999" stroke-width="4" />
  <line x1="579.5" y1="69" x2="579.5" y2="4" stroke="#999999" stroke-width="3" />
  <line x1="310.5" y1="69" x2="310.5" y2="4" stroke="#999999" stroke-width="3" />
  <line x1="758.5" y1="69" x2="758.5" y2="4" stroke="#999999" stroke-width="3" />
  <line x1="848.5" y1="69" x2="848.5" y2="4" stroke="#999999" stroke-width="3" />
  <line x1="489.5" y1="69" x2="489.5" y2="4" stroke="#999999" stroke-width="3" />
  <line x1="221.5" y1="69" x2="221.5" y2="4" stroke="#999999" stroke-width="3" />
  <line x1="668.5" y1="69" x2="668.5" y2="4" stroke="#999999" stroke-width="3" />
  <line x1="400.5" y1="69" x2="400.5" y2="4" stroke="#999999" stroke-width="3" />
  <line x1="131.5" y1="69" x2="131.5" y2="4" stroke="#999999" stroke-width="3" />

  <g class="coach-seat" data-number='1'>
    <rect x="133" y="37" width="27" height="29" fill="#C4C4C4" />
    <path d="M147.715 57H145.404V49.6445L143.135 50.3076V48.5576L147.503 47.0469H147.715V57Z" fill="#F5F5F5" />
  </g>

  <g class="coach-seat" data-number='2'>
    <rect x="133" y="8" width="27" height="29" fill="#C4C4C4" />
    <path
      d="M149.554 29H142.608V27.4961L145.808 24.1328C146.596 23.235 146.99 22.5218 146.99 21.9932C146.99 21.5648 146.897 21.2389 146.71 21.0156C146.523 20.7923 146.252 20.6807 145.896 20.6807C145.546 20.6807 145.261 20.8311 145.042 21.1318C144.823 21.4281 144.714 21.7995 144.714 22.2461H142.403C142.403 21.6354 142.556 21.0726 142.861 20.5576C143.167 20.0381 143.59 19.6325 144.133 19.3408C144.675 19.0492 145.281 18.9033 145.951 18.9033C147.027 18.9033 147.854 19.1517 148.433 19.6484C149.016 20.1452 149.308 20.8584 149.308 21.7881C149.308 22.18 149.235 22.5628 149.089 22.9365C148.943 23.3057 148.715 23.6953 148.405 24.1055C148.1 24.5111 147.605 25.0557 146.922 25.7393L145.637 27.2227H149.554V29Z"
      fill="#F5F5F5" />
  </g>

  <g class="coach-seat" data-number='3'>
    <rect x="193" y="37" width="27" height="29" fill="#C4C4C4" />
    <path
      d="M204.714 51.0596H205.801C206.662 51.0596 207.093 50.638 207.093 49.7949C207.093 49.4668 206.99 49.2002 206.785 48.9951C206.58 48.7855 206.291 48.6807 205.917 48.6807C205.612 48.6807 205.345 48.7695 205.117 48.9473C204.894 49.125 204.782 49.346 204.782 49.6104H202.479C202.479 49.0863 202.624 48.6191 202.916 48.209C203.208 47.7988 203.611 47.4798 204.126 47.252C204.646 47.0195 205.215 46.9033 205.835 46.9033C206.942 46.9033 207.813 47.1562 208.446 47.6621C209.08 48.168 209.396 48.863 209.396 49.7471C209.396 50.1755 209.264 50.5811 209 50.9639C208.74 51.3421 208.36 51.6497 207.858 51.8867C208.387 52.0781 208.802 52.3698 209.103 52.7617C209.403 53.1491 209.554 53.6299 209.554 54.2041C209.554 55.0928 209.212 55.8037 208.528 56.3369C207.845 56.8701 206.947 57.1367 205.835 57.1367C205.183 57.1367 204.577 57.0137 204.017 56.7676C203.461 56.5169 203.039 56.1729 202.752 55.7354C202.465 55.2933 202.321 54.792 202.321 54.2314H204.639C204.639 54.5368 204.762 54.8011 205.008 55.0244C205.254 55.2477 205.557 55.3594 205.917 55.3594C206.323 55.3594 206.646 55.2477 206.888 55.0244C207.129 54.7965 207.25 54.5072 207.25 54.1562C207.25 53.6549 207.125 53.2995 206.874 53.0898C206.623 52.8802 206.277 52.7754 205.835 52.7754H204.714V51.0596Z"
      fill="#F5F5F5" />
  </g>

  <g class="coach-seat" data-number='4'>
    <rect x="193" y="8" width="27" height="29" fill="#C4C4C4" />
    <path
      d="M208.692 25.1104H209.704V26.8877H208.692V29H206.389V26.8877H202.54L202.403 25.4795L206.389 19.0674V19.0469H208.692V25.1104ZM204.598 25.1104H206.389V22.0479L206.245 22.2803L204.598 25.1104Z"
      fill="#F5F5F5" />
  </g>


  <g class="coach-seat" data-number='5'>
    <rect x="222" y="37" width="27" height="29" fill="#C4C4C4" />
    <path
      d="M231.745 52.1328L232.354 47.0469H238.171V48.8379H234.227L234.001 50.8135C234.165 50.7178 234.379 50.6335 234.644 50.5605C234.912 50.4876 235.174 50.4512 235.43 50.4512C236.419 50.4512 237.177 50.7451 237.706 51.333C238.239 51.9163 238.506 52.7367 238.506 53.7939C238.506 54.432 238.362 55.0107 238.075 55.5303C237.793 56.0452 237.394 56.4417 236.879 56.7197C236.364 56.9977 235.756 57.1367 235.054 57.1367C234.429 57.1367 233.844 57.0091 233.297 56.7539C232.75 56.4941 232.322 56.141 232.012 55.6943C231.702 55.2432 231.549 54.735 231.554 54.1699H233.864C233.887 54.5345 234.003 54.8239 234.213 55.0381C234.423 55.2523 234.698 55.3594 235.04 55.3594C235.815 55.3594 236.202 54.7852 236.202 53.6367C236.202 52.5749 235.728 52.0439 234.78 52.0439C234.243 52.0439 233.841 52.2171 233.577 52.5635L231.745 52.1328Z"
      fill="#F5F5F5" />
  </g>


  <g class="coach-seat" data-number='6'>
    <rect x="222" y="8" width="27" height="29" fill="#C4C4C4" />
    <path
      d="M237.173 18.9033V20.7148H237.07C236.209 20.7148 235.5 20.9222 234.944 21.3369C234.393 21.7471 234.053 22.319 233.926 23.0527C234.445 22.5423 235.102 22.2871 235.895 22.2871C236.756 22.2871 237.442 22.6016 237.952 23.2305C238.463 23.8594 238.718 24.6842 238.718 25.7051C238.718 26.3385 238.567 26.9196 238.267 27.4482C237.97 27.9769 237.553 28.3916 237.016 28.6924C236.482 28.9886 235.89 29.1367 235.238 29.1367C234.532 29.1367 233.901 28.9772 233.345 28.6582C232.789 28.3346 232.356 27.8743 232.046 27.2773C231.736 26.6803 231.576 25.9922 231.567 25.2129V24.29C231.567 23.2646 231.786 22.3441 232.224 21.5283C232.666 20.708 233.295 20.0654 234.11 19.6006C234.926 19.1357 235.831 18.9033 236.824 18.9033H237.173ZM235.095 24.0508C234.789 24.0508 234.534 24.1214 234.329 24.2627C234.124 24.404 233.971 24.5771 233.871 24.7822V25.4727C233.871 26.7305 234.306 27.3594 235.177 27.3594C235.528 27.3594 235.819 27.2021 236.052 26.8877C236.289 26.5732 236.407 26.179 236.407 25.7051C236.407 25.2174 236.286 24.821 236.045 24.5156C235.808 24.2057 235.491 24.0508 235.095 24.0508Z"
      fill="#F5F5F5" />
  </g>

  <g class="coach-seat" data-number='7'>
    <rect x="282" y="37" width="27" height="29" fill="#C4C4C4" />
    <path d="M298.526 48.2773L294.808 57H292.374L296.1 48.8242H291.355V47.0469H298.526V48.2773Z" fill="#F5F5F5" />
  </g>

  <g class="coach-seat" data-number='8'>
    <rect x="282" y="8" width="27" height="29" fill="#C4C4C4" />
    <path
      d="M298.321 21.7061C298.321 22.1891 298.201 22.6152 297.959 22.9844C297.722 23.3535 297.394 23.6497 296.975 23.873C297.449 24.1055 297.825 24.4245 298.103 24.8301C298.381 25.2311 298.52 25.7074 298.52 26.2588C298.52 27.1475 298.212 27.8493 297.597 28.3643C296.986 28.8792 296.143 29.1367 295.067 29.1367C293.987 29.1367 293.135 28.8792 292.511 28.3643C291.886 27.8447 291.574 27.1429 291.574 26.2588C291.574 25.7256 291.711 25.2539 291.984 24.8438C292.258 24.4336 292.645 24.11 293.146 23.873C292.723 23.6497 292.39 23.3535 292.148 22.9844C291.907 22.6152 291.786 22.1891 291.786 21.7061C291.786 20.8402 292.08 20.1566 292.668 19.6553C293.256 19.154 294.049 18.9033 295.047 18.9033C296.054 18.9033 296.852 19.154 297.439 19.6553C298.027 20.1566 298.321 20.8402 298.321 21.7061ZM296.209 26.0742C296.209 25.6641 296.102 25.3496 295.888 25.1309C295.678 24.9076 295.4 24.7959 295.054 24.7959C294.707 24.7959 294.427 24.9076 294.213 25.1309C293.999 25.3496 293.892 25.6641 293.892 26.0742C293.892 26.4707 293.999 26.7852 294.213 27.0176C294.432 27.2454 294.716 27.3594 295.067 27.3594C295.409 27.3594 295.685 27.2454 295.895 27.0176C296.104 26.7897 296.209 26.4753 296.209 26.0742ZM295.047 20.6807C294.737 20.6807 294.5 20.7832 294.336 20.9883C294.176 21.1888 294.097 21.4691 294.097 21.8291C294.097 22.1846 294.179 22.4717 294.343 22.6904C294.507 22.9092 294.748 23.0186 295.067 23.0186C295.382 23.0186 295.617 22.9092 295.771 22.6904C295.931 22.4717 296.011 22.1846 296.011 21.8291C296.011 21.4736 295.929 21.1934 295.765 20.9883C295.605 20.7832 295.366 20.6807 295.047 20.6807Z"
      fill="#F5F5F5" />
  </g>

  <g class="coach-seat" data-number='9'>
    <rect x="312" y="37" width="27" height="29" fill="#C4C4C4" />
    <path
      d="M326.147 53.1514C325.651 53.598 325.095 53.8213 324.479 53.8213C323.577 53.8213 322.862 53.516 322.333 52.9053C321.804 52.2946 321.54 51.4788 321.54 50.458C321.54 49.82 321.688 49.2275 321.984 48.6807C322.281 48.1338 322.695 47.7008 323.229 47.3818C323.766 47.0628 324.359 46.9033 325.006 46.9033C325.662 46.9033 326.255 47.0697 326.783 47.4023C327.316 47.7305 327.731 48.1976 328.027 48.8037C328.324 49.4053 328.476 50.1003 328.485 50.8887V51.7705C328.485 52.8688 328.269 53.8213 327.836 54.6279C327.408 55.4346 326.795 56.0544 325.997 56.4873C325.2 56.9202 324.27 57.1367 323.208 57.1367H323.064V55.291L323.502 55.2842C325.088 55.2067 325.97 54.4958 326.147 53.1514ZM325.102 52.1602C325.603 52.1602 325.963 51.9437 326.182 51.5107V50.5537C326.182 49.9157 326.075 49.444 325.86 49.1387C325.646 48.8333 325.357 48.6807 324.992 48.6807C324.669 48.6807 324.397 48.8538 324.179 49.2002C323.96 49.5465 323.851 49.9658 323.851 50.458C323.851 50.9775 323.962 51.3923 324.186 51.7021C324.409 52.0075 324.714 52.1602 325.102 52.1602Z"
      fill="#F5F5F5" />
  </g>

  <g class="coach-seat" data-number='10'>
    <rect x="312" y="8" width="27" height="29" fill="#C4C4C4" />
    <path
      d="M322.715 29H320.404V21.6445L318.135 22.3076V20.5576L322.503 19.0469H322.715V29ZM332.627 24.9326C332.627 26.277 332.324 27.3138 331.718 28.043C331.116 28.7721 330.266 29.1367 329.168 29.1367C328.061 29.1367 327.204 28.7699 326.598 28.0361C325.992 27.3024 325.688 26.2679 325.688 24.9326V23.1143C325.688 21.7699 325.989 20.7331 326.591 20.0039C327.197 19.2747 328.051 18.9102 329.154 18.9102C330.257 18.9102 331.112 19.277 331.718 20.0107C332.324 20.7445 332.627 21.7812 332.627 23.1211V24.9326ZM330.323 22.8203C330.323 22.1048 330.23 21.5716 330.043 21.2207C329.856 20.8652 329.56 20.6875 329.154 20.6875C328.758 20.6875 328.468 20.8516 328.286 21.1797C328.108 21.5078 328.013 22.0046 327.999 22.6699V25.2129C327.999 25.9557 328.092 26.5003 328.279 26.8467C328.466 27.1885 328.762 27.3594 329.168 27.3594C329.56 27.3594 329.849 27.193 330.036 26.8604C330.223 26.5231 330.319 25.9967 330.323 25.2812V22.8203Z"
      fill="#F5F5F5" />
  </g>


  <g class="coach-seat" data-number='11'>
    <rect x="372" y="37" width="27" height="29" fill="#C4C4C4" />
    <path
      d="M382.715 57H380.404V49.6445L378.135 50.3076V48.5576L382.503 47.0469H382.715V57ZM390.822 57H388.512V49.6445L386.242 50.3076V48.5576L390.61 47.0469H390.822V57Z"
      fill="#F5F5F5" />
  </g>

  <g class="coach-seat" data-number='12'>
    <rect x="372" y="8" width="27" height="29" fill="#C4C4C4" />
    <path
      d="M382.715 29H380.404V21.6445L378.135 22.3076V20.5576L382.503 19.0469H382.715V29ZM392.661 29H385.716V27.4961L388.915 24.1328C389.703 23.235 390.098 22.5218 390.098 21.9932C390.098 21.5648 390.004 21.2389 389.817 21.0156C389.631 20.7923 389.359 20.6807 389.004 20.6807C388.653 20.6807 388.368 20.8311 388.149 21.1318C387.931 21.4281 387.821 21.7995 387.821 22.2461H385.511C385.511 21.6354 385.663 21.0726 385.969 20.5576C386.274 20.0381 386.698 19.6325 387.24 19.3408C387.783 19.0492 388.389 18.9033 389.059 18.9033C390.134 18.9033 390.961 19.1517 391.54 19.6484C392.123 20.1452 392.415 20.8584 392.415 21.7881C392.415 22.18 392.342 22.5628 392.196 22.9365C392.05 23.3057 391.823 23.6953 391.513 24.1055C391.207 24.5111 390.713 25.0557 390.029 25.7393L388.744 27.2227H392.661V29Z"
      fill="#F5F5F5" />
  </g>

  <g class="coach-seat" data-number='13'>
    <rect x="402" y="37" width="27" height="29" fill="#C4C4C4" />
    <path
      d="M412.715 57H410.404V49.6445L408.135 50.3076V48.5576L412.503 47.0469H412.715V57ZM417.821 51.0596H418.908C419.77 51.0596 420.2 50.638 420.2 49.7949C420.2 49.4668 420.098 49.2002 419.893 48.9951C419.688 48.7855 419.398 48.6807 419.024 48.6807C418.719 48.6807 418.452 48.7695 418.225 48.9473C418.001 49.125 417.89 49.346 417.89 49.6104H415.586C415.586 49.0863 415.732 48.6191 416.023 48.209C416.315 47.7988 416.718 47.4798 417.233 47.252C417.753 47.0195 418.323 46.9033 418.942 46.9033C420.05 46.9033 420.92 47.1562 421.554 47.6621C422.187 48.168 422.504 48.863 422.504 49.7471C422.504 50.1755 422.372 50.5811 422.107 50.9639C421.848 51.3421 421.467 51.6497 420.966 51.8867C421.494 52.0781 421.909 52.3698 422.21 52.7617C422.511 53.1491 422.661 53.6299 422.661 54.2041C422.661 55.0928 422.319 55.8037 421.636 56.3369C420.952 56.8701 420.054 57.1367 418.942 57.1367C418.291 57.1367 417.685 57.0137 417.124 56.7676C416.568 56.5169 416.146 56.1729 415.859 55.7354C415.572 55.2933 415.429 54.792 415.429 54.2314H417.746C417.746 54.5368 417.869 54.8011 418.115 55.0244C418.361 55.2477 418.664 55.3594 419.024 55.3594C419.43 55.3594 419.754 55.2477 419.995 55.0244C420.237 54.7965 420.357 54.5072 420.357 54.1562C420.357 53.6549 420.232 53.2995 419.981 53.0898C419.731 52.8802 419.384 52.7754 418.942 52.7754H417.821V51.0596Z"
      fill="#F5F5F5" />
  </g>

  <g class="coach-seat" data-number='14'>
    <rect x="402" y="8" width="27" height="29" fill="#C4C4C4" />
    <path
      d="M412.715 29H410.404V21.6445L408.135 22.3076V20.5576L412.503 19.0469H412.715V29ZM421.8 25.1104H422.812V26.8877H421.8V29H419.496V26.8877H415.647L415.511 25.4795L419.496 19.0674V19.0469H421.8V25.1104ZM417.705 25.1104H419.496V22.0479L419.353 22.2803L417.705 25.1104Z"
      fill="#F5F5F5" />
  </g>

  <g class="coach-seat" data-number='14'>
    <rect x="461" y="37" width="27" height="29" fill="#C4C4C4" />
    <path
      d="M471.715 57H469.404V49.6445L467.135 50.3076V48.5576L471.503 47.0469H471.715V57ZM474.853 52.1328L475.461 47.0469H481.278V48.8379H477.334L477.108 50.8135C477.272 50.7178 477.487 50.6335 477.751 50.5605C478.02 50.4876 478.282 50.4512 478.537 50.4512C479.526 50.4512 480.285 50.7451 480.813 51.333C481.347 51.9163 481.613 52.7367 481.613 53.7939C481.613 54.432 481.47 55.0107 481.183 55.5303C480.9 56.0452 480.501 56.4417 479.986 56.7197C479.471 56.9977 478.863 57.1367 478.161 57.1367C477.537 57.1367 476.951 57.0091 476.404 56.7539C475.857 56.4941 475.429 56.141 475.119 55.6943C474.809 55.2432 474.657 54.735 474.661 54.1699H476.972C476.994 54.5345 477.111 54.8239 477.32 55.0381C477.53 55.2523 477.806 55.3594 478.147 55.3594C478.922 55.3594 479.31 54.7852 479.31 53.6367C479.31 52.5749 478.836 52.0439 477.888 52.0439C477.35 52.0439 476.949 52.2171 476.685 52.5635L474.853 52.1328Z"
      fill="#F5F5F5" />
  </g>

  <rect x="461" y="8" width="27" height="29" fill="#C4C4C4" />
  <path
    d="M471.715 29H469.404V21.6445L467.135 22.3076V20.5576L471.503 19.0469H471.715V29ZM480.28 18.9033V20.7148H480.178C479.316 20.7148 478.608 20.9222 478.052 21.3369C477.5 21.7471 477.161 22.319 477.033 23.0527C477.553 22.5423 478.209 22.2871 479.002 22.2871C479.863 22.2871 480.549 22.6016 481.06 23.2305C481.57 23.8594 481.825 24.6842 481.825 25.7051C481.825 26.3385 481.675 26.9196 481.374 27.4482C481.078 27.9769 480.661 28.3916 480.123 28.6924C479.59 28.9886 478.997 29.1367 478.346 29.1367C477.639 29.1367 477.008 28.9772 476.452 28.6582C475.896 28.3346 475.463 27.8743 475.153 27.2773C474.843 26.6803 474.684 25.9922 474.675 25.2129V24.29C474.675 23.2646 474.894 22.3441 475.331 21.5283C475.773 20.708 476.402 20.0654 477.218 19.6006C478.034 19.1357 478.938 18.9033 479.932 18.9033H480.28ZM478.202 24.0508C477.897 24.0508 477.642 24.1214 477.437 24.2627C477.231 24.404 477.079 24.5771 476.979 24.7822V25.4727C476.979 26.7305 477.414 27.3594 478.284 27.3594C478.635 27.3594 478.927 27.2021 479.159 26.8877C479.396 26.5732 479.515 26.179 479.515 25.7051C479.515 25.2174 479.394 24.821 479.152 24.5156C478.915 24.2057 478.599 24.0508 478.202 24.0508Z"
    fill="#F5F5F5" />

  <rect x="491" y="37" width="27" height="29" fill="#C4C4C4" />
  <path
    d="M501.715 57H499.404V49.6445L497.135 50.3076V48.5576L501.503 47.0469H501.715V57ZM511.634 48.2773L507.915 57H505.481L509.207 48.8242H504.463V47.0469H511.634V48.2773Z"
    fill="#F5F5F5" />

  <rect x="491" y="8" width="27" height="29" fill="#C4C4C4" />
  <path
    d="M501.715 29H499.404V21.6445L497.135 22.3076V20.5576L501.503 19.0469H501.715V29ZM511.429 21.7061C511.429 22.1891 511.308 22.6152 511.066 22.9844C510.829 23.3535 510.501 23.6497 510.082 23.873C510.556 24.1055 510.932 24.4245 511.21 24.8301C511.488 25.2311 511.627 25.7074 511.627 26.2588C511.627 27.1475 511.319 27.8493 510.704 28.3643C510.093 28.8792 509.25 29.1367 508.175 29.1367C507.095 29.1367 506.243 28.8792 505.618 28.3643C504.994 27.8447 504.682 27.1429 504.682 26.2588C504.682 25.7256 504.818 25.2539 505.092 24.8438C505.365 24.4336 505.753 24.11 506.254 23.873C505.83 23.6497 505.497 23.3535 505.256 22.9844C505.014 22.6152 504.894 22.1891 504.894 21.7061C504.894 20.8402 505.188 20.1566 505.775 19.6553C506.363 19.154 507.156 18.9033 508.154 18.9033C509.161 18.9033 509.959 19.154 510.547 19.6553C511.135 20.1566 511.429 20.8402 511.429 21.7061ZM509.316 26.0742C509.316 25.6641 509.209 25.3496 508.995 25.1309C508.785 24.9076 508.507 24.7959 508.161 24.7959C507.815 24.7959 507.535 24.9076 507.32 25.1309C507.106 25.3496 506.999 25.6641 506.999 26.0742C506.999 26.4707 507.106 26.7852 507.32 27.0176C507.539 27.2454 507.824 27.3594 508.175 27.3594C508.517 27.3594 508.792 27.2454 509.002 27.0176C509.212 26.7897 509.316 26.4753 509.316 26.0742ZM508.154 20.6807C507.844 20.6807 507.607 20.7832 507.443 20.9883C507.284 21.1888 507.204 21.4691 507.204 21.8291C507.204 22.1846 507.286 22.4717 507.45 22.6904C507.614 22.9092 507.856 23.0186 508.175 23.0186C508.489 23.0186 508.724 22.9092 508.879 22.6904C509.038 22.4717 509.118 22.1846 509.118 21.8291C509.118 21.4736 509.036 21.1934 508.872 20.9883C508.713 20.7832 508.473 20.6807 508.154 20.6807Z"
    fill="#F5F5F5" />

  <rect x="551" y="37" width="27" height="29" fill="#C4C4C4" />
  <path
    d="M561.715 57H559.404V49.6445L557.135 50.3076V48.5576L561.503 47.0469H561.715V57ZM569.255 53.1514C568.758 53.598 568.202 53.8213 567.587 53.8213C566.685 53.8213 565.969 53.516 565.44 52.9053C564.912 52.2946 564.647 51.4788 564.647 50.458C564.647 49.82 564.796 49.2275 565.092 48.6807C565.388 48.1338 565.803 47.7008 566.336 47.3818C566.874 47.0628 567.466 46.9033 568.113 46.9033C568.77 46.9033 569.362 47.0697 569.891 47.4023C570.424 47.7305 570.839 48.1976 571.135 48.8037C571.431 49.4053 571.584 50.1003 571.593 50.8887V51.7705C571.593 52.8688 571.376 53.8213 570.943 54.6279C570.515 55.4346 569.902 56.0544 569.104 56.4873C568.307 56.9202 567.377 57.1367 566.315 57.1367H566.172V55.291L566.609 55.2842C568.195 55.2067 569.077 54.4958 569.255 53.1514ZM568.209 52.1602C568.71 52.1602 569.07 51.9437 569.289 51.5107V50.5537C569.289 49.9157 569.182 49.444 568.968 49.1387C568.754 48.8333 568.464 48.6807 568.1 48.6807C567.776 48.6807 567.505 48.8538 567.286 49.2002C567.067 49.5465 566.958 49.9658 566.958 50.458C566.958 50.9775 567.07 51.3923 567.293 51.7021C567.516 52.0075 567.822 52.1602 568.209 52.1602Z"
    fill="#F5F5F5" />

  <rect x="551" y="8" width="27" height="29" fill="#C4C4C4" />
  <path
    d="M563.554 29H556.608V27.4961L559.808 24.1328C560.596 23.235 560.99 22.5218 560.99 21.9932C560.99 21.5648 560.897 21.2389 560.71 21.0156C560.523 20.7923 560.252 20.6807 559.896 20.6807C559.546 20.6807 559.261 20.8311 559.042 21.1318C558.823 21.4281 558.714 21.7995 558.714 22.2461H556.403C556.403 21.6354 556.556 21.0726 556.861 20.5576C557.167 20.0381 557.59 19.6325 558.133 19.3408C558.675 19.0492 559.281 18.9033 559.951 18.9033C561.027 18.9033 561.854 19.1517 562.433 19.6484C563.016 20.1452 563.308 20.8584 563.308 21.7881C563.308 22.18 563.235 22.5628 563.089 22.9365C562.943 23.3057 562.715 23.6953 562.405 24.1055C562.1 24.5111 561.605 25.0557 560.922 25.7393L559.637 27.2227H563.554V29ZM571.627 24.9326C571.627 26.277 571.324 27.3138 570.718 28.043C570.116 28.7721 569.266 29.1367 568.168 29.1367C567.061 29.1367 566.204 28.7699 565.598 28.0361C564.992 27.3024 564.688 26.2679 564.688 24.9326V23.1143C564.688 21.7699 564.989 20.7331 565.591 20.0039C566.197 19.2747 567.051 18.9102 568.154 18.9102C569.257 18.9102 570.112 19.277 570.718 20.0107C571.324 20.7445 571.627 21.7812 571.627 23.1211V24.9326ZM569.323 22.8203C569.323 22.1048 569.23 21.5716 569.043 21.2207C568.856 20.8652 568.56 20.6875 568.154 20.6875C567.758 20.6875 567.468 20.8516 567.286 21.1797C567.108 21.5078 567.013 22.0046 566.999 22.6699V25.2129C566.999 25.9557 567.092 26.5003 567.279 26.8467C567.466 27.1885 567.762 27.3594 568.168 27.3594C568.56 27.3594 568.849 27.193 569.036 26.8604C569.223 26.5231 569.319 25.9967 569.323 25.2812V22.8203Z"
    fill="#F5F5F5" />

  <rect x="581" y="37" width="27" height="29" fill="#C4C4C4" />
  <path
    d="M593.554 57H586.608V55.4961L589.808 52.1328C590.596 51.235 590.99 50.5218 590.99 49.9932C590.99 49.5648 590.897 49.2389 590.71 49.0156C590.523 48.7923 590.252 48.6807 589.896 48.6807C589.546 48.6807 589.261 48.8311 589.042 49.1318C588.823 49.4281 588.714 49.7995 588.714 50.2461H586.403C586.403 49.6354 586.556 49.0726 586.861 48.5576C587.167 48.0381 587.59 47.6325 588.133 47.3408C588.675 47.0492 589.281 46.9033 589.951 46.9033C591.027 46.9033 591.854 47.1517 592.433 47.6484C593.016 48.1452 593.308 48.8584 593.308 49.7881C593.308 50.18 593.235 50.5628 593.089 50.9365C592.943 51.3057 592.715 51.6953 592.405 52.1055C592.1 52.5111 591.605 53.0557 590.922 53.7393L589.637 55.2227H593.554V57ZM599.822 57H597.512V49.6445L595.242 50.3076V48.5576L599.61 47.0469H599.822V57Z"
    fill="#F5F5F5" />

  <rect x="581" y="8" width="27" height="29" fill="#C4C4C4" />
  <path
    d="M593.554 29H586.608V27.4961L589.808 24.1328C590.596 23.235 590.99 22.5218 590.99 21.9932C590.99 21.5648 590.897 21.2389 590.71 21.0156C590.523 20.7923 590.252 20.6807 589.896 20.6807C589.546 20.6807 589.261 20.8311 589.042 21.1318C588.823 21.4281 588.714 21.7995 588.714 22.2461H586.403C586.403 21.6354 586.556 21.0726 586.861 20.5576C587.167 20.0381 587.59 19.6325 588.133 19.3408C588.675 19.0492 589.281 18.9033 589.951 18.9033C591.027 18.9033 591.854 19.1517 592.433 19.6484C593.016 20.1452 593.308 20.8584 593.308 21.7881C593.308 22.18 593.235 22.5628 593.089 22.9365C592.943 23.3057 592.715 23.6953 592.405 24.1055C592.1 24.5111 591.605 25.0557 590.922 25.7393L589.637 27.2227H593.554V29ZM601.661 29H594.716V27.4961L597.915 24.1328C598.703 23.235 599.098 22.5218 599.098 21.9932C599.098 21.5648 599.004 21.2389 598.817 21.0156C598.631 20.7923 598.359 20.6807 598.004 20.6807C597.653 20.6807 597.368 20.8311 597.149 21.1318C596.931 21.4281 596.821 21.7995 596.821 22.2461H594.511C594.511 21.6354 594.663 21.0726 594.969 20.5576C595.274 20.0381 595.698 19.6325 596.24 19.3408C596.783 19.0492 597.389 18.9033 598.059 18.9033C599.134 18.9033 599.961 19.1517 600.54 19.6484C601.123 20.1452 601.415 20.8584 601.415 21.7881C601.415 22.18 601.342 22.5628 601.196 22.9365C601.05 23.3057 600.823 23.6953 600.513 24.1055C600.207 24.5111 599.713 25.0557 599.029 25.7393L597.744 27.2227H601.661V29Z"
    fill="#F5F5F5" />

  <rect x="640" y="37" width="27" height="29" fill="#C4C4C4" />
  <path
    d="M652.554 57H645.608V55.4961L648.808 52.1328C649.596 51.235 649.99 50.5218 649.99 49.9932C649.99 49.5648 649.897 49.2389 649.71 49.0156C649.523 48.7923 649.252 48.6807 648.896 48.6807C648.546 48.6807 648.261 48.8311 648.042 49.1318C647.823 49.4281 647.714 49.7995 647.714 50.2461H645.403C645.403 49.6354 645.556 49.0726 645.861 48.5576C646.167 48.0381 646.59 47.6325 647.133 47.3408C647.675 47.0492 648.281 46.9033 648.951 46.9033C650.027 46.9033 650.854 47.1517 651.433 47.6484C652.016 48.1452 652.308 48.8584 652.308 49.7881C652.308 50.18 652.235 50.5628 652.089 50.9365C651.943 51.3057 651.715 51.6953 651.405 52.1055C651.1 52.5111 650.605 53.0557 649.922 53.7393L648.637 55.2227H652.554V57ZM655.821 51.0596H656.908C657.77 51.0596 658.2 50.638 658.2 49.7949C658.2 49.4668 658.098 49.2002 657.893 48.9951C657.688 48.7855 657.398 48.6807 657.024 48.6807C656.719 48.6807 656.452 48.7695 656.225 48.9473C656.001 49.125 655.89 49.346 655.89 49.6104H653.586C653.586 49.0863 653.732 48.6191 654.023 48.209C654.315 47.7988 654.718 47.4798 655.233 47.252C655.753 47.0195 656.323 46.9033 656.942 46.9033C658.05 46.9033 658.92 47.1562 659.554 47.6621C660.187 48.168 660.504 48.863 660.504 49.7471C660.504 50.1755 660.372 50.5811 660.107 50.9639C659.848 51.3421 659.467 51.6497 658.966 51.8867C659.494 52.0781 659.909 52.3698 660.21 52.7617C660.511 53.1491 660.661 53.6299 660.661 54.2041C660.661 55.0928 660.319 55.8037 659.636 56.3369C658.952 56.8701 658.054 57.1367 656.942 57.1367C656.291 57.1367 655.685 57.0137 655.124 56.7676C654.568 56.5169 654.146 56.1729 653.859 55.7354C653.572 55.2933 653.429 54.792 653.429 54.2314H655.746C655.746 54.5368 655.869 54.8011 656.115 55.0244C656.361 55.2477 656.664 55.3594 657.024 55.3594C657.43 55.3594 657.754 55.2477 657.995 55.0244C658.237 54.7965 658.357 54.5072 658.357 54.1562C658.357 53.6549 658.232 53.2995 657.981 53.0898C657.731 52.8802 657.384 52.7754 656.942 52.7754H655.821V51.0596Z"
    fill="#F5F5F5" />

  <rect x="640" y="8" width="27" height="29" fill="#C4C4C4" />
  <path
    d="M652.554 29H645.608V27.4961L648.808 24.1328C649.596 23.235 649.99 22.5218 649.99 21.9932C649.99 21.5648 649.897 21.2389 649.71 21.0156C649.523 20.7923 649.252 20.6807 648.896 20.6807C648.546 20.6807 648.261 20.8311 648.042 21.1318C647.823 21.4281 647.714 21.7995 647.714 22.2461H645.403C645.403 21.6354 645.556 21.0726 645.861 20.5576C646.167 20.0381 646.59 19.6325 647.133 19.3408C647.675 19.0492 648.281 18.9033 648.951 18.9033C650.027 18.9033 650.854 19.1517 651.433 19.6484C652.016 20.1452 652.308 20.8584 652.308 21.7881C652.308 22.18 652.235 22.5628 652.089 22.9365C651.943 23.3057 651.715 23.6953 651.405 24.1055C651.1 24.5111 650.605 25.0557 649.922 25.7393L648.637 27.2227H652.554V29ZM659.8 25.1104H660.812V26.8877H659.8V29H657.496V26.8877H653.647L653.511 25.4795L657.496 19.0674V19.0469H659.8V25.1104ZM655.705 25.1104H657.496V22.0479L657.353 22.2803L655.705 25.1104Z"
    fill="#F5F5F5" />

  <rect x="670" y="37" width="27" height="29" fill="#C4C4C4" />
  <path
    d="M682.554 57H675.608V55.4961L678.808 52.1328C679.596 51.235 679.99 50.5218 679.99 49.9932C679.99 49.5648 679.897 49.2389 679.71 49.0156C679.523 48.7923 679.252 48.6807 678.896 48.6807C678.546 48.6807 678.261 48.8311 678.042 49.1318C677.823 49.4281 677.714 49.7995 677.714 50.2461H675.403C675.403 49.6354 675.556 49.0726 675.861 48.5576C676.167 48.0381 676.59 47.6325 677.133 47.3408C677.675 47.0492 678.281 46.9033 678.951 46.9033C680.027 46.9033 680.854 47.1517 681.433 47.6484C682.016 48.1452 682.308 48.8584 682.308 49.7881C682.308 50.18 682.235 50.5628 682.089 50.9365C681.943 51.3057 681.715 51.6953 681.405 52.1055C681.1 52.5111 680.605 53.0557 679.922 53.7393L678.637 55.2227H682.554V57ZM685.821 51.0596H686.908C687.77 51.0596 688.2 50.638 688.2 49.7949C688.2 49.4668 688.098 49.2002 687.893 48.9951C687.688 48.7855 687.398 48.6807 687.024 48.6807C686.719 48.6807 686.452 48.7695 686.225 48.9473C686.001 49.125 685.89 49.346 685.89 49.6104H683.586C683.586 49.0863 683.732 48.6191 684.023 48.209C684.315 47.7988 684.718 47.4798 685.233 47.252C685.753 47.0195 686.323 46.9033 686.942 46.9033C688.05 46.9033 688.92 47.1562 689.554 47.6621C690.187 48.168 690.504 48.863 690.504 49.7471C690.504 50.1755 690.372 50.5811 690.107 50.9639C689.848 51.3421 689.467 51.6497 688.966 51.8867C689.494 52.0781 689.909 52.3698 690.21 52.7617C690.511 53.1491 690.661 53.6299 690.661 54.2041C690.661 55.0928 690.319 55.8037 689.636 56.3369C688.952 56.8701 688.054 57.1367 686.942 57.1367C686.291 57.1367 685.685 57.0137 685.124 56.7676C684.568 56.5169 684.146 56.1729 683.859 55.7354C683.572 55.2933 683.429 54.792 683.429 54.2314H685.746C685.746 54.5368 685.869 54.8011 686.115 55.0244C686.361 55.2477 686.664 55.3594 687.024 55.3594C687.43 55.3594 687.754 55.2477 687.995 55.0244C688.237 54.7965 688.357 54.5072 688.357 54.1562C688.357 53.6549 688.232 53.2995 687.981 53.0898C687.731 52.8802 687.384 52.7754 686.942 52.7754H685.821V51.0596Z"
    fill="#F5F5F5" />

  <rect x="670" y="8" width="27" height="29" fill="#C4C4C4" />
  <path
    d="M682.554 29H675.608V27.4961L678.808 24.1328C679.596 23.235 679.99 22.5218 679.99 21.9932C679.99 21.5648 679.897 21.2389 679.71 21.0156C679.523 20.7923 679.252 20.6807 678.896 20.6807C678.546 20.6807 678.261 20.8311 678.042 21.1318C677.823 21.4281 677.714 21.7995 677.714 22.2461H675.403C675.403 21.6354 675.556 21.0726 675.861 20.5576C676.167 20.0381 676.59 19.6325 677.133 19.3408C677.675 19.0492 678.281 18.9033 678.951 18.9033C680.027 18.9033 680.854 19.1517 681.433 19.6484C682.016 20.1452 682.308 20.8584 682.308 21.7881C682.308 22.18 682.235 22.5628 682.089 22.9365C681.943 23.3057 681.715 23.6953 681.405 24.1055C681.1 24.5111 680.605 25.0557 679.922 25.7393L678.637 27.2227H682.554V29ZM689.8 25.1104H690.812V26.8877H689.8V29H687.496V26.8877H683.647L683.511 25.4795L687.496 19.0674V19.0469H689.8V25.1104ZM685.705 25.1104H687.496V22.0479L687.353 22.2803L685.705 25.1104Z"
    fill="#F5F5F5" />

  <rect x="731" y="37" width="27" height="29" fill="#C4C4C4" />
  <path
    d="M743.554 57H736.608V55.4961L739.808 52.1328C740.596 51.235 740.99 50.5218 740.99 49.9932C740.99 49.5648 740.897 49.2389 740.71 49.0156C740.523 48.7923 740.252 48.6807 739.896 48.6807C739.546 48.6807 739.261 48.8311 739.042 49.1318C738.823 49.4281 738.714 49.7995 738.714 50.2461H736.403C736.403 49.6354 736.556 49.0726 736.861 48.5576C737.167 48.0381 737.59 47.6325 738.133 47.3408C738.675 47.0492 739.281 46.9033 739.951 46.9033C741.027 46.9033 741.854 47.1517 742.433 47.6484C743.016 48.1452 743.308 48.8584 743.308 49.7881C743.308 50.18 743.235 50.5628 743.089 50.9365C742.943 51.3057 742.715 51.6953 742.405 52.1055C742.1 52.5111 741.605 53.0557 740.922 53.7393L739.637 55.2227H743.554V57ZM744.853 52.1328L745.461 47.0469H751.278V48.8379H747.334L747.108 50.8135C747.272 50.7178 747.487 50.6335 747.751 50.5605C748.02 50.4876 748.282 50.4512 748.537 50.4512C749.526 50.4512 750.285 50.7451 750.813 51.333C751.347 51.9163 751.613 52.7367 751.613 53.7939C751.613 54.432 751.47 55.0107 751.183 55.5303C750.9 56.0452 750.501 56.4417 749.986 56.7197C749.471 56.9977 748.863 57.1367 748.161 57.1367C747.537 57.1367 746.951 57.0091 746.404 56.7539C745.857 56.4941 745.429 56.141 745.119 55.6943C744.809 55.2432 744.657 54.735 744.661 54.1699H746.972C746.994 54.5345 747.111 54.8239 747.32 55.0381C747.53 55.2523 747.806 55.3594 748.147 55.3594C748.922 55.3594 749.31 54.7852 749.31 53.6367C749.31 52.5749 748.836 52.0439 747.888 52.0439C747.35 52.0439 746.949 52.2171 746.685 52.5635L744.853 52.1328Z"
    fill="#F5F5F5" />

  <rect x="731" y="8" width="27" height="29" fill="#C4C4C4" />
  <path
    d="M743.554 29H736.608V27.4961L739.808 24.1328C740.596 23.235 740.99 22.5218 740.99 21.9932C740.99 21.5648 740.897 21.2389 740.71 21.0156C740.523 20.7923 740.252 20.6807 739.896 20.6807C739.546 20.6807 739.261 20.8311 739.042 21.1318C738.823 21.4281 738.714 21.7995 738.714 22.2461H736.403C736.403 21.6354 736.556 21.0726 736.861 20.5576C737.167 20.0381 737.59 19.6325 738.133 19.3408C738.675 19.0492 739.281 18.9033 739.951 18.9033C741.027 18.9033 741.854 19.1517 742.433 19.6484C743.016 20.1452 743.308 20.8584 743.308 21.7881C743.308 22.18 743.235 22.5628 743.089 22.9365C742.943 23.3057 742.715 23.6953 742.405 24.1055C742.1 24.5111 741.605 25.0557 740.922 25.7393L739.637 27.2227H743.554V29ZM750.28 18.9033V20.7148H750.178C749.316 20.7148 748.608 20.9222 748.052 21.3369C747.5 21.7471 747.161 22.319 747.033 23.0527C747.553 22.5423 748.209 22.2871 749.002 22.2871C749.863 22.2871 750.549 22.6016 751.06 23.2305C751.57 23.8594 751.825 24.6842 751.825 25.7051C751.825 26.3385 751.675 26.9196 751.374 27.4482C751.078 27.9769 750.661 28.3916 750.123 28.6924C749.59 28.9886 748.997 29.1367 748.346 29.1367C747.639 29.1367 747.008 28.9772 746.452 28.6582C745.896 28.3346 745.463 27.8743 745.153 27.2773C744.843 26.6803 744.684 25.9922 744.675 25.2129V24.29C744.675 23.2646 744.894 22.3441 745.331 21.5283C745.773 20.708 746.402 20.0654 747.218 19.6006C748.034 19.1357 748.938 18.9033 749.932 18.9033H750.28ZM748.202 24.0508C747.897 24.0508 747.642 24.1214 747.437 24.2627C747.231 24.404 747.079 24.5771 746.979 24.7822V25.4727C746.979 26.7305 747.414 27.3594 748.284 27.3594C748.635 27.3594 748.927 27.2021 749.159 26.8877C749.396 26.5732 749.515 26.179 749.515 25.7051C749.515 25.2174 749.394 24.821 749.152 24.5156C748.915 24.2057 748.599 24.0508 748.202 24.0508Z"
    fill="#F5F5F5" />

  <rect x="760" y="37" width="27" height="29" fill="#C4C4C4" />
  <path
    d="M772.554 57H765.608V55.4961L768.808 52.1328C769.596 51.235 769.99 50.5218 769.99 49.9932C769.99 49.5648 769.897 49.2389 769.71 49.0156C769.523 48.7923 769.252 48.6807 768.896 48.6807C768.546 48.6807 768.261 48.8311 768.042 49.1318C767.823 49.4281 767.714 49.7995 767.714 50.2461H765.403C765.403 49.6354 765.556 49.0726 765.861 48.5576C766.167 48.0381 766.59 47.6325 767.133 47.3408C767.675 47.0492 768.281 46.9033 768.951 46.9033C770.027 46.9033 770.854 47.1517 771.433 47.6484C772.016 48.1452 772.308 48.8584 772.308 49.7881C772.308 50.18 772.235 50.5628 772.089 50.9365C771.943 51.3057 771.715 51.6953 771.405 52.1055C771.1 52.5111 770.605 53.0557 769.922 53.7393L768.637 55.2227H772.554V57ZM780.634 48.2773L776.915 57H774.481L778.207 48.8242H773.463V47.0469H780.634V48.2773Z"
    fill="#F5F5F5" />

  <rect x="760" y="8" width="27" height="29" fill="#C4C4C4" />
  <path
    d="M772.554 29H765.608V27.4961L768.808 24.1328C769.596 23.235 769.99 22.5218 769.99 21.9932C769.99 21.5648 769.897 21.2389 769.71 21.0156C769.523 20.7923 769.252 20.6807 768.896 20.6807C768.546 20.6807 768.261 20.8311 768.042 21.1318C767.823 21.4281 767.714 21.7995 767.714 22.2461H765.403C765.403 21.6354 765.556 21.0726 765.861 20.5576C766.167 20.0381 766.59 19.6325 767.133 19.3408C767.675 19.0492 768.281 18.9033 768.951 18.9033C770.027 18.9033 770.854 19.1517 771.433 19.6484C772.016 20.1452 772.308 20.8584 772.308 21.7881C772.308 22.18 772.235 22.5628 772.089 22.9365C771.943 23.3057 771.715 23.6953 771.405 24.1055C771.1 24.5111 770.605 25.0557 769.922 25.7393L768.637 27.2227H772.554V29ZM780.429 21.7061C780.429 22.1891 780.308 22.6152 780.066 22.9844C779.829 23.3535 779.501 23.6497 779.082 23.873C779.556 24.1055 779.932 24.4245 780.21 24.8301C780.488 25.2311 780.627 25.7074 780.627 26.2588C780.627 27.1475 780.319 27.8493 779.704 28.3643C779.093 28.8792 778.25 29.1367 777.175 29.1367C776.095 29.1367 775.243 28.8792 774.618 28.3643C773.994 27.8447 773.682 27.1429 773.682 26.2588C773.682 25.7256 773.818 25.2539 774.092 24.8438C774.365 24.4336 774.753 24.11 775.254 23.873C774.83 23.6497 774.497 23.3535 774.256 22.9844C774.014 22.6152 773.894 22.1891 773.894 21.7061C773.894 20.8402 774.188 20.1566 774.775 19.6553C775.363 19.154 776.156 18.9033 777.154 18.9033C778.161 18.9033 778.959 19.154 779.547 19.6553C780.135 20.1566 780.429 20.8402 780.429 21.7061ZM778.316 26.0742C778.316 25.6641 778.209 25.3496 777.995 25.1309C777.785 24.9076 777.507 24.7959 777.161 24.7959C776.815 24.7959 776.535 24.9076 776.32 25.1309C776.106 25.3496 775.999 25.6641 775.999 26.0742C775.999 26.4707 776.106 26.7852 776.32 27.0176C776.539 27.2454 776.824 27.3594 777.175 27.3594C777.517 27.3594 777.792 27.2454 778.002 27.0176C778.212 26.7897 778.316 26.4753 778.316 26.0742ZM777.154 20.6807C776.844 20.6807 776.607 20.7832 776.443 20.9883C776.284 21.1888 776.204 21.4691 776.204 21.8291C776.204 22.1846 776.286 22.4717 776.45 22.6904C776.614 22.9092 776.856 23.0186 777.175 23.0186C777.489 23.0186 777.724 22.9092 777.879 22.6904C778.038 22.4717 778.118 22.1846 778.118 21.8291C778.118 21.4736 778.036 21.1934 777.872 20.9883C777.713 20.7832 777.473 20.6807 777.154 20.6807Z"
    fill="#F5F5F5" />

  <rect x="821" y="37" width="26" height="29" fill="#C4C4C4" />
  <path
    d="M833.554 57H826.608V55.4961L829.808 52.1328C830.596 51.235 830.99 50.5218 830.99 49.9932C830.99 49.5648 830.897 49.2389 830.71 49.0156C830.523 48.7923 830.252 48.6807 829.896 48.6807C829.546 48.6807 829.261 48.8311 829.042 49.1318C828.823 49.4281 828.714 49.7995 828.714 50.2461H826.403C826.403 49.6354 826.556 49.0726 826.861 48.5576C827.167 48.0381 827.59 47.6325 828.133 47.3408C828.675 47.0492 829.281 46.9033 829.951 46.9033C831.027 46.9033 831.854 47.1517 832.433 47.6484C833.016 48.1452 833.308 48.8584 833.308 49.7881C833.308 50.18 833.235 50.5628 833.089 50.9365C832.943 51.3057 832.715 51.6953 832.405 52.1055C832.1 52.5111 831.605 53.0557 830.922 53.7393L829.637 55.2227H833.554V57ZM839.255 53.1514C838.758 53.598 838.202 53.8213 837.587 53.8213C836.685 53.8213 835.969 53.516 835.44 52.9053C834.912 52.2946 834.647 51.4788 834.647 50.458C834.647 49.82 834.796 49.2275 835.092 48.6807C835.388 48.1338 835.803 47.7008 836.336 47.3818C836.874 47.0628 837.466 46.9033 838.113 46.9033C838.77 46.9033 839.362 47.0697 839.891 47.4023C840.424 47.7305 840.839 48.1976 841.135 48.8037C841.431 49.4053 841.584 50.1003 841.593 50.8887V51.7705C841.593 52.8688 841.376 53.8213 840.943 54.6279C840.515 55.4346 839.902 56.0544 839.104 56.4873C838.307 56.9202 837.377 57.1367 836.315 57.1367H836.172V55.291L836.609 55.2842C838.195 55.2067 839.077 54.4958 839.255 53.1514ZM838.209 52.1602C838.71 52.1602 839.07 51.9437 839.289 51.5107V50.5537C839.289 49.9157 839.182 49.444 838.968 49.1387C838.754 48.8333 838.464 48.6807 838.1 48.6807C837.776 48.6807 837.505 48.8538 837.286 49.2002C837.067 49.5465 836.958 49.9658 836.958 50.458C836.958 50.9775 837.07 51.3923 837.293 51.7021C837.516 52.0075 837.822 52.1602 838.209 52.1602Z"
    fill="#F5F5F5" />

  <rect x="821" y="8" width="26" height="29" fill="#C4C4C4" />
  <path
    d="M828.714 23.0596H829.801C830.662 23.0596 831.093 22.638 831.093 21.7949C831.093 21.4668 830.99 21.2002 830.785 20.9951C830.58 20.7855 830.291 20.6807 829.917 20.6807C829.612 20.6807 829.345 20.7695 829.117 20.9473C828.894 21.125 828.782 21.346 828.782 21.6104H826.479C826.479 21.0863 826.624 20.6191 826.916 20.209C827.208 19.7988 827.611 19.4798 828.126 19.252C828.646 19.0195 829.215 18.9033 829.835 18.9033C830.942 18.9033 831.813 19.1562 832.446 19.6621C833.08 20.168 833.396 20.863 833.396 21.7471C833.396 22.1755 833.264 22.5811 833 22.9639C832.74 23.3421 832.36 23.6497 831.858 23.8867C832.387 24.0781 832.802 24.3698 833.103 24.7617C833.403 25.1491 833.554 25.6299 833.554 26.2041C833.554 27.0928 833.212 27.8037 832.528 28.3369C831.845 28.8701 830.947 29.1367 829.835 29.1367C829.183 29.1367 828.577 29.0137 828.017 28.7676C827.461 28.5169 827.039 28.1729 826.752 27.7354C826.465 27.2933 826.321 26.792 826.321 26.2314H828.639C828.639 26.5368 828.762 26.8011 829.008 27.0244C829.254 27.2477 829.557 27.3594 829.917 27.3594C830.323 27.3594 830.646 27.2477 830.888 27.0244C831.129 26.7965 831.25 26.5072 831.25 26.1562C831.25 25.6549 831.125 25.2995 830.874 25.0898C830.623 24.8802 830.277 24.7754 829.835 24.7754H828.714V23.0596ZM841.627 24.9326C841.627 26.277 841.324 27.3138 840.718 28.043C840.116 28.7721 839.266 29.1367 838.168 29.1367C837.061 29.1367 836.204 28.7699 835.598 28.0361C834.992 27.3024 834.688 26.2679 834.688 24.9326V23.1143C834.688 21.7699 834.989 20.7331 835.591 20.0039C836.197 19.2747 837.051 18.9102 838.154 18.9102C839.257 18.9102 840.112 19.277 840.718 20.0107C841.324 20.7445 841.627 21.7812 841.627 23.1211V24.9326ZM839.323 22.8203C839.323 22.1048 839.23 21.5716 839.043 21.2207C838.856 20.8652 838.56 20.6875 838.154 20.6875C837.758 20.6875 837.468 20.8516 837.286 21.1797C837.108 21.5078 837.013 22.0046 836.999 22.6699V25.2129C836.999 25.9557 837.092 26.5003 837.279 26.8467C837.466 27.1885 837.762 27.3594 838.168 27.3594C838.56 27.3594 838.849 27.193 839.036 26.8604C839.223 26.5231 839.319 25.9967 839.323 25.2812V22.8203Z"
    fill="#F5F5F5" />



  <rect x="17" y="1" width="14" height="6" stroke="#999999" stroke-width="2" />
  <rect x="17" y="117" width="14" height="6" stroke="#999999" stroke-width="2" />
  <g clip-path="url(#clip2)">
    <path
      d="M874.655 28.069C874.398 28.069 874.19 27.8606 874.19 27.6035V22.1724H875.121V27.6035C875.121 27.8606 874.912 28.069 874.655 28.069ZM876.672 27.6035C876.672 27.8606 876.464 28.069 876.207 28.069C875.95 28.069 875.741 27.8606 875.741 27.6035V22.1724H876.672V27.6035ZM878.224 20.4655C878.224 20.7226 878.016 20.931 877.759 20.931C877.502 20.931 877.293 20.7226 877.293 20.4655V16.5862C877.293 16.4148 877.154 16.2759 876.983 16.2759C876.811 16.2759 876.672 16.4148 876.672 16.5862V21.5517H874.19V16.5862C874.19 16.4148 874.051 16.2759 873.879 16.2759C873.708 16.2759 873.569 16.4148 873.569 16.5862V20.4655C873.569 20.7226 873.361 20.931 873.103 20.931C872.846 20.931 872.638 20.7226 872.638 20.4655V16.5862C872.638 15.9006 873.194 15.3448 873.879 15.3448H876.983C877.668 15.3448 878.224 15.9006 878.224 16.5862V20.4655Z"
      fill="#999999" />
    <path
      d="M864.724 28.069C864.6 28.0697 864.482 28.0209 864.394 27.9334C864.307 27.846 864.258 27.7271 864.259 27.6034L864.259 23.4138H865.19V27.6034C865.19 27.8605 864.981 28.069 864.724 28.069ZM866.741 27.6034C866.741 27.8605 866.533 28.069 866.276 28.069C866.019 28.069 865.81 27.8605 865.81 27.6034V23.4138H866.741V27.6034ZM868.743 20.6955C868.496 20.7654 868.238 20.6232 868.166 20.3768L867.052 16.4975C867.003 16.3348 866.833 16.2415 866.669 16.2881C866.506 16.3347 866.41 16.5039 866.455 16.6678L868.191 22.7931H862.807L864.545 16.6669C864.583 16.5053 864.487 16.3422 864.328 16.2968C864.168 16.2514 864.001 16.3399 863.948 16.4975L862.834 20.3749C862.764 20.6226 862.506 20.7662 862.258 20.6958C862.011 20.6254 861.867 20.3675 861.938 20.1198L863.051 16.2448C863.207 15.7136 863.693 15.3476 864.246 15.3448H867.222C867.498 15.3461 867.741 15.5287 867.818 15.7936L869.062 20.1192C869.097 20.238 869.082 20.3655 869.022 20.4736C868.962 20.5817 868.862 20.6616 868.743 20.6955V20.6955Z"
      fill="#999999" />
    <path
      d="M871.086 11H870.466C870.294 11 870.155 11.1389 870.155 11.3103V28.6897C870.155 28.8611 870.294 29 870.466 29H871.086C871.258 29 871.397 28.8611 871.397 28.6897V11.3103C871.397 11.1389 871.258 11 871.086 11Z"
      fill="#999999" />
    <path
      d="M865.5 14.4138C866.186 14.4138 866.741 13.858 866.741 13.1724C866.741 12.4868 866.186 11.931 865.5 11.931C864.814 11.931 864.259 12.4868 864.259 13.1724C864.259 13.858 864.814 14.4138 865.5 14.4138Z"
      fill="#999999" />
    <path
      d="M875.431 14.4138C876.117 14.4138 876.672 13.858 876.672 13.1724C876.672 12.4868 876.117 11.931 875.431 11.931C874.745 11.931 874.19 12.4868 874.19 13.1724C874.19 13.858 874.745 14.4138 875.431 14.4138Z"
      fill="#999999" />
  </g>
  <g clip-path="url(#clip3)">
    <path
      d="M874.496 104.576L874.143 103.517C874.008 103.114 873.632 102.843 873.207 102.843H870.238V101.876C870.238 101.393 869.845 101 869.362 101H866.643C866.16 101 865.767 101.393 865.767 101.876V102.843H862.798C862.373 102.843 861.997 103.114 861.863 103.517L861.509 104.576C861.429 104.817 861.47 105.084 861.618 105.291C861.767 105.497 862.007 105.62 862.261 105.62H862.63L863.443 115.67C863.504 116.416 864.136 117 864.884 117H871.286C872.034 117 872.667 116.416 872.727 115.67L873.54 105.62H873.744C873.998 105.62 874.239 105.497 874.387 105.291C874.536 105.084 874.577 104.817 874.496 104.576V104.576ZM866.705 101.938H869.301V102.843H866.705V101.938ZM871.792 115.594C871.771 115.857 871.549 116.062 871.286 116.062H864.884C864.621 116.062 864.399 115.857 864.378 115.594L863.571 105.62H872.599L871.792 115.594ZM862.462 104.682L862.752 103.814C862.759 103.794 862.777 103.781 862.798 103.781H873.207C873.228 103.781 873.247 103.794 873.254 103.814L873.543 104.682H862.462Z"
      fill="#999999" />
    <path
      d="M870.297 115.561C870.306 115.562 870.314 115.562 870.322 115.562C870.57 115.562 870.777 115.368 870.79 115.117L871.23 106.667C871.243 106.409 871.045 106.188 870.786 106.175C870.527 106.161 870.307 106.36 870.294 106.619L869.854 115.069C869.84 115.327 870.039 115.548 870.297 115.561V115.561Z"
      fill="#999999" />
    <path
      d="M865.236 115.119C865.25 115.368 865.457 115.562 865.704 115.562C865.713 115.562 865.721 115.562 865.73 115.561C865.989 115.547 866.187 115.326 866.173 115.068L865.712 106.618C865.698 106.359 865.477 106.161 865.218 106.175C864.96 106.189 864.761 106.41 864.776 106.669L865.236 115.119Z"
      fill="#999999" />
    <path
      d="M868.008 115.562C868.267 115.562 868.477 115.352 868.477 115.093V106.643C868.477 106.384 868.267 106.174 868.008 106.174C867.749 106.174 867.539 106.384 867.539 106.643V115.093C867.539 115.352 867.749 115.562 868.008 115.562Z"
      fill="#999999" />
  </g>
  <defs>
    <clipPath id="clip0">
      <rect x="47" y="17" width="18" height="18" fill="white" />
    </clipPath>
    <clipPath id="clip1">
      <rect x="48" y="98" width="13" height="13" fill="white" />
    </clipPath>
    <clipPath id="clip2">
      <rect x="861" y="10" width="18" height="18" fill="white" />
    </clipPath>
    <clipPath id="clip3">
      <rect x="860" y="101" width="16" height="16" fill="white" />
    </clipPath>
  </defs>
</svg>