<?xml version="1.0" encoding="utf-8"?>
<!-- Generator: Adobe Illustrator 23.0.3, SVG Export Plug-In . SVG Version: 6.00 Build 0)  -->
<svg version="1.1" id="Слой_1" xmlns="http://www.w3.org/2000/svg" xmlns:xlink="http://www.w3.org/1999/xlink" x="0px" y="0px" viewBox="0 0 920 124"
	style="enable-background:new 0 0 920 124;" xml:space="preserve">
	<style type="text/css">
		.st0 {
			fill: none;
			stroke: #CCCCCC;
		}

		.st1 {
			fill: none;
			stroke: #999999;
			stroke-width: 2;
		}

		.st2 {
			fill: none;
			stroke: #999999;
			stroke-width: 4;
		}

		.st3 {
			clip-path: url(#SVGID_2_);
		}

		.st4 {
			fill: #999999;
		}

		.st5 {
			clip-path: url(#SVGID_4_);
		}

		.st6 {
			fill: none;
			stroke: #999999;
			stroke-width: 3;
		}

		.st7 {
			fill: #C4C4C4;
		}

		.st8 {
			fill: #F5F5F5;
		}

		.st9 {
			clip-path: url(#SVGID_6_);
		}

		.st10 {
			clip-path: url(#SVGID_8_);
		}
	</style>
	<path class="st0" d="M12,3.5h896c6.4,0,11.5,5.1,11.5,11.5v93c0,6.4-5.1,11.5-11.5,11.5H12c-6.4,0-11.5-5.1-11.5-11.5V15
	C0.5,8.6,5.6,3.5,12,3.5z" />
	<line class="st0" x1="40.5" y1="70" x2="40.5" y2="120" />
	<line class="st0" x1="72.5" y1="91" x2="72.5" y2="120" />
	<line class="st0" x1="130" y1="66.5" x2="87" y2="66.5" />
	<line class="st0" x1="73.5" y1="4" x2="73.5" y2="59" />
	<line class="st0" x1="40.5" y1="1" x2="40.5" y2="40" />
	<line class="st0" x1="40" y1="70.4" x2="72.3" y2="91.6" />
	<line class="st0" x1="40.2" y1="39.6" x2="87.2" y2="66.6" />
	<line class="st0" x1="883" y1="38.5" x2="865" y2="38.5" />
	<line class="st0" x1="882.5" y1="4" x2="882.5" y2="119" />
	<line class="st0" x1="864.3" y1="54.4" x2="848.3" y2="67.4" />
	<line class="st0" x1="864.5" y1="38" x2="864.5" y2="55" />
	<line class="st1" x1="882" y1="38" x2="882" y2="60" />
	<line class="st1" x1="40" y1="40" x2="40" y2="72" />
	<line class="st1" x1="2" y1="40" x2="2" y2="78" />
	<line class="st2" x1="130" y1="118" x2="849" y2="118" />
	<line class="st2" x1="848" y1="97" x2="848" y2="120" />
	<g>
		<defs>
			<rect id="SVGID_1_" x="47" y="17" width="18" height="18" />
		</defs>
		<clipPath id="SVGID_2_">
			<use xlink:href="#SVGID_1_" style="overflow:visible;" />
		</clipPath>
		<g class="st3">
			<path class="st4" d="M60.7,34.1c-0.3,0-0.5-0.2-0.5-0.5v-5.4h0.9v5.4C61.1,33.9,60.9,34.1,60.7,34.1z M62.7,33.6
			c0,0.3-0.2,0.5-0.5,0.5c-0.3,0-0.5-0.2-0.5-0.5v-5.4h0.9V33.6z M64.2,26.5c0,0.3-0.2,0.5-0.5,0.5c-0.3,0-0.5-0.2-0.5-0.5v-3.9
			c0-0.2-0.1-0.3-0.3-0.3c-0.2,0-0.3,0.1-0.3,0.3v5h-2.5v-5c0-0.2-0.1-0.3-0.3-0.3c-0.2,0-0.3,0.1-0.3,0.3v3.9
			c0,0.3-0.2,0.5-0.5,0.5s-0.5-0.2-0.5-0.5v-3.9c0-0.7,0.6-1.2,1.2-1.2H63c0.7,0,1.2,0.6,1.2,1.2V26.5z" />
			<path class="st4" d="M50.7,34.1c-0.1,0-0.2,0-0.3-0.1c-0.1-0.1-0.1-0.2-0.1-0.3v-4.2h0.9v4.2C51.2,33.9,51,34.1,50.7,34.1z
			 M52.7,33.6c0,0.3-0.2,0.5-0.5,0.5c-0.3,0-0.5-0.2-0.5-0.5v-4.2h0.9V33.6z M54.7,26.7c-0.2,0.1-0.5-0.1-0.6-0.3l-1.1-3.9
			c0-0.2-0.2-0.3-0.4-0.2c-0.2,0-0.3,0.2-0.2,0.4l1.7,6.1h-5.4l1.7-6.1c0-0.2-0.1-0.3-0.2-0.4c-0.2,0-0.3,0-0.4,0.2l-1.1,3.9
			c-0.1,0.2-0.3,0.4-0.6,0.3c-0.2-0.1-0.4-0.3-0.3-0.6l1.1-3.9c0.2-0.5,0.6-0.9,1.2-0.9h3c0.3,0,0.5,0.2,0.6,0.4l1.2,4.3
			c0,0.1,0,0.2,0,0.4C55,26.6,54.9,26.7,54.7,26.7z" />
			<path class="st4" d="M57.1,17h-0.6c-0.2,0-0.3,0.1-0.3,0.3v17.4c0,0.2,0.1,0.3,0.3,0.3h0.6c0.2,0,0.3-0.1,0.3-0.3V17.3
			C57.4,17.1,57.3,17,57.1,17z" />
			<path class="st4" d="M51.5,20.4c0.7,0,1.2-0.6,1.2-1.2s-0.6-1.2-1.2-1.2s-1.2,0.6-1.2,1.2S50.8,20.4,51.5,20.4z" />
			<path class="st4" d="M61.4,20.4c0.7,0,1.2-0.6,1.2-1.2s-0.6-1.2-1.2-1.2c-0.7,0-1.2,0.6-1.2,1.2S60.7,20.4,61.4,20.4z" />
		</g>
	</g>
	<path class="st4" d="M110.1,41.4l-1.5-0.7c1.7-0.7,1.9-1.6,1.9-1.7c0-0.2-0.1-0.4-0.3-0.4c-1.2-0.2-1.2-2.2-1.1-4.4
	c0-0.4,0-0.8,0-1.2c0.1-1.6-0.8-3.2-2.2-4.1l-0.7-2.3c0-0.1-0.1-0.2-0.2-0.2c-0.8-0.2-1.7-0.4-2.6-0.4c-0.9,0-1.7,0.1-2.6,0.4
	c-0.1,0-0.2,0.1-0.2,0.2l-0.7,2.3c-1.4,0.9-2.2,2.4-2.2,4.1c0,0.4,0,0.8,0,1.2c0,2.2,0.1,4.1-1.1,4.4c-0.2,0-0.3,0.2-0.3,0.4
	c0,0.1,0.2,1,1.9,1.7l-1.6,0.7c-0.6,0.3-1.1,0.9-1.2,1.6l-0.6,3.6c0,0.1,0,0.2,0.1,0.3c0.1,0.1,0.2,0.1,0.3,0.1h16.1
	c0.1,0,0.2,0,0.3-0.1c0.1-0.1,0.1-0.2,0.1-0.3l-0.6-3.6C111.2,42.3,110.8,41.7,110.1,41.4z M106,42.6c0.2,0.5-0.1,1.2-0.3,1.8
	c-0.3-0.6-0.8-1.1-1.5-1.3c1-0.9,1.8-2,2.3-3.2c0.5,0.3,0.9,0.7,1.3,1.1c0.4,0.5,0.3,1.5,0.1,2.2c-0.4-0.4-0.9-0.8-1.5-1
	c-0.1,0-0.3,0-0.4,0.1C106,42.3,105.9,42.4,106,42.6L106,42.6z M103.5,42.7c-0.8-0.8-1.5-1.7-2.1-2.7l0.3-0.2V40
	c0,0.2,0.2,0.4,0.4,0.4s0.3-0.2,0.3-0.4v-2.3c0.6,0.4,1.5,0.4,2.1,0V40c0,0.2,0.2,0.4,0.3,0.4s0.3-0.2,0.3-0.4v-0.1l0.3,0.2
	C105,41,104.3,41.9,103.5,42.7z M100.9,42.2c-0.1-0.1-0.2-0.1-0.4-0.1c-0.6,0.2-1.1,0.5-1.5,1c-0.1-0.7-0.2-1.7,0.1-2.2
	c0.3-0.5,0.8-0.9,1.3-1.1c0.5,1.2,1.3,2.3,2.3,3.2c-0.6,0.3-1.1,0.7-1.5,1.3c-0.2-0.6-0.5-1.3-0.3-1.8
	C101.1,42.4,101,42.3,100.9,42.2z M101,32.9c1-0.2,1.9-0.8,2.4-1.7c0.5,0.9,1.4,1.5,2.5,1.7v1.9c0,0.7-0.4,1.4-1,1.8l-0.7,0.5
	c-0.5,0.3-1,0.3-1.5,0l-0.7-0.5c-0.6-0.4-1-1.1-1-1.8V32.9z M101.3,27c0.7-0.2,1.4-0.3,2.2-0.3c0.7,0,1.5,0.1,2.2,0.3l0.5,1.7
	c-0.9-0.2-1.8-0.2-2.7-0.3c-0.9,0-1.8,0.1-2.7,0.3L101.3,27z M97.3,39.2c1.3-0.6,1.3-2.7,1.3-4.9c0-0.4,0-0.8,0-1.2
	c-0.1-1.4,0.7-2.8,1.9-3.5c1-0.2,2-0.3,3-0.3c1,0,2,0.1,3,0.3c1.2,0.8,1.9,2.1,1.9,3.5c0,0.4,0,0.8,0,1.2c0,2.2-0.1,4.3,1.3,4.9
	c-0.4,0.5-1,0.8-1.6,1c-0.4-0.5-1-0.9-1.6-1.2c-0.1,0-0.2,0-0.3,0c-0.1,0-0.1,0.1-0.2,0.2c0,0,0,0.1-0.1,0.2l-0.6-0.3v-1.9l0.1-0.1
	c0.8-0.5,1.3-1.4,1.3-2.4V33h0c0.2,0,0.3-0.1,0.3-0.3c0-0.2-0.1-0.3-0.3-0.4c-2.5-0.3-2.8-2.1-2.8-2.2c0,0,0,0,0,0c0,0,0,0,0-0.1
	c0,0,0,0,0-0.1c0,0-0.1-0.1-0.1-0.1c0,0,0,0-0.1,0c0,0,0,0-0.1,0c0,0,0,0,0,0c0,0-0.1,0-0.1,0c0,0,0,0,0,0c0,0,0,0-0.1,0
	c-0.1,0-0.1,0.1-0.1,0.1c0,0,0,0,0,0.1c0,0,0,0,0,0.1c0,0,0,0,0,0c0,0-0.3,1.8-2.8,2.2c-0.2,0-0.3,0.2-0.3,0.4
	c0,0.2,0.2,0.3,0.3,0.3h0v1.8c0,1,0.5,1.9,1.3,2.4l0.1,0.1v1.9l-0.6,0.3c-0.1-0.1-0.1-0.2-0.1-0.2c-0.1-0.2-0.3-0.3-0.4-0.2
	c-0.6,0.2-1.2,0.6-1.6,1.2C98.3,40,97.8,39.6,97.3,39.2z M96.3,43.1c0.1-0.5,0.4-0.9,0.8-1.1l1.2-0.5c-0.1,0.8,0,1.7,0.3,2.5
	c0,0.1,0.2,0.2,0.3,0.2c0.1,0,0.3,0,0.3-0.2c0.3-0.4,0.6-0.7,1-1c0.1,0.8,0.4,1.7,0.8,2.4c0.1,0.1,0.2,0.2,0.3,0.2c0,0,0,0,0.1,0
	c0.1,0,0.3-0.1,0.3-0.3c0.2-0.8,0.7-1.4,1.4-1.7v2.7h-7.3L96.3,43.1z M103.8,46.3v-2.7c0.7,0.3,1.2,0.9,1.4,1.7
	c0,0.1,0.1,0.3,0.3,0.3c0,0,0,0,0.1,0c0.1,0,0.2-0.1,0.3-0.2c0.4-0.7,0.7-1.5,0.8-2.4c0.4,0.3,0.8,0.6,1,1c0.1,0.1,0.2,0.2,0.3,0.2
	c0.1,0,0.2-0.1,0.3-0.2c0.3-0.8,0.4-1.6,0.3-2.5l1.2,0.5c0.4,0.2,0.7,0.6,0.8,1.1l0.5,3.2H103.8z" />
	<g>
		<defs>
			<rect id="SVGID_3_" x="48" y="98" width="13" height="13" />
		</defs>
		<clipPath id="SVGID_4_">
			<use xlink:href="#SVGID_3_" style="overflow:visible;" />
		</clipPath>
		<g class="st5">
			<path class="st4" d="M60.6,110.2h-0.4v-0.4c0-0.6-0.5-1.1-1.1-1.1h-0.4c0.1-0.1,0.1-0.1,0.2-0.2c0.1-0.2,0.3-0.4,0.4-0.6h0.1
			c1.1,0,1.8-0.7,1.8-1.4c0-0.3-0.1-0.5-0.3-0.7c-0.2-0.2-0.5-0.2-0.8-0.2c-0.4,0-2.4,0-2.7,0v-1.6h0.4c0.2,0,0.4-0.2,0.4-0.4v-1.1
			h0.4c0.2,0,0.4-0.2,0.4-0.4v-1.1H59c0.6,0,1.1-0.5,1.1-1.1v-1.5c0-0.2-0.2-0.4-0.4-0.4h-9.1c-1,0-1.9,0.8-1.9,1.9
			c0,0.2,0,10,0,10.3h-0.4c-0.2,0-0.4,0.2-0.4,0.4s0.2,0.4,0.4,0.4h12.2c0.2,0,0.4-0.2,0.4-0.4S60.8,110.2,60.6,110.2z M59.4,106.7
			v-0.3h0.5c0.2,0,0.3,0.1,0.3,0.1c0,0,0,0,0,0.1c0,0.2-0.3,0.6-0.9,0.6C59.4,107,59.4,106.9,59.4,106.7z M58.7,106.4v0.3
			c0,1-0.7,1.8-1.6,2c-0.2,0-0.4,0-0.6,0c-0.9-0.1-1.6-1-1.6-2v-0.3H58.7z M55.2,102.6h0.4v1.1c0,0.2,0.2,0.4,0.4,0.4h0.4v1.6h-1.9
			c-0.2,0-0.4,0.2-0.4,0.4v0.7c0,0.6,0.2,1.3,0.6,1.8c0.1,0.1,0.1,0.1,0.2,0.2h-1.6v-7.2c0-0.2,0.2-0.4,0.4-0.4h1.1v1.1
			C54.9,102.4,55,102.6,55.2,102.6z M56.4,103.3v-0.8h0.8v0.8H56.4z M57.9,101.8c-0.2,0-1.9,0-2.3,0v-0.8h2.3V101.8z M49.5,99.9
			c0-0.6,0.5-1.1,1.1-1.1h8.8v1.1c0,0.2-0.2,0.4-0.4,0.4c-0.2,0-5,0-5.3,0c-0.6,0-1.1,0.5-1.1,1.1v7.2h-3.1V99.9z M59.4,110.2h-9.9
			v-0.8c0.2,0,9.1,0,9.5,0c0.2,0,0.4,0.2,0.4,0.4V110.2z" />
			<path class="st4" d="M51,100.3c-0.4,0-0.8,0.3-0.8,0.8s0.3,0.8,0.8,0.8s0.8-0.3,0.8-0.8S51.4,100.3,51,100.3z" />
			<path class="st4" d="M51,102.6c-0.4,0-0.8,0.3-0.8,0.8s0.3,0.8,0.8,0.8s0.8-0.3,0.8-0.8S51.4,102.6,51,102.6z" />
		</g>
	</g>
	<line class="st2" x1="850" y1="6" x2="131" y2="6" />
	<line class="st6" x1="848.5" y1="69" x2="848.5" y2="4" />
	<line class="st6" x1="131.5" y1="69" x2="131.5" y2="4" />
	<g class="coach-seat" data-number='1'>
		<rect x="145" y="33" class="st7" width="26" height="18" />
		<path class="st8" d="M158.7,47h-2.3v-7.4l-2.3,0.7v-1.8l4.4-1.5h0.2V47z" />
	</g>
	<g class="coach-seat" data-number='33'>
		<rect x="145" y="93" class="st7" width="26" height="18" />
		<path class="st8" d="M151.7,101.1h1.1c0.9,0,1.3-0.4,1.3-1.3c0-0.3-0.1-0.6-0.3-0.8c-0.2-0.2-0.5-0.3-0.9-0.3
		c-0.3,0-0.6,0.1-0.8,0.3c-0.2,0.2-0.3,0.4-0.3,0.7h-2.3c0-0.5,0.1-1,0.4-1.4c0.3-0.4,0.7-0.7,1.2-1c0.5-0.2,1.1-0.3,1.7-0.3
		c1.1,0,2,0.3,2.6,0.8c0.6,0.5,0.9,1.2,0.9,2.1c0,0.4-0.1,0.8-0.4,1.2c-0.3,0.4-0.6,0.7-1.1,0.9c0.5,0.2,0.9,0.5,1.2,0.9
		c0.3,0.4,0.5,0.9,0.5,1.4c0,0.9-0.3,1.6-1,2.1c-0.7,0.5-1.6,0.8-2.7,0.8c-0.7,0-1.3-0.1-1.8-0.4c-0.6-0.3-1-0.6-1.3-1
		c-0.3-0.4-0.4-0.9-0.4-1.5h2.3c0,0.3,0.1,0.6,0.4,0.8c0.2,0.2,0.5,0.3,0.9,0.3c0.4,0,0.7-0.1,1-0.3c0.2-0.2,0.4-0.5,0.4-0.9
		c0-0.5-0.1-0.9-0.4-1.1c-0.3-0.2-0.6-0.3-1-0.3h-1.1V101.1z M159.8,101.1h1.1c0.9,0,1.3-0.4,1.3-1.3c0-0.3-0.1-0.6-0.3-0.8
		c-0.2-0.2-0.5-0.3-0.9-0.3c-0.3,0-0.6,0.1-0.8,0.3c-0.2,0.2-0.3,0.4-0.3,0.7h-2.3c0-0.5,0.1-1,0.4-1.4c0.3-0.4,0.7-0.7,1.2-1
		c0.5-0.2,1.1-0.3,1.7-0.3c1.1,0,2,0.3,2.6,0.8c0.6,0.5,0.9,1.2,0.9,2.1c0,0.4-0.1,0.8-0.4,1.2c-0.3,0.4-0.6,0.7-1.1,0.9
		c0.5,0.2,0.9,0.5,1.2,0.9c0.3,0.4,0.5,0.9,0.5,1.4c0,0.9-0.3,1.6-1,2.1c-0.7,0.5-1.6,0.8-2.7,0.8c-0.7,0-1.3-0.1-1.8-0.4
		c-0.6-0.3-1-0.6-1.3-1c-0.3-0.4-0.4-0.9-0.4-1.5h2.3c0,0.3,0.1,0.6,0.4,0.8c0.2,0.2,0.5,0.3,0.9,0.3c0.4,0,0.7-0.1,1-0.3
		c0.2-0.2,0.4-0.5,0.4-0.9c0-0.5-0.1-0.9-0.4-1.1c-0.3-0.2-0.6-0.3-1-0.3h-1.1V101.1z" />
	</g>
	<g class="coach-seat" data-number='5'>
		<rect x="234" y="33" class="st7" width="26" height="18" />
		<path class="st8" d="M242.7,42.1l0.6-5.1h5.8v1.8h-3.9l-0.2,2c0.2-0.1,0.4-0.2,0.6-0.3c0.3-0.1,0.5-0.1,0.8-0.1
		c1,0,1.7,0.3,2.3,0.9c0.5,0.6,0.8,1.4,0.8,2.5c0,0.6-0.1,1.2-0.4,1.7c-0.3,0.5-0.7,0.9-1.2,1.2s-1.1,0.4-1.8,0.4
		c-0.6,0-1.2-0.1-1.8-0.4c-0.5-0.3-1-0.6-1.3-1.1c-0.3-0.5-0.5-1-0.5-1.5h2.3c0,0.4,0.1,0.7,0.3,0.9c0.2,0.2,0.5,0.3,0.8,0.3
		c0.8,0,1.2-0.6,1.2-1.7c0-1.1-0.5-1.6-1.4-1.6c-0.5,0-0.9,0.2-1.2,0.5L242.7,42.1z" />
	</g>
	<g class="coach-seat" data-number='37'>
		<rect x="234" y="93" class="st7" width="26" height="18" />
		<path class="st8" d="M240.7,101.1h1.1c0.9,0,1.3-0.4,1.3-1.3c0-0.3-0.1-0.6-0.3-0.8c-0.2-0.2-0.5-0.3-0.9-0.3
		c-0.3,0-0.6,0.1-0.8,0.3c-0.2,0.2-0.3,0.4-0.3,0.7h-2.3c0-0.5,0.1-1,0.4-1.4c0.3-0.4,0.7-0.7,1.2-1c0.5-0.2,1.1-0.3,1.7-0.3
		c1.1,0,2,0.3,2.6,0.8c0.6,0.5,0.9,1.2,0.9,2.1c0,0.4-0.1,0.8-0.4,1.2c-0.3,0.4-0.6,0.7-1.1,0.9c0.5,0.2,0.9,0.5,1.2,0.9
		c0.3,0.4,0.5,0.9,0.5,1.4c0,0.9-0.3,1.6-1,2.1c-0.7,0.5-1.6,0.8-2.7,0.8c-0.7,0-1.3-0.1-1.8-0.4c-0.6-0.3-1-0.6-1.3-1
		c-0.3-0.4-0.4-0.9-0.4-1.5h2.3c0,0.3,0.1,0.6,0.4,0.8c0.2,0.2,0.5,0.3,0.9,0.3c0.4,0,0.7-0.1,1-0.3c0.2-0.2,0.4-0.5,0.4-0.9
		c0-0.5-0.1-0.9-0.4-1.1c-0.3-0.2-0.6-0.3-1-0.3h-1.1V101.1z M253.6,98.3l-3.7,8.7h-2.4l3.7-8.2h-4.7V97h7.2V98.3z" />
	</g>
	<g class="coach-seat" data-number='3'>
		<rect x="190" y="33" class="st7" width="26" height="18" />
		<path class="st8" d="M200.7,41.1h1.1c0.9,0,1.3-0.4,1.3-1.3c0-0.3-0.1-0.6-0.3-0.8c-0.2-0.2-0.5-0.3-0.9-0.3
		c-0.3,0-0.6,0.1-0.8,0.3c-0.2,0.2-0.3,0.4-0.3,0.7h-2.3c0-0.5,0.1-1,0.4-1.4c0.3-0.4,0.7-0.7,1.2-1c0.5-0.2,1.1-0.3,1.7-0.3
		c1.1,0,2,0.3,2.6,0.8c0.6,0.5,0.9,1.2,0.9,2.1c0,0.4-0.1,0.8-0.4,1.2c-0.3,0.4-0.6,0.7-1.1,0.9c0.5,0.2,0.9,0.5,1.2,0.9
		c0.3,0.4,0.5,0.9,0.5,1.4c0,0.9-0.3,1.6-1,2.1c-0.7,0.5-1.6,0.8-2.7,0.8c-0.7,0-1.3-0.1-1.8-0.4c-0.6-0.3-1-0.6-1.3-1
		c-0.3-0.4-0.4-0.9-0.4-1.5h2.3c0,0.3,0.1,0.6,0.4,0.8c0.2,0.2,0.5,0.3,0.9,0.3c0.4,0,0.7-0.1,1-0.3c0.2-0.2,0.4-0.5,0.4-0.9
		c0-0.5-0.1-0.9-0.4-1.1c-0.3-0.2-0.6-0.3-1-0.3h-1.1V41.1z" />
	</g>
	<g class="coach-seat" data-number='35'>
		<rect x="190" y="93" class="st7" width="26" height="18" />
		<path class="st8" d="M196.7,101.1h1.1c0.9,0,1.3-0.4,1.3-1.3c0-0.3-0.1-0.6-0.3-0.8c-0.2-0.2-0.5-0.3-0.9-0.3
		c-0.3,0-0.6,0.1-0.8,0.3c-0.2,0.2-0.3,0.4-0.3,0.7h-2.3c0-0.5,0.1-1,0.4-1.4c0.3-0.4,0.7-0.7,1.2-1c0.5-0.2,1.1-0.3,1.7-0.3
		c1.1,0,2,0.3,2.6,0.8c0.6,0.5,0.9,1.2,0.9,2.1c0,0.4-0.1,0.8-0.4,1.2c-0.3,0.4-0.6,0.7-1.1,0.9c0.5,0.2,0.9,0.5,1.2,0.9
		c0.3,0.4,0.5,0.9,0.5,1.4c0,0.9-0.3,1.6-1,2.1c-0.7,0.5-1.6,0.8-2.7,0.8c-0.7,0-1.3-0.1-1.8-0.4c-0.6-0.3-1-0.6-1.3-1
		c-0.3-0.4-0.4-0.9-0.4-1.5h2.3c0,0.3,0.1,0.6,0.4,0.8c0.2,0.2,0.5,0.3,0.9,0.3c0.4,0,0.7-0.1,1-0.3c0.2-0.2,0.4-0.5,0.4-0.9
		c0-0.5-0.1-0.9-0.4-1.1c-0.3-0.2-0.6-0.3-1-0.3h-1.1V101.1z M202.9,102.1l0.6-5.1h5.8v1.8h-3.9l-0.2,2c0.2-0.1,0.4-0.2,0.6-0.3
		c0.3-0.1,0.5-0.1,0.8-0.1c1,0,1.7,0.3,2.3,0.9c0.5,0.6,0.8,1.4,0.8,2.5c0,0.6-0.1,1.2-0.4,1.7c-0.3,0.5-0.7,0.9-1.2,1.2
		c-0.5,0.3-1.1,0.4-1.8,0.4c-0.6,0-1.2-0.1-1.8-0.4c-0.5-0.3-1-0.6-1.3-1.1c-0.3-0.5-0.5-1-0.5-1.5h2.3c0,0.4,0.1,0.7,0.3,0.9
		c0.2,0.2,0.5,0.3,0.8,0.3c0.8,0,1.2-0.6,1.2-1.7c0-1.1-0.5-1.6-1.4-1.6c-0.5,0-0.9,0.2-1.2,0.5L202.9,102.1z" />
	</g>
	<g class="coach-seat" data-number='7'>
		<rect x="277" y="33" class="st7" width="26" height="18" />
		<path class="st8" d="M292.5,38.3l-3.7,8.7h-2.4l3.7-8.2h-4.7V37h7.2V38.3z" />
	</g>
	<g class="coach-seat" data-number='39'>
		<rect x="277" y="93" class="st7" width="26" height="18" />
		<path class="st8" d="M283.7,101.1h1.1c0.9,0,1.3-0.4,1.3-1.3c0-0.3-0.1-0.6-0.3-0.8c-0.2-0.2-0.5-0.3-0.9-0.3
		c-0.3,0-0.6,0.1-0.8,0.3c-0.2,0.2-0.3,0.4-0.3,0.7h-2.3c0-0.5,0.1-1,0.4-1.4c0.3-0.4,0.7-0.7,1.2-1c0.5-0.2,1.1-0.3,1.7-0.3
		c1.1,0,2,0.3,2.6,0.8c0.6,0.5,0.9,1.2,0.9,2.1c0,0.4-0.1,0.8-0.4,1.2c-0.3,0.4-0.6,0.7-1.1,0.9c0.5,0.2,0.9,0.5,1.2,0.9
		c0.3,0.4,0.5,0.9,0.5,1.4c0,0.9-0.3,1.6-1,2.1c-0.7,0.5-1.6,0.8-2.7,0.8c-0.7,0-1.3-0.1-1.8-0.4c-0.6-0.3-1-0.6-1.3-1
		c-0.3-0.4-0.4-0.9-0.4-1.5h2.3c0,0.3,0.1,0.6,0.4,0.8c0.2,0.2,0.5,0.3,0.9,0.3c0.4,0,0.7-0.1,1-0.3c0.2-0.2,0.4-0.5,0.4-0.9
		c0-0.5-0.1-0.9-0.4-1.1c-0.3-0.2-0.6-0.3-1-0.3h-1.1V101.1z M294.3,103.2c-0.5,0.4-1.1,0.7-1.7,0.7c-0.9,0-1.6-0.3-2.1-0.9
		c-0.5-0.6-0.8-1.4-0.8-2.4c0-0.6,0.1-1.2,0.4-1.8c0.3-0.5,0.7-1,1.2-1.3c0.5-0.3,1.1-0.5,1.8-0.5c0.7,0,1.2,0.2,1.8,0.5
		c0.5,0.3,0.9,0.8,1.2,1.4c0.3,0.6,0.4,1.3,0.5,2.1v0.9c0,1.1-0.2,2-0.6,2.9c-0.4,0.8-1,1.4-1.8,1.9c-0.8,0.4-1.7,0.7-2.8,0.7h-0.1
		v-1.8l0.4,0C293.2,105.2,294.1,104.5,294.3,103.2z M293.2,102.2c0.5,0,0.9-0.2,1.1-0.6v-1c0-0.6-0.1-1.1-0.3-1.4
		c-0.2-0.3-0.5-0.5-0.9-0.5c-0.3,0-0.6,0.2-0.8,0.5c-0.2,0.3-0.3,0.8-0.3,1.3c0,0.5,0.1,0.9,0.3,1.2
		C292.5,102,292.8,102.2,293.2,102.2z" />
	</g>
	<g class="coach-seat" data-number='9'>
		<rect x="321" y="33" class="st7" width="26" height="18" />
		<path class="st8" d="M334.1,43.2c-0.5,0.4-1.1,0.7-1.7,0.7c-0.9,0-1.6-0.3-2.1-0.9c-0.5-0.6-0.8-1.4-0.8-2.4c0-0.6,0.1-1.2,0.4-1.8
		c0.3-0.5,0.7-1,1.2-1.3c0.5-0.3,1.1-0.5,1.8-0.5c0.7,0,1.2,0.2,1.8,0.5c0.5,0.3,0.9,0.8,1.2,1.4c0.3,0.6,0.4,1.3,0.5,2.1v0.9
		c0,1.1-0.2,2.1-0.6,2.9c-0.4,0.8-1,1.4-1.8,1.9c-0.8,0.4-1.7,0.6-2.8,0.6h-0.1v-1.8l0.4,0C333.1,45.2,334,44.5,334.1,43.2z
		 M333.1,42.2c0.5,0,0.9-0.2,1.1-0.6v-1c0-0.6-0.1-1.1-0.3-1.4c-0.2-0.3-0.5-0.5-0.9-0.5c-0.3,0-0.6,0.2-0.8,0.5
		c-0.2,0.3-0.3,0.8-0.3,1.3c0,0.5,0.1,0.9,0.3,1.2C332.4,42,332.7,42.2,333.1,42.2z" />
	</g>
	<g class="coach-seat" data-number='41'>
		<rect x="321" y="93" class="st7" width="26" height="18" />
		<path class="st8" d="M331.7,103.1h1v1.8h-1v2.1h-2.3v-2.1h-3.8l-0.1-1.4l4-6.4v0h2.3V103.1z M327.6,103.1h1.8V100l-0.1,0.2
		L327.6,103.1z M338.8,107h-2.3v-7.4l-2.3,0.7v-1.8l4.4-1.5h0.2V107z" />
	</g>
	<g class="coach-seat" data-number='11'>
		<rect x="365" y="33" class="st7" width="26" height="18" />
		<path class="st8" d="M374.7,47h-2.3v-7.4l-2.3,0.7v-1.8l4.4-1.5h0.2V47z M382.8,47h-2.3v-7.4l-2.3,0.7v-1.8l4.4-1.5h0.2V47z" />
	</g>
	<g class="coach-seat" data-number='43'>
		<rect x="365" y="93" class="st7" width="26" height="18" />
		<path class="st8" d="M375.7,103.1h1v1.8h-1v2.1h-2.3v-2.1h-3.8l-0.1-1.4l4-6.4v0h2.3V103.1z M371.6,103.1h1.8V100l-0.1,0.2
		L371.6,103.1z M379.8,101.1h1.1c0.9,0,1.3-0.4,1.3-1.3c0-0.3-0.1-0.6-0.3-0.8c-0.2-0.2-0.5-0.3-0.9-0.3c-0.3,0-0.6,0.1-0.8,0.3
		c-0.2,0.2-0.3,0.4-0.3,0.7h-2.3c0-0.5,0.1-1,0.4-1.4c0.3-0.4,0.7-0.7,1.2-1c0.5-0.2,1.1-0.3,1.7-0.3c1.1,0,2,0.3,2.6,0.8
		c0.6,0.5,1,1.2,1,2.1c0,0.4-0.1,0.8-0.4,1.2c-0.3,0.4-0.6,0.7-1.1,0.9c0.5,0.2,0.9,0.5,1.2,0.9c0.3,0.4,0.5,0.9,0.5,1.4
		c0,0.9-0.3,1.6-1,2.1c-0.7,0.5-1.6,0.8-2.7,0.8c-0.7,0-1.3-0.1-1.8-0.4c-0.6-0.3-1-0.6-1.3-1c-0.3-0.4-0.4-0.9-0.4-1.5h2.3
		c0,0.3,0.1,0.6,0.4,0.8c0.2,0.2,0.5,0.3,0.9,0.3c0.4,0,0.7-0.1,1-0.3c0.2-0.2,0.4-0.5,0.4-0.9c0-0.5-0.1-0.9-0.4-1.1
		c-0.3-0.2-0.6-0.3-1-0.3h-1.1V101.1z" />
	</g>
	<g class="coach-seat" data-number='13'>
		<rect x="409" y="33" class="st7" width="26" height="18" />
		<path class="st8" d="M418.7,47h-2.3v-7.4l-2.3,0.7v-1.8l4.4-1.5h0.2V47z M423.8,41.1h1.1c0.9,0,1.3-0.4,1.3-1.3
		c0-0.3-0.1-0.6-0.3-0.8c-0.2-0.2-0.5-0.3-0.9-0.3c-0.3,0-0.6,0.1-0.8,0.3c-0.2,0.2-0.3,0.4-0.3,0.7h-2.3c0-0.5,0.1-1,0.4-1.4
		c0.3-0.4,0.7-0.7,1.2-1c0.5-0.2,1.1-0.3,1.7-0.3c1.1,0,2,0.3,2.6,0.8c0.6,0.5,1,1.2,1,2.1c0,0.4-0.1,0.8-0.4,1.2
		c-0.3,0.4-0.6,0.7-1.1,0.9c0.5,0.2,0.9,0.5,1.2,0.9c0.3,0.4,0.5,0.9,0.5,1.4c0,0.9-0.3,1.6-1,2.1c-0.7,0.5-1.6,0.8-2.7,0.8
		c-0.7,0-1.3-0.1-1.8-0.4c-0.6-0.3-1-0.6-1.3-1c-0.3-0.4-0.4-0.9-0.4-1.5h2.3c0,0.3,0.1,0.6,0.4,0.8c0.2,0.2,0.5,0.3,0.9,0.3
		c0.4,0,0.7-0.1,1-0.3c0.2-0.2,0.4-0.5,0.4-0.9c0-0.5-0.1-0.9-0.4-1.1c-0.3-0.2-0.6-0.3-1-0.3h-1.1V41.1z" />
	</g>
	<g class="coach-seat" data-number='45'>
		<rect x="409" y="93" class="st7" width="26" height="18" />
		<path class="st8" d="M419.7,103.1h1v1.8h-1v2.1h-2.3v-2.1h-3.8l-0.1-1.4l4-6.4v0h2.3V103.1z M415.6,103.1h1.8V100l-0.1,0.2
		L415.6,103.1z M421.9,102.1l0.6-5.1h5.8v1.8h-3.9l-0.2,2c0.2-0.1,0.4-0.2,0.6-0.3c0.3-0.1,0.5-0.1,0.8-0.1c1,0,1.7,0.3,2.3,0.9
		c0.5,0.6,0.8,1.4,0.8,2.5c0,0.6-0.1,1.2-0.4,1.7c-0.3,0.5-0.7,0.9-1.2,1.2c-0.5,0.3-1.1,0.4-1.8,0.4c-0.6,0-1.2-0.1-1.8-0.4
		c-0.5-0.3-1-0.6-1.3-1.1c-0.3-0.5-0.5-1-0.5-1.5h2.3c0,0.4,0.1,0.7,0.3,0.9c0.2,0.2,0.5,0.3,0.8,0.3c0.8,0,1.2-0.6,1.2-1.7
		c0-1.1-0.5-1.6-1.4-1.6c-0.5,0-0.9,0.2-1.2,0.5L421.9,102.1z" />
	</g>
	<g class="coach-seat" data-number='17'>
		<rect x="497" y="33" class="st7" width="26" height="18" />
		<path class="st8" d="M506.7,47h-2.3v-7.4l-2.3,0.7v-1.8l4.4-1.5h0.2V47z M516.6,38.3l-3.7,8.7h-2.4l3.7-8.2h-4.7V37h7.2V38.3z" />
	</g>
	<g class="coach-seat" data-number='49'>
		<rect x="497" y="93" class="st7" width="26" height="18" />
		<path class="st8" d="M507.7,103.1h1v1.8h-1v2.1h-2.3v-2.1h-3.8l-0.1-1.4l4-6.4v0h2.3V103.1z M503.6,103.1h1.8V100l-0.1,0.2
		L503.6,103.1z M514.3,103.2c-0.5,0.4-1.1,0.7-1.7,0.7c-0.9,0-1.6-0.3-2.1-0.9c-0.5-0.6-0.8-1.4-0.8-2.4c0-0.6,0.1-1.2,0.4-1.8
		c0.3-0.5,0.7-1,1.2-1.3c0.5-0.3,1.1-0.5,1.8-0.5c0.7,0,1.2,0.2,1.8,0.5c0.5,0.3,0.9,0.8,1.2,1.4c0.3,0.6,0.4,1.3,0.5,2.1v0.9
		c0,1.1-0.2,2-0.7,2.9c-0.4,0.8-1,1.4-1.8,1.9c-0.8,0.4-1.7,0.7-2.8,0.7h-0.1v-1.8l0.4,0C513.2,105.2,514.1,104.5,514.3,103.2z
		 M513.2,102.2c0.5,0,0.9-0.2,1.1-0.6v-1c0-0.6-0.1-1.1-0.3-1.4c-0.2-0.3-0.5-0.5-0.9-0.5c-0.3,0-0.6,0.2-0.8,0.5
		c-0.2,0.3-0.3,0.8-0.3,1.3c0,0.5,0.1,0.9,0.3,1.2C512.5,102,512.8,102.2,513.2,102.2z" />
	</g>
	<g class="coach-seat" data-number='21'>
		<rect x="585" y="33" class="st7" width="26" height="18" />
		<path class="st8" d="M596.6,47h-6.9v-1.5l3.2-3.4c0.8-0.9,1.2-1.6,1.2-2.1c0-0.4-0.1-0.8-0.3-1c-0.2-0.2-0.5-0.3-0.8-0.3
		c-0.3,0-0.6,0.2-0.9,0.5c-0.2,0.3-0.3,0.7-0.3,1.1h-2.3c0-0.6,0.2-1.2,0.5-1.7c0.3-0.5,0.7-0.9,1.3-1.2c0.5-0.3,1.1-0.4,1.8-0.4
		c1.1,0,1.9,0.2,2.5,0.7c0.6,0.5,0.9,1.2,0.9,2.1c0,0.4-0.1,0.8-0.2,1.1c-0.1,0.4-0.4,0.8-0.7,1.2c-0.3,0.4-0.8,1-1.5,1.6l-1.3,1.5
		h3.9V47z M602.8,47h-2.3v-7.4l-2.3,0.7v-1.8l4.4-1.5h0.2V47z" />
	</g>
	<g class="coach-seat" data-number='53'>
		<rect x="585" y="93" class="st7" width="26" height="18" />
		<path class="st8" d="M589.7,102.1l0.6-5.1h5.8v1.8h-3.9l-0.2,2c0.2-0.1,0.4-0.2,0.6-0.3c0.3-0.1,0.5-0.1,0.8-0.1
		c1,0,1.7,0.3,2.3,0.9c0.5,0.6,0.8,1.4,0.8,2.5c0,0.6-0.1,1.2-0.4,1.7c-0.3,0.5-0.7,0.9-1.2,1.2c-0.5,0.3-1.1,0.4-1.8,0.4
		c-0.6,0-1.2-0.1-1.8-0.4c-0.5-0.3-1-0.6-1.3-1.1c-0.3-0.5-0.5-1-0.5-1.5h2.3c0,0.4,0.1,0.7,0.3,0.9c0.2,0.2,0.5,0.3,0.8,0.3
		c0.8,0,1.2-0.6,1.2-1.7c0-1.1-0.5-1.6-1.4-1.6c-0.5,0-0.9,0.2-1.2,0.5L589.7,102.1z M599.8,101.1h1.1c0.9,0,1.3-0.4,1.3-1.3
		c0-0.3-0.1-0.6-0.3-0.8c-0.2-0.2-0.5-0.3-0.9-0.3c-0.3,0-0.6,0.1-0.8,0.3c-0.2,0.2-0.3,0.4-0.3,0.7h-2.3c0-0.5,0.1-1,0.4-1.4
		c0.3-0.4,0.7-0.7,1.2-1c0.5-0.2,1.1-0.3,1.7-0.3c1.1,0,2,0.3,2.6,0.8c0.6,0.5,1,1.2,1,2.1c0,0.4-0.1,0.8-0.4,1.2
		c-0.3,0.4-0.6,0.7-1.1,0.9c0.5,0.2,0.9,0.5,1.2,0.9c0.3,0.4,0.5,0.9,0.5,1.4c0,0.9-0.3,1.6-1,2.1c-0.7,0.5-1.6,0.8-2.7,0.8
		c-0.7,0-1.3-0.1-1.8-0.4c-0.6-0.3-1-0.6-1.3-1c-0.3-0.4-0.4-0.9-0.4-1.5h2.3c0,0.3,0.1,0.6,0.4,0.8c0.2,0.2,0.5,0.3,0.9,0.3
		c0.4,0,0.7-0.1,1-0.3c0.2-0.2,0.4-0.5,0.4-0.9c0-0.5-0.1-0.9-0.4-1.1c-0.3-0.2-0.6-0.3-1-0.3h-1.1V101.1z" />
	</g>
	<g class="coach-seat" data-number='25'>
		<rect x="673" y="33" class="st7" width="26" height="18" />
		<path class="st8" d="M684.6,47h-6.9v-1.5l3.2-3.4c0.8-0.9,1.2-1.6,1.2-2.1c0-0.4-0.1-0.8-0.3-1c-0.2-0.2-0.5-0.3-0.8-0.3
		c-0.3,0-0.6,0.2-0.9,0.5c-0.2,0.3-0.3,0.7-0.3,1.1h-2.3c0-0.6,0.2-1.2,0.5-1.7c0.3-0.5,0.7-0.9,1.3-1.2c0.5-0.3,1.1-0.4,1.8-0.4
		c1.1,0,1.9,0.2,2.5,0.7c0.6,0.5,0.9,1.2,0.9,2.1c0,0.4-0.1,0.8-0.2,1.1c-0.1,0.4-0.4,0.8-0.7,1.2c-0.3,0.4-0.8,1-1.5,1.6l-1.3,1.5
		h3.9V47z M685.9,42.1l0.6-5.1h5.8v1.8h-3.9l-0.2,2c0.2-0.1,0.4-0.2,0.6-0.3c0.3-0.1,0.5-0.1,0.8-0.1c1,0,1.7,0.3,2.3,0.9
		c0.5,0.6,0.8,1.4,0.8,2.5c0,0.6-0.1,1.2-0.4,1.7c-0.3,0.5-0.7,0.9-1.2,1.2c-0.5,0.3-1.1,0.4-1.8,0.4c-0.6,0-1.2-0.1-1.8-0.4
		c-0.5-0.3-1-0.6-1.3-1.1c-0.3-0.5-0.5-1-0.5-1.5h2.3c0,0.4,0.1,0.7,0.3,0.9c0.2,0.2,0.5,0.3,0.8,0.3c0.8,0,1.2-0.6,1.2-1.7
		c0-1.1-0.5-1.6-1.4-1.6c-0.5,0-0.9,0.2-1.2,0.5L685.9,42.1z" />
	</g>
	<g class="coach-seat" data-number='57'>
		<rect x="673" y="93" class="st7" width="26" height="18" />
		<path class="st8" d="M677.7,102.1l0.6-5.1h5.8v1.8h-3.9l-0.2,2c0.2-0.1,0.4-0.2,0.6-0.3c0.3-0.1,0.5-0.1,0.8-0.1
		c1,0,1.7,0.3,2.3,0.9c0.5,0.6,0.8,1.4,0.8,2.5c0,0.6-0.1,1.2-0.4,1.7c-0.3,0.5-0.7,0.9-1.2,1.2c-0.5,0.3-1.1,0.4-1.8,0.4
		c-0.6,0-1.2-0.1-1.8-0.4c-0.5-0.3-1-0.6-1.3-1.1c-0.3-0.5-0.5-1-0.5-1.5h2.3c0,0.4,0.1,0.7,0.3,0.9c0.2,0.2,0.5,0.3,0.8,0.3
		c0.8,0,1.2-0.6,1.2-1.7c0-1.1-0.5-1.6-1.4-1.6c-0.5,0-0.9,0.2-1.2,0.5L677.7,102.1z M692.6,98.3l-3.7,8.7h-2.4l3.7-8.2h-4.7V97h7.2
		V98.3z" />
	</g>
	<g class="coach-seat" data-number='29'>
		<rect x="762" y="33" class="st7" width="26" height="18" />
		<path class="st8" d="M773.6,47h-6.9v-1.5l3.2-3.4c0.8-0.9,1.2-1.6,1.2-2.1c0-0.4-0.1-0.8-0.3-1c-0.2-0.2-0.5-0.3-0.8-0.3
		c-0.3,0-0.6,0.2-0.9,0.5c-0.2,0.3-0.3,0.7-0.3,1.1h-2.3c0-0.6,0.2-1.2,0.5-1.7c0.3-0.5,0.7-0.9,1.3-1.2c0.5-0.3,1.1-0.4,1.8-0.4
		c1.1,0,1.9,0.2,2.5,0.7c0.6,0.5,0.9,1.2,0.9,2.1c0,0.4-0.1,0.8-0.2,1.1c-0.1,0.4-0.4,0.8-0.7,1.2c-0.3,0.4-0.8,1-1.5,1.6l-1.3,1.5
		h3.9V47z M779.3,43.2c-0.5,0.4-1.1,0.7-1.7,0.7c-0.9,0-1.6-0.3-2.1-0.9c-0.5-0.6-0.8-1.4-0.8-2.4c0-0.6,0.1-1.2,0.4-1.8
		c0.3-0.5,0.7-1,1.2-1.3c0.5-0.3,1.1-0.5,1.8-0.5c0.7,0,1.2,0.2,1.8,0.5c0.5,0.3,0.9,0.8,1.2,1.4c0.3,0.6,0.4,1.3,0.5,2.1v0.9
		c0,1.1-0.2,2.1-0.7,2.9c-0.4,0.8-1,1.4-1.8,1.9c-0.8,0.4-1.7,0.6-2.8,0.6h-0.1v-1.8l0.4,0C778.2,45.2,779.1,44.5,779.3,43.2z
		 M778.2,42.2c0.5,0,0.9-0.2,1.1-0.6v-1c0-0.6-0.1-1.1-0.3-1.4c-0.2-0.3-0.5-0.5-0.9-0.5c-0.3,0-0.6,0.2-0.8,0.5
		c-0.2,0.3-0.3,0.8-0.3,1.3c0,0.5,0.1,0.9,0.3,1.2C777.5,42,777.8,42.2,778.2,42.2z" />
	</g>
	<g class="coach-seat" data-number='61'>
		<rect x="762" y="93" class="st7" width="26" height="18" />
		<path class="st8" d="M772.2,96.9v1.8h-0.1c-0.9,0-1.6,0.2-2.1,0.6c-0.6,0.4-0.9,1-1,1.7c0.5-0.5,1.2-0.8,2-0.8
		c0.9,0,1.5,0.3,2.1,0.9c0.5,0.6,0.8,1.5,0.8,2.5c0,0.6-0.2,1.2-0.5,1.7c-0.3,0.5-0.7,0.9-1.3,1.2c-0.5,0.3-1.1,0.4-1.8,0.4
		c-0.7,0-1.3-0.2-1.9-0.5c-0.6-0.3-1-0.8-1.3-1.4s-0.5-1.3-0.5-2.1v-0.9c0-1,0.2-1.9,0.7-2.8c0.4-0.8,1.1-1.5,1.9-1.9
		c0.8-0.5,1.7-0.7,2.7-0.7H772.2z M770.1,102.1c-0.3,0-0.6,0.1-0.8,0.2c-0.2,0.1-0.4,0.3-0.5,0.5v0.7c0,1.3,0.4,1.9,1.3,1.9
		c0.4,0,0.6-0.2,0.9-0.5c0.2-0.3,0.4-0.7,0.4-1.2c0-0.5-0.1-0.9-0.4-1.2C770.8,102.2,770.5,102.1,770.1,102.1z M779.8,107h-2.3v-7.4
		l-2.3,0.7v-1.8l4.4-1.5h0.2V107z" />
	</g>
	<g class="coach-seat" data-number='15'>
		<rect x="453" y="33" class="st7" width="26" height="18" />
		<path class="st8" d="M462.7,47h-2.3v-7.4l-2.3,0.7v-1.8l4.4-1.5h0.2V47z M465.9,42.1l0.6-5.1h5.8v1.8h-3.9l-0.2,2
		c0.2-0.1,0.4-0.2,0.6-0.3c0.3-0.1,0.5-0.1,0.8-0.1c1,0,1.7,0.3,2.3,0.9c0.5,0.6,0.8,1.4,0.8,2.5c0,0.6-0.1,1.2-0.4,1.7
		c-0.3,0.5-0.7,0.9-1.2,1.2c-0.5,0.3-1.1,0.4-1.8,0.4c-0.6,0-1.2-0.1-1.8-0.4c-0.5-0.3-1-0.6-1.3-1.1c-0.3-0.5-0.5-1-0.5-1.5h2.3
		c0,0.4,0.1,0.7,0.3,0.9c0.2,0.2,0.5,0.3,0.8,0.3c0.8,0,1.2-0.6,1.2-1.7c0-1.1-0.5-1.6-1.4-1.6c-0.5,0-0.9,0.2-1.2,0.5L465.9,42.1z" />
	</g>
	<g class="coach-seat" data-number='47'>
		<rect x="453" y="93" class="st7" width="26" height="18" />
		<path class="st8" d="M463.7,103.1h1v1.8h-1v2.1h-2.3v-2.1h-3.8l-0.1-1.4l4-6.4v0h2.3V103.1z M459.6,103.1h1.8V100l-0.1,0.2
		L459.6,103.1z M472.6,98.3l-3.7,8.7h-2.4l3.7-8.2h-4.7V97h7.2V98.3z" />
	</g>
	<g class="coach-seat" data-number='19'>
		<rect x="541" y="33" class="st7" width="26" height="18" />
		<path class="st8" d="M550.7,47h-2.3v-7.4l-2.3,0.7v-1.8l4.4-1.5h0.2V47z M558.3,43.2c-0.5,0.4-1.1,0.7-1.7,0.7
		c-0.9,0-1.6-0.3-2.1-0.9c-0.5-0.6-0.8-1.4-0.8-2.4c0-0.6,0.1-1.2,0.4-1.8c0.3-0.5,0.7-1,1.2-1.3c0.5-0.3,1.1-0.5,1.8-0.5
		c0.7,0,1.2,0.2,1.8,0.5c0.5,0.3,0.9,0.8,1.2,1.4c0.3,0.6,0.4,1.3,0.5,2.1v0.9c0,1.1-0.2,2.1-0.7,2.9c-0.4,0.8-1,1.4-1.8,1.9
		c-0.8,0.4-1.7,0.6-2.8,0.6h-0.1v-1.8l0.4,0C557.2,45.2,558.1,44.5,558.3,43.2z M557.2,42.2c0.5,0,0.9-0.2,1.1-0.6v-1
		c0-0.6-0.1-1.1-0.3-1.4c-0.2-0.3-0.5-0.5-0.9-0.5c-0.3,0-0.6,0.2-0.8,0.5c-0.2,0.3-0.3,0.8-0.3,1.3c0,0.5,0.1,0.9,0.3,1.2
		C556.5,42,556.8,42.2,557.2,42.2z" />
	</g>
	<g class="coach-seat" data-number='51'>
		<rect x="541" y="93" class="st7" width="26" height="18" />
		<path class="st8" d="M545.7,102.1l0.6-5.1h5.8v1.8h-3.9l-0.2,2c0.2-0.1,0.4-0.2,0.6-0.3c0.3-0.1,0.5-0.1,0.8-0.1
		c1,0,1.7,0.3,2.3,0.9c0.5,0.6,0.8,1.4,0.8,2.5c0,0.6-0.1,1.2-0.4,1.7c-0.3,0.5-0.7,0.9-1.2,1.2c-0.5,0.3-1.1,0.4-1.8,0.4
		c-0.6,0-1.2-0.1-1.8-0.4c-0.5-0.3-1-0.6-1.3-1.1c-0.3-0.5-0.5-1-0.5-1.5h2.3c0,0.4,0.1,0.7,0.3,0.9c0.2,0.2,0.5,0.3,0.8,0.3
		c0.8,0,1.2-0.6,1.2-1.7c0-1.1-0.5-1.6-1.4-1.6c-0.5,0-0.9,0.2-1.2,0.5L545.7,102.1z M558.8,107h-2.3v-7.4l-2.3,0.7v-1.8l4.4-1.5
		h0.2V107z" />
	</g>
	<g class="coach-seat" data-number='23'> 
		<rect x="629" y="33" class="st7" width="26" height="18" />
		<path class="st8" d="M640.6,47h-6.9v-1.5l3.2-3.4c0.8-0.9,1.2-1.6,1.2-2.1c0-0.4-0.1-0.8-0.3-1c-0.2-0.2-0.5-0.3-0.8-0.3
		c-0.3,0-0.6,0.2-0.9,0.5c-0.2,0.3-0.3,0.7-0.3,1.1h-2.3c0-0.6,0.2-1.2,0.5-1.7c0.3-0.5,0.7-0.9,1.3-1.2c0.5-0.3,1.1-0.4,1.8-0.4
		c1.1,0,1.9,0.2,2.5,0.7c0.6,0.5,0.9,1.2,0.9,2.1c0,0.4-0.1,0.8-0.2,1.1c-0.1,0.4-0.4,0.8-0.7,1.2c-0.3,0.4-0.8,1-1.5,1.6l-1.3,1.5
		h3.9V47z M643.8,41.1h1.1c0.9,0,1.3-0.4,1.3-1.3c0-0.3-0.1-0.6-0.3-0.8c-0.2-0.2-0.5-0.3-0.9-0.3c-0.3,0-0.6,0.1-0.8,0.3
		c-0.2,0.2-0.3,0.4-0.3,0.7h-2.3c0-0.5,0.1-1,0.4-1.4c0.3-0.4,0.7-0.7,1.2-1c0.5-0.2,1.1-0.3,1.7-0.3c1.1,0,2,0.3,2.6,0.8
		c0.6,0.5,1,1.2,1,2.1c0,0.4-0.1,0.8-0.4,1.2c-0.3,0.4-0.6,0.7-1.1,0.9c0.5,0.2,0.9,0.5,1.2,0.9c0.3,0.4,0.5,0.9,0.5,1.4
		c0,0.9-0.3,1.6-1,2.1c-0.7,0.5-1.6,0.8-2.7,0.8c-0.7,0-1.3-0.1-1.8-0.4c-0.6-0.3-1-0.6-1.3-1c-0.3-0.4-0.4-0.9-0.4-1.5h2.3
		c0,0.3,0.1,0.6,0.4,0.8c0.2,0.2,0.5,0.3,0.9,0.3c0.4,0,0.7-0.1,1-0.3c0.2-0.2,0.4-0.5,0.4-0.9c0-0.5-0.1-0.9-0.4-1.1
		c-0.3-0.2-0.6-0.3-1-0.3h-1.1V41.1z" />
	</g>
	<g class="coach-seat" data-number='55'>
		<rect x="629" y="93" class="st7" width="26" height="18" />
		<path class="st8" d="M633.7,102.1l0.6-5.1h5.8v1.8h-3.9l-0.2,2c0.2-0.1,0.4-0.2,0.6-0.3c0.3-0.1,0.5-0.1,0.8-0.1
		c1,0,1.7,0.3,2.3,0.9c0.5,0.6,0.8,1.4,0.8,2.5c0,0.6-0.1,1.2-0.4,1.7c-0.3,0.5-0.7,0.9-1.2,1.2c-0.5,0.3-1.1,0.4-1.8,0.4
		c-0.6,0-1.2-0.1-1.8-0.4c-0.5-0.3-1-0.6-1.3-1.1c-0.3-0.5-0.5-1-0.5-1.5h2.3c0,0.4,0.1,0.7,0.3,0.9c0.2,0.2,0.5,0.3,0.8,0.3
		c0.8,0,1.2-0.6,1.2-1.7c0-1.1-0.5-1.6-1.4-1.6c-0.5,0-0.9,0.2-1.2,0.5L633.7,102.1z M641.9,102.1l0.6-5.1h5.8v1.8h-3.9l-0.2,2
		c0.2-0.1,0.4-0.2,0.6-0.3c0.3-0.1,0.5-0.1,0.8-0.1c1,0,1.7,0.3,2.3,0.9c0.5,0.6,0.8,1.4,0.8,2.5c0,0.6-0.1,1.2-0.4,1.7
		c-0.3,0.5-0.7,0.9-1.2,1.2c-0.5,0.3-1.1,0.4-1.8,0.4c-0.6,0-1.2-0.1-1.8-0.4c-0.5-0.3-1-0.6-1.3-1.1c-0.3-0.5-0.5-1-0.5-1.5h2.3
		c0,0.4,0.1,0.7,0.3,0.9c0.2,0.2,0.5,0.3,0.8,0.3c0.8,0,1.2-0.6,1.2-1.7c0-1.1-0.5-1.6-1.4-1.6c-0.5,0-0.9,0.2-1.2,0.5L641.9,102.1z
		" />
	</g>
	<g class="coach-seat" data-number='27'>
		<rect x="717" y="33" class="st7" width="26" height="18" />
		<path class="st8" d="M728.6,47h-6.9v-1.5l3.2-3.4c0.8-0.9,1.2-1.6,1.2-2.1c0-0.4-0.1-0.8-0.3-1c-0.2-0.2-0.5-0.3-0.8-0.3
		c-0.3,0-0.6,0.2-0.9,0.5c-0.2,0.3-0.3,0.7-0.3,1.1h-2.3c0-0.6,0.2-1.2,0.5-1.7c0.3-0.5,0.7-0.9,1.3-1.2c0.5-0.3,1.1-0.4,1.8-0.4
		c1.1,0,1.9,0.2,2.5,0.7c0.6,0.5,0.9,1.2,0.9,2.1c0,0.4-0.1,0.8-0.2,1.1c-0.1,0.4-0.4,0.8-0.7,1.2c-0.3,0.4-0.8,1-1.5,1.6l-1.3,1.5
		h3.9V47z M736.6,38.3l-3.7,8.7h-2.4l3.7-8.2h-4.7V37h7.2V38.3z" />
	</g>
	<g class="coach-seat" data-number='59'>
		<rect x="717" y="93" class="st7" width="26" height="18" />
		<path class="st8" d="M721.7,102.1l0.6-5.1h5.8v1.8h-3.9l-0.2,2c0.2-0.1,0.4-0.2,0.6-0.3c0.3-0.1,0.5-0.1,0.8-0.1
		c1,0,1.7,0.3,2.3,0.9c0.5,0.6,0.8,1.4,0.8,2.5c0,0.6-0.1,1.2-0.4,1.7c-0.3,0.5-0.7,0.9-1.2,1.2c-0.5,0.3-1.1,0.4-1.8,0.4
		c-0.6,0-1.2-0.1-1.8-0.4c-0.5-0.3-1-0.6-1.3-1.1c-0.3-0.5-0.5-1-0.5-1.5h2.3c0,0.4,0.1,0.7,0.3,0.9c0.2,0.2,0.5,0.3,0.8,0.3
		c0.8,0,1.2-0.6,1.2-1.7c0-1.1-0.5-1.6-1.4-1.6c-0.5,0-0.9,0.2-1.2,0.5L721.7,102.1z M734.3,103.2c-0.5,0.4-1.1,0.7-1.7,0.7
		c-0.9,0-1.6-0.3-2.1-0.9c-0.5-0.6-0.8-1.4-0.8-2.4c0-0.6,0.1-1.2,0.4-1.8c0.3-0.5,0.7-1,1.2-1.3c0.5-0.3,1.1-0.5,1.8-0.5
		c0.7,0,1.2,0.2,1.8,0.5c0.5,0.3,0.9,0.8,1.2,1.4c0.3,0.6,0.4,1.3,0.5,2.1v0.9c0,1.1-0.2,2-0.7,2.9c-0.4,0.8-1,1.4-1.8,1.9
		c-0.8,0.4-1.7,0.7-2.8,0.7h-0.1v-1.8l0.4,0C733.2,105.2,734.1,104.5,734.3,103.2z M733.2,102.2c0.5,0,0.9-0.2,1.1-0.6v-1
		c0-0.6-0.1-1.1-0.3-1.4c-0.2-0.3-0.5-0.5-0.9-0.5c-0.3,0-0.6,0.2-0.8,0.5c-0.2,0.3-0.3,0.8-0.3,1.3c0,0.5,0.1,0.9,0.3,1.2
		C732.5,102,732.8,102.2,733.2,102.2z" />
	</g>
	<g class="coach-seat" data-number='31'>
		<rect x="806" y="33" class="st7" width="26" height="18" />
		<path class="st8" d="M812.7,41.1h1.1c0.9,0,1.3-0.4,1.3-1.3c0-0.3-0.1-0.6-0.3-0.8c-0.2-0.2-0.5-0.3-0.9-0.3
		c-0.3,0-0.6,0.1-0.8,0.3c-0.2,0.2-0.3,0.4-0.3,0.7h-2.3c0-0.5,0.1-1,0.4-1.4c0.3-0.4,0.7-0.7,1.2-1c0.5-0.2,1.1-0.3,1.7-0.3
		c1.1,0,2,0.3,2.6,0.8c0.6,0.5,1,1.2,1,2.1c0,0.4-0.1,0.8-0.4,1.2c-0.3,0.4-0.6,0.7-1.1,0.9c0.5,0.2,0.9,0.5,1.2,0.9
		c0.3,0.4,0.5,0.9,0.5,1.4c0,0.9-0.3,1.6-1,2.1c-0.7,0.5-1.6,0.8-2.7,0.8c-0.7,0-1.3-0.1-1.8-0.4c-0.6-0.3-1-0.6-1.3-1
		c-0.3-0.4-0.4-0.9-0.4-1.5h2.3c0,0.3,0.1,0.6,0.4,0.8c0.2,0.2,0.5,0.3,0.9,0.3c0.4,0,0.7-0.1,1-0.3c0.2-0.2,0.4-0.5,0.4-0.9
		c0-0.5-0.1-0.9-0.4-1.1c-0.3-0.2-0.6-0.3-1-0.3h-1.1V41.1z M823.8,47h-2.3v-7.4l-2.3,0.7v-1.8l4.4-1.5h0.2V47z" />
	</g>
	<g class="coach-seat" data-number='62'>
		<rect x="806" y="93" class="st7" width="26" height="18" />
		<path class="st8" d="M816.2,96.9v1.8h-0.1c-0.9,0-1.6,0.2-2.1,0.6c-0.6,0.4-0.9,1-1,1.7c0.5-0.5,1.2-0.8,2-0.8
		c0.9,0,1.5,0.3,2.1,0.9c0.5,0.6,0.8,1.5,0.8,2.5c0,0.6-0.2,1.2-0.5,1.7c-0.3,0.5-0.7,0.9-1.3,1.2c-0.5,0.3-1.1,0.4-1.8,0.4
		c-0.7,0-1.3-0.2-1.9-0.5c-0.6-0.3-1-0.8-1.3-1.4s-0.5-1.3-0.5-2.1v-0.9c0-1,0.2-1.9,0.7-2.8c0.4-0.8,1.1-1.5,1.9-1.9
		c0.8-0.5,1.7-0.7,2.7-0.7H816.2z M814.1,102.1c-0.3,0-0.6,0.1-0.8,0.2c-0.2,0.1-0.4,0.3-0.5,0.5v0.7c0,1.3,0.4,1.9,1.3,1.9
		c0.4,0,0.6-0.2,0.9-0.5c0.2-0.3,0.4-0.7,0.4-1.2c0-0.5-0.1-0.9-0.4-1.2C814.8,102.2,814.5,102.1,814.1,102.1z M825.7,107h-6.9v-1.5
		l3.2-3.4c0.8-0.9,1.2-1.6,1.2-2.1c0-0.4-0.1-0.8-0.3-1c-0.2-0.2-0.5-0.3-0.8-0.3c-0.4,0-0.6,0.2-0.9,0.5c-0.2,0.3-0.3,0.7-0.3,1.1
		h-2.3c0-0.6,0.2-1.2,0.5-1.7c0.3-0.5,0.7-0.9,1.3-1.2c0.5-0.3,1.1-0.4,1.8-0.4c1.1,0,1.9,0.2,2.5,0.7c0.6,0.5,0.9,1.2,0.9,2.1
		c0,0.4-0.1,0.8-0.2,1.1c-0.1,0.4-0.4,0.8-0.7,1.2c-0.3,0.4-0.8,1-1.5,1.6l-1.3,1.5h3.9V107z" />
	</g>
	<g class="coach-seat" data-number='2'>
		<rect x="145" y="12" class="st7" width="26" height="18" />
		<path class="st8" d="M160.6,26h-6.9v-1.5l3.2-3.4c0.8-0.9,1.2-1.6,1.2-2.1c0-0.4-0.1-0.8-0.3-1c-0.2-0.2-0.5-0.3-0.8-0.3
		c-0.3,0-0.6,0.2-0.9,0.5c-0.2,0.3-0.3,0.7-0.3,1.1h-2.3c0-0.6,0.2-1.2,0.5-1.7c0.3-0.5,0.7-0.9,1.3-1.2c0.5-0.3,1.1-0.4,1.8-0.4
		c1.1,0,1.9,0.2,2.5,0.7c0.6,0.5,0.9,1.2,0.9,2.1c0,0.4-0.1,0.8-0.2,1.1c-0.1,0.4-0.4,0.8-0.7,1.2c-0.3,0.4-0.8,1-1.5,1.6l-1.3,1.5
		h3.9V26z" />
	</g>
	<g class="coach-seat" data-number='6'>
		<rect x="234" y="12" class="st7" width="26" height="18" />
		<path class="st8" d="M248.2,15.9v1.8h-0.1c-0.9,0-1.6,0.2-2.1,0.6c-0.6,0.4-0.9,1-1,1.7c0.5-0.5,1.2-0.8,2-0.8
		c0.9,0,1.5,0.3,2.1,0.9c0.5,0.6,0.8,1.5,0.8,2.5c0,0.6-0.2,1.2-0.5,1.7c-0.3,0.5-0.7,0.9-1.3,1.2c-0.5,0.3-1.1,0.4-1.8,0.4
		c-0.7,0-1.3-0.2-1.9-0.5c-0.6-0.3-1-0.8-1.3-1.4c-0.3-0.6-0.5-1.3-0.5-2.1v-0.9c0-1,0.2-1.9,0.7-2.8c0.4-0.8,1.1-1.5,1.9-1.9
		c0.8-0.5,1.7-0.7,2.7-0.7H248.2z M246.1,21.1c-0.3,0-0.6,0.1-0.8,0.2c-0.2,0.1-0.4,0.3-0.5,0.5v0.7c0,1.3,0.4,1.9,1.3,1.9
		c0.4,0,0.6-0.2,0.9-0.5c0.2-0.3,0.4-0.7,0.4-1.2c0-0.5-0.1-0.9-0.4-1.2C246.8,21.2,246.5,21.1,246.1,21.1z" />
	</g>
	<g class="coach-seat" data-number='36'>
		<rect x="234" y="72" class="st7" width="26" height="18" />
		<path class="st8" d="M240.7,80.1h1.1c0.9,0,1.3-0.4,1.3-1.3c0-0.3-0.1-0.6-0.3-0.8c-0.2-0.2-0.5-0.3-0.9-0.3
		c-0.3,0-0.6,0.1-0.8,0.3c-0.2,0.2-0.3,0.4-0.3,0.7h-2.3c0-0.5,0.1-1,0.4-1.4c0.3-0.4,0.7-0.7,1.2-1c0.5-0.2,1.1-0.3,1.7-0.3
		c1.1,0,2,0.3,2.6,0.8c0.6,0.5,0.9,1.2,0.9,2.1c0,0.4-0.1,0.8-0.4,1.2c-0.3,0.4-0.6,0.7-1.1,0.9c0.5,0.2,0.9,0.5,1.2,0.9
		c0.3,0.4,0.5,0.9,0.5,1.4c0,0.9-0.3,1.6-1,2.1c-0.7,0.5-1.6,0.8-2.7,0.8c-0.7,0-1.3-0.1-1.8-0.4c-0.6-0.3-1-0.6-1.3-1
		c-0.3-0.4-0.4-0.9-0.4-1.5h2.3c0,0.3,0.1,0.6,0.4,0.8c0.2,0.2,0.5,0.3,0.9,0.3c0.4,0,0.7-0.1,1-0.3c0.2-0.2,0.4-0.5,0.4-0.9
		c0-0.5-0.1-0.9-0.4-1.1c-0.3-0.2-0.6-0.3-1-0.3h-1.1V80.1z M252.3,75.9v1.8h-0.1c-0.9,0-1.6,0.2-2.1,0.6c-0.6,0.4-0.9,1-1,1.7
		c0.5-0.5,1.2-0.8,2-0.8c0.9,0,1.5,0.3,2.1,0.9c0.5,0.6,0.8,1.5,0.8,2.5c0,0.6-0.1,1.2-0.5,1.7c-0.3,0.5-0.7,0.9-1.3,1.2
		c-0.5,0.3-1.1,0.4-1.8,0.4c-0.7,0-1.3-0.2-1.9-0.5c-0.6-0.3-1-0.8-1.3-1.4s-0.5-1.3-0.5-2.1v-0.9c0-1,0.2-1.9,0.7-2.8
		c0.4-0.8,1.1-1.5,1.9-1.9c0.8-0.5,1.7-0.7,2.7-0.7H252.3z M250.2,81.1c-0.3,0-0.6,0.1-0.8,0.2c-0.2,0.1-0.4,0.3-0.5,0.5v0.7
		c0,1.3,0.4,1.9,1.3,1.9c0.4,0,0.6-0.2,0.9-0.5c0.2-0.3,0.4-0.7,0.4-1.2c0-0.5-0.1-0.9-0.4-1.2C250.9,81.2,250.6,81.1,250.2,81.1z" />
	</g>
	<g class="coach-seat" data-number='4'>
		<rect x="190" y="12" class="st7" width="26" height="18" />
		<path class="st8" d="M204.7,22.1h1v1.8h-1V26h-2.3v-2.1h-3.8l-0.1-1.4l4-6.4v0h2.3V22.1z M200.6,22.1h1.8V19l-0.1,0.2L200.6,22.1z" />
	</g>
	<g class="coach-seat" data-number='34'>
		<rect x="190" y="72" class="st7" width="26" height="18" />
		<path class="st8" d="M196.7,80.1h1.1c0.9,0,1.3-0.4,1.3-1.3c0-0.3-0.1-0.6-0.3-0.8c-0.2-0.2-0.5-0.3-0.9-0.3
		c-0.3,0-0.6,0.1-0.8,0.3c-0.2,0.2-0.3,0.4-0.3,0.7h-2.3c0-0.5,0.1-1,0.4-1.4c0.3-0.4,0.7-0.7,1.2-1c0.5-0.2,1.1-0.3,1.7-0.3
		c1.1,0,2,0.3,2.6,0.8c0.6,0.5,0.9,1.2,0.9,2.1c0,0.4-0.1,0.8-0.4,1.2c-0.3,0.4-0.6,0.7-1.1,0.9c0.5,0.2,0.9,0.5,1.2,0.9
		c0.3,0.4,0.5,0.9,0.5,1.4c0,0.9-0.3,1.6-1,2.1c-0.7,0.5-1.6,0.8-2.7,0.8c-0.7,0-1.3-0.1-1.8-0.4c-0.6-0.3-1-0.6-1.3-1
		c-0.3-0.4-0.4-0.9-0.4-1.5h2.3c0,0.3,0.1,0.6,0.4,0.8c0.2,0.2,0.5,0.3,0.9,0.3c0.4,0,0.7-0.1,1-0.3c0.2-0.2,0.4-0.5,0.4-0.9
		c0-0.5-0.1-0.9-0.4-1.1c-0.3-0.2-0.6-0.3-1-0.3h-1.1V80.1z M208.8,82.1h1v1.8h-1V86h-2.3v-2.1h-3.8l-0.1-1.4l4-6.4v0h2.3V82.1z
		 M204.7,82.1h1.8V79l-0.1,0.2L204.7,82.1z" />
	</g>
	<g class="coach-seat" data-number='8'>
		<rect x="277" y="12" class="st7" width="26" height="18" />
		<path class="st8" d="M292.3,18.7c0,0.5-0.1,0.9-0.4,1.3c-0.2,0.4-0.6,0.7-1,0.9c0.5,0.2,0.9,0.6,1.1,1c0.3,0.4,0.4,0.9,0.4,1.4
		c0,0.9-0.3,1.6-0.9,2.1c-0.6,0.5-1.5,0.8-2.5,0.8c-1.1,0-1.9-0.3-2.6-0.8c-0.6-0.5-0.9-1.2-0.9-2.1c0-0.5,0.1-1,0.4-1.4
		c0.3-0.4,0.7-0.7,1.2-1c-0.4-0.2-0.8-0.5-1-0.9c-0.2-0.4-0.4-0.8-0.4-1.3c0-0.9,0.3-1.5,0.9-2.1s1.4-0.8,2.4-0.8
		c1,0,1.8,0.3,2.4,0.8C292,17.2,292.3,17.8,292.3,18.7z M290.2,23.1c0-0.4-0.1-0.7-0.3-0.9c-0.2-0.2-0.5-0.3-0.8-0.3
		c-0.3,0-0.6,0.1-0.8,0.3c-0.2,0.2-0.3,0.5-0.3,0.9c0,0.4,0.1,0.7,0.3,0.9c0.2,0.2,0.5,0.3,0.9,0.3c0.3,0,0.6-0.1,0.8-0.3
		C290.1,23.8,290.2,23.5,290.2,23.1z M289,17.7c-0.3,0-0.5,0.1-0.7,0.3c-0.2,0.2-0.2,0.5-0.2,0.8c0,0.4,0.1,0.6,0.2,0.9
		c0.2,0.2,0.4,0.3,0.7,0.3c0.3,0,0.6-0.1,0.7-0.3c0.2-0.2,0.2-0.5,0.2-0.9c0-0.4-0.1-0.6-0.2-0.8C289.6,17.8,289.4,17.7,289,17.7z" />
	</g>
	<g class="coach-seat" data-number='38'>
		<rect x="277" y="72" class="st7" width="26" height="18" />
		<path class="st8" d="M283.7,80.1h1.1c0.9,0,1.3-0.4,1.3-1.3c0-0.3-0.1-0.6-0.3-0.8c-0.2-0.2-0.5-0.3-0.9-0.3
		c-0.3,0-0.6,0.1-0.8,0.3c-0.2,0.2-0.3,0.4-0.3,0.7h-2.3c0-0.5,0.1-1,0.4-1.4c0.3-0.4,0.7-0.7,1.2-1c0.5-0.2,1.1-0.3,1.7-0.3
		c1.1,0,2,0.3,2.6,0.8c0.6,0.5,0.9,1.2,0.9,2.1c0,0.4-0.1,0.8-0.4,1.2c-0.3,0.4-0.6,0.7-1.1,0.9c0.5,0.2,0.9,0.5,1.2,0.9
		c0.3,0.4,0.5,0.9,0.5,1.4c0,0.9-0.3,1.6-1,2.1c-0.7,0.5-1.6,0.8-2.7,0.8c-0.7,0-1.3-0.1-1.8-0.4c-0.6-0.3-1-0.6-1.3-1
		c-0.3-0.4-0.4-0.9-0.4-1.5h2.3c0,0.3,0.1,0.6,0.4,0.8c0.2,0.2,0.5,0.3,0.9,0.3c0.4,0,0.7-0.1,1-0.3c0.2-0.2,0.4-0.5,0.4-0.9
		c0-0.5-0.1-0.9-0.4-1.1c-0.3-0.2-0.6-0.3-1-0.3h-1.1V80.1z M296.4,78.7c0,0.5-0.1,0.9-0.4,1.3c-0.2,0.4-0.6,0.7-1,0.9
		c0.5,0.2,0.9,0.6,1.1,1c0.3,0.4,0.4,0.9,0.4,1.4c0,0.9-0.3,1.6-0.9,2.1c-0.6,0.5-1.5,0.8-2.5,0.8c-1.1,0-1.9-0.3-2.6-0.8
		c-0.6-0.5-0.9-1.2-0.9-2.1c0-0.5,0.1-1,0.4-1.4c0.3-0.4,0.7-0.7,1.2-1c-0.4-0.2-0.8-0.5-1-0.9c-0.2-0.4-0.4-0.8-0.4-1.3
		c0-0.9,0.3-1.5,0.9-2.1c0.6-0.5,1.4-0.8,2.4-0.8c1,0,1.8,0.3,2.4,0.8C296.1,77.2,296.4,77.8,296.4,78.7z M294.3,83.1
		c0-0.4-0.1-0.7-0.3-0.9c-0.2-0.2-0.5-0.3-0.8-0.3c-0.3,0-0.6,0.1-0.8,0.3c-0.2,0.2-0.3,0.5-0.3,0.9c0,0.4,0.1,0.7,0.3,0.9
		c0.2,0.2,0.5,0.3,0.9,0.3c0.3,0,0.6-0.1,0.8-0.3C294.2,83.8,294.3,83.5,294.3,83.1z M293.2,77.7c-0.3,0-0.5,0.1-0.7,0.3
		c-0.2,0.2-0.2,0.5-0.2,0.8c0,0.4,0.1,0.6,0.2,0.9c0.2,0.2,0.4,0.3,0.7,0.3c0.3,0,0.5-0.1,0.7-0.3c0.2-0.2,0.2-0.5,0.2-0.9
		s-0.1-0.6-0.2-0.8C293.7,77.8,293.5,77.7,293.2,77.7z" />
	</g>
	<g class="coach-seat" data-number='10'>
		<rect x="321" y="12" class="st7" width="26" height="18" />
		<path class="st8" d="M330.7,26h-2.3v-7.4l-2.3,0.7v-1.8l4.4-1.5h0.2V26z M340.6,21.9c0,1.3-0.3,2.4-0.9,3.1
		c-0.6,0.7-1.5,1.1-2.5,1.1c-1.1,0-2-0.4-2.6-1.1c-0.6-0.7-0.9-1.8-0.9-3.1v-1.8c0-1.3,0.3-2.4,0.9-3.1c0.6-0.7,1.5-1.1,2.6-1.1
		s2,0.4,2.6,1.1c0.6,0.7,0.9,1.8,0.9,3.1V21.9z M338.3,19.8c0-0.7-0.1-1.2-0.3-1.6c-0.2-0.4-0.5-0.5-0.9-0.5c-0.4,0-0.7,0.2-0.9,0.5
		c-0.2,0.3-0.3,0.8-0.3,1.5v2.5c0,0.7,0.1,1.3,0.3,1.6c0.2,0.3,0.5,0.5,0.9,0.5c0.4,0,0.7-0.2,0.9-0.5c0.2-0.3,0.3-0.9,0.3-1.6V19.8
		z" />
	</g>
	<g class="coach-seat" data-number='40'>
		<rect x="321" y="72" class="st7" width="26" height="18" />
		<path class="st8" d="M331.7,82.1h1v1.8h-1V86h-2.3v-2.1h-3.8l-0.1-1.4l4-6.4v0h2.3V82.1z M327.6,82.1h1.8V79l-0.1,0.2L327.6,82.1z
		 M340.6,81.9c0,1.3-0.3,2.4-0.9,3.1c-0.6,0.7-1.5,1.1-2.5,1.1c-1.1,0-2-0.4-2.6-1.1c-0.6-0.7-0.9-1.8-0.9-3.1v-1.8
		c0-1.3,0.3-2.4,0.9-3.1c0.6-0.7,1.5-1.1,2.6-1.1s2,0.4,2.6,1.1c0.6,0.7,0.9,1.8,0.9,3.1V81.9z M338.3,79.8c0-0.7-0.1-1.2-0.3-1.6
		c-0.2-0.4-0.5-0.5-0.9-0.5c-0.4,0-0.7,0.2-0.9,0.5c-0.2,0.3-0.3,0.8-0.3,1.5v2.5c0,0.7,0.1,1.3,0.3,1.6c0.2,0.3,0.5,0.5,0.9,0.5
		c0.4,0,0.7-0.2,0.9-0.5c0.2-0.3,0.3-0.9,0.3-1.6V79.8z" />
	</g>
	<g class="coach-seat" data-number='12'>
		<rect x="365" y="12" class="st7" width="26" height="18" />
		<path class="st8" d="M374.7,26h-2.3v-7.4l-2.3,0.7v-1.8l4.4-1.5h0.2V26z M384.7,26h-6.9v-1.5l3.2-3.4c0.8-0.9,1.2-1.6,1.2-2.1
		c0-0.4-0.1-0.8-0.3-1c-0.2-0.2-0.5-0.3-0.8-0.3c-0.4,0-0.6,0.2-0.9,0.5c-0.2,0.3-0.3,0.7-0.3,1.1h-2.3c0-0.6,0.2-1.2,0.5-1.7
		c0.3-0.5,0.7-0.9,1.3-1.2c0.5-0.3,1.1-0.4,1.8-0.4c1.1,0,1.9,0.2,2.5,0.7c0.6,0.5,0.9,1.2,0.9,2.1c0,0.4-0.1,0.8-0.2,1.1
		c-0.1,0.4-0.4,0.8-0.7,1.2c-0.3,0.4-0.8,1-1.5,1.6l-1.3,1.5h3.9V26z" />
	</g>
	<g class="coach-seat" data-number='42'>
		<rect x="365" y="72" class="st7" width="26" height="18" />
		<path class="st8" d="M375.7,82.1h1v1.8h-1V86h-2.3v-2.1h-3.8l-0.1-1.4l4-6.4v0h2.3V82.1z M371.6,82.1h1.8V79l-0.1,0.2L371.6,82.1z
		 M384.7,86h-6.9v-1.5l3.2-3.4c0.8-0.9,1.2-1.6,1.2-2.1c0-0.4-0.1-0.8-0.3-1c-0.2-0.2-0.5-0.3-0.8-0.3c-0.4,0-0.6,0.2-0.9,0.5
		c-0.2,0.3-0.3,0.7-0.3,1.1h-2.3c0-0.6,0.2-1.2,0.5-1.7c0.3-0.5,0.7-0.9,1.3-1.2c0.5-0.3,1.1-0.4,1.8-0.4c1.1,0,1.9,0.2,2.5,0.7
		c0.6,0.5,0.9,1.2,0.9,2.1c0,0.4-0.1,0.8-0.2,1.1c-0.1,0.4-0.4,0.8-0.7,1.2c-0.3,0.4-0.8,1-1.5,1.6l-1.3,1.5h3.9V86z" />
	</g>
	<g class="coach-seat" data-number='14'>
		<rect x="409" y="12" class="st7" width="26" height="18" />
		<path class="st8" d="M418.7,26h-2.3v-7.4l-2.3,0.7v-1.8l4.4-1.5h0.2V26z M427.8,22.1h1v1.8h-1V26h-2.3v-2.1h-3.8l-0.1-1.4l4-6.4v0
		h2.3V22.1z M423.7,22.1h1.8V19l-0.1,0.2L423.7,22.1z" />
	</g>
	<g class="coach-seat" data-number='44'>
		<rect x="409" y="72" class="st7" width="26" height="18" />
		<path class="st8" d="M419.7,82.1h1v1.8h-1V86h-2.3v-2.1h-3.8l-0.1-1.4l4-6.4v0h2.3V82.1z M415.6,82.1h1.8V79l-0.1,0.2L415.6,82.1z
		 M427.8,82.1h1v1.8h-1V86h-2.3v-2.1h-3.8l-0.1-1.4l4-6.4v0h2.3V82.1z M423.7,82.1h1.8V79l-0.1,0.2L423.7,82.1z" />
	</g>
	<g class="coach-seat" data-number='18'>
		<rect x="497" y="12" class="st7" width="26" height="18" />
		<path class="st8" d="M506.7,26h-2.3v-7.4l-2.3,0.7v-1.8l4.4-1.5h0.2V26z M516.4,18.7c0,0.5-0.1,0.9-0.4,1.3c-0.2,0.4-0.6,0.7-1,0.9
		c0.5,0.2,0.9,0.6,1.1,1c0.3,0.4,0.4,0.9,0.4,1.4c0,0.9-0.3,1.6-0.9,2.1c-0.6,0.5-1.5,0.8-2.5,0.8c-1.1,0-1.9-0.3-2.6-0.8
		c-0.6-0.5-0.9-1.2-0.9-2.1c0-0.5,0.1-1,0.4-1.4c0.3-0.4,0.7-0.7,1.2-1c-0.4-0.2-0.8-0.5-1-0.9c-0.2-0.4-0.4-0.8-0.4-1.3
		c0-0.9,0.3-1.5,0.9-2.1c0.6-0.5,1.4-0.8,2.4-0.8c1,0,1.8,0.3,2.4,0.8S516.4,17.8,516.4,18.7z M514.3,23.1c0-0.4-0.1-0.7-0.3-0.9
		c-0.2-0.2-0.5-0.3-0.8-0.3s-0.6,0.1-0.8,0.3c-0.2,0.2-0.3,0.5-0.3,0.9c0,0.4,0.1,0.7,0.3,0.9c0.2,0.2,0.5,0.3,0.9,0.3
		c0.3,0,0.6-0.1,0.8-0.3C514.2,23.8,514.3,23.5,514.3,23.1z M513.2,17.7c-0.3,0-0.5,0.1-0.7,0.3c-0.2,0.2-0.2,0.5-0.2,0.8
		c0,0.4,0.1,0.6,0.2,0.9c0.2,0.2,0.4,0.3,0.7,0.3c0.3,0,0.5-0.1,0.7-0.3c0.2-0.2,0.2-0.5,0.2-0.9c0-0.4-0.1-0.6-0.2-0.8
		C513.7,17.8,513.5,17.7,513.2,17.7z" />
	</g>
	<g class="coach-seat" data-number='48'>
		<rect x="497" y="72" class="st7" width="26" height="18" />
		<path class="st8" d="M507.7,82.1h1v1.8h-1V86h-2.3v-2.1h-3.8l-0.1-1.4l4-6.4v0h2.3V82.1z M503.6,82.1h1.8V79l-0.1,0.2L503.6,82.1z
		 M516.4,78.7c0,0.5-0.1,0.9-0.4,1.3c-0.2,0.4-0.6,0.7-1,0.9c0.5,0.2,0.9,0.6,1.1,1c0.3,0.4,0.4,0.9,0.4,1.4c0,0.9-0.3,1.6-0.9,2.1
		c-0.6,0.5-1.5,0.8-2.5,0.8c-1.1,0-1.9-0.3-2.6-0.8c-0.6-0.5-0.9-1.2-0.9-2.1c0-0.5,0.1-1,0.4-1.4c0.3-0.4,0.7-0.7,1.2-1
		c-0.4-0.2-0.8-0.5-1-0.9c-0.2-0.4-0.4-0.8-0.4-1.3c0-0.9,0.3-1.5,0.9-2.1c0.6-0.5,1.4-0.8,2.4-0.8c1,0,1.8,0.3,2.4,0.8
		C516.1,77.2,516.4,77.8,516.4,78.7z M514.3,83.1c0-0.4-0.1-0.7-0.3-0.9c-0.2-0.2-0.5-0.3-0.8-0.3s-0.6,0.1-0.8,0.3
		c-0.2,0.2-0.3,0.5-0.3,0.9c0,0.4,0.1,0.7,0.3,0.9c0.2,0.2,0.5,0.3,0.9,0.3c0.3,0,0.6-0.1,0.8-0.3C514.2,83.8,514.3,83.5,514.3,83.1
		z M513.2,77.7c-0.3,0-0.5,0.1-0.7,0.3c-0.2,0.2-0.2,0.5-0.2,0.8c0,0.4,0.1,0.6,0.2,0.9c0.2,0.2,0.4,0.3,0.7,0.3
		c0.3,0,0.5-0.1,0.7-0.3c0.2-0.2,0.2-0.5,0.2-0.9s-0.1-0.6-0.2-0.8C513.7,77.8,513.5,77.7,513.2,77.7z" />
	</g>
	<g class="coach-seat" data-number='22'>
		<rect x="585" y="12" class="st7" width="26" height="18" />
		<path class="st8" d="M596.6,26h-6.9v-1.5l3.2-3.4c0.8-0.9,1.2-1.6,1.2-2.1c0-0.4-0.1-0.8-0.3-1c-0.2-0.2-0.5-0.3-0.8-0.3
		c-0.3,0-0.6,0.2-0.9,0.5c-0.2,0.3-0.3,0.7-0.3,1.1h-2.3c0-0.6,0.2-1.2,0.5-1.7c0.3-0.5,0.7-0.9,1.3-1.2c0.5-0.3,1.1-0.4,1.8-0.4
		c1.1,0,1.9,0.2,2.5,0.7c0.6,0.5,0.9,1.2,0.9,2.1c0,0.4-0.1,0.8-0.2,1.1c-0.1,0.4-0.4,0.8-0.7,1.2c-0.3,0.4-0.8,1-1.5,1.6l-1.3,1.5
		h3.9V26z M604.7,26h-6.9v-1.5l3.2-3.4c0.8-0.9,1.2-1.6,1.2-2.1c0-0.4-0.1-0.8-0.3-1c-0.2-0.2-0.5-0.3-0.8-0.3
		c-0.4,0-0.6,0.2-0.9,0.5c-0.2,0.3-0.3,0.7-0.3,1.1h-2.3c0-0.6,0.2-1.2,0.5-1.7c0.3-0.5,0.7-0.9,1.3-1.2c0.5-0.3,1.1-0.4,1.8-0.4
		c1.1,0,1.9,0.2,2.5,0.7c0.6,0.5,0.9,1.2,0.9,2.1c0,0.4-0.1,0.8-0.2,1.1c-0.1,0.4-0.4,0.8-0.7,1.2c-0.3,0.4-0.8,1-1.5,1.6l-1.3,1.5
		h3.9V26z" />
	</g>
	<g class="coach-seat" data-number='52'>
		<rect x="585" y="72" class="st7" width="26" height="18" />
		<path class="st8" d="M589.7,81.1l0.6-5.1h5.8v1.8h-3.9l-0.2,2c0.2-0.1,0.4-0.2,0.6-0.3c0.3-0.1,0.5-0.1,0.8-0.1
		c1,0,1.7,0.3,2.3,0.9c0.5,0.6,0.8,1.4,0.8,2.5c0,0.6-0.1,1.2-0.4,1.7c-0.3,0.5-0.7,0.9-1.2,1.2c-0.5,0.3-1.1,0.4-1.8,0.4
		c-0.6,0-1.2-0.1-1.8-0.4c-0.5-0.3-1-0.6-1.3-1.1c-0.3-0.5-0.5-1-0.5-1.5h2.3c0,0.4,0.1,0.7,0.3,0.9c0.2,0.2,0.5,0.3,0.8,0.3
		c0.8,0,1.2-0.6,1.2-1.7c0-1.1-0.5-1.6-1.4-1.6c-0.5,0-0.9,0.2-1.2,0.5L589.7,81.1z M604.7,86h-6.9v-1.5l3.2-3.4
		c0.8-0.9,1.2-1.6,1.2-2.1c0-0.4-0.1-0.8-0.3-1c-0.2-0.2-0.5-0.3-0.8-0.3c-0.4,0-0.6,0.2-0.9,0.5c-0.2,0.3-0.3,0.7-0.3,1.1h-2.3
		c0-0.6,0.2-1.2,0.5-1.7c0.3-0.5,0.7-0.9,1.3-1.2c0.5-0.3,1.1-0.4,1.8-0.4c1.1,0,1.9,0.2,2.5,0.7c0.6,0.5,0.9,1.2,0.9,2.1
		c0,0.4-0.1,0.8-0.2,1.1c-0.1,0.4-0.4,0.8-0.7,1.2c-0.3,0.4-0.8,1-1.5,1.6l-1.3,1.5h3.9V86z" />
	</g>
	<g class="coach-seat" data-number='26'>
		<rect x="673" y="12" class="st7" width="26" height="18" />
		<path class="st8" d="M684.6,26h-6.9v-1.5l3.2-3.4c0.8-0.9,1.2-1.6,1.2-2.1c0-0.4-0.1-0.8-0.3-1c-0.2-0.2-0.5-0.3-0.8-0.3
		c-0.3,0-0.6,0.2-0.9,0.5c-0.2,0.3-0.3,0.7-0.3,1.1h-2.3c0-0.6,0.2-1.2,0.5-1.7c0.3-0.5,0.7-0.9,1.3-1.2c0.5-0.3,1.1-0.4,1.8-0.4
		c1.1,0,1.9,0.2,2.5,0.7c0.6,0.5,0.9,1.2,0.9,2.1c0,0.4-0.1,0.8-0.2,1.1c-0.1,0.4-0.4,0.8-0.7,1.2c-0.3,0.4-0.8,1-1.5,1.6l-1.3,1.5
		h3.9V26z M691.3,15.9v1.8h-0.1c-0.9,0-1.6,0.2-2.1,0.6c-0.6,0.4-0.9,1-1,1.7c0.5-0.5,1.2-0.8,2-0.8c0.9,0,1.5,0.3,2.1,0.9
		c0.5,0.6,0.8,1.5,0.8,2.5c0,0.6-0.2,1.2-0.5,1.7c-0.3,0.5-0.7,0.9-1.3,1.2c-0.5,0.3-1.1,0.4-1.8,0.4c-0.7,0-1.3-0.2-1.9-0.5
		c-0.6-0.3-1-0.8-1.3-1.4s-0.5-1.3-0.5-2.1v-0.9c0-1,0.2-1.9,0.7-2.8c0.4-0.8,1.1-1.5,1.9-1.9c0.8-0.5,1.7-0.7,2.7-0.7H691.3z
		 M689.2,21.1c-0.3,0-0.6,0.1-0.8,0.2c-0.2,0.1-0.4,0.3-0.5,0.5v0.7c0,1.3,0.4,1.9,1.3,1.9c0.4,0,0.6-0.2,0.9-0.5
		c0.2-0.3,0.4-0.7,0.4-1.2c0-0.5-0.1-0.9-0.4-1.2C689.9,21.2,689.6,21.1,689.2,21.1z" />
	</g>
	<g class="coach-seat" data-number='56'> 
		<rect x="673" y="72" class="st7" width="26" height="18" />
		<path class="st8" d="M677.7,81.1l0.6-5.1h5.8v1.8h-3.9l-0.2,2c0.2-0.1,0.4-0.2,0.6-0.3c0.3-0.1,0.5-0.1,0.8-0.1
		c1,0,1.7,0.3,2.3,0.9c0.5,0.6,0.8,1.4,0.8,2.5c0,0.6-0.1,1.2-0.4,1.7c-0.3,0.5-0.7,0.9-1.2,1.2c-0.5,0.3-1.1,0.4-1.8,0.4
		c-0.6,0-1.2-0.1-1.8-0.4c-0.5-0.3-1-0.6-1.3-1.1c-0.3-0.5-0.5-1-0.5-1.5h2.3c0,0.4,0.1,0.7,0.3,0.9c0.2,0.2,0.5,0.3,0.8,0.3
		c0.8,0,1.2-0.6,1.2-1.7c0-1.1-0.5-1.6-1.4-1.6c-0.5,0-0.9,0.2-1.2,0.5L677.7,81.1z M691.3,75.9v1.8h-0.1c-0.9,0-1.6,0.2-2.1,0.6
		c-0.6,0.4-0.9,1-1,1.7c0.5-0.5,1.2-0.8,2-0.8c0.9,0,1.5,0.3,2.1,0.9c0.5,0.6,0.8,1.5,0.8,2.5c0,0.6-0.2,1.2-0.5,1.7
		c-0.3,0.5-0.7,0.9-1.3,1.2c-0.5,0.3-1.1,0.4-1.8,0.4c-0.7,0-1.3-0.2-1.9-0.5c-0.6-0.3-1-0.8-1.3-1.4s-0.5-1.3-0.5-2.1v-0.9
		c0-1,0.2-1.9,0.7-2.8c0.4-0.8,1.1-1.5,1.9-1.9c0.8-0.5,1.7-0.7,2.7-0.7H691.3z M689.2,81.1c-0.3,0-0.6,0.1-0.8,0.2
		c-0.2,0.1-0.4,0.3-0.5,0.5v0.7c0,1.3,0.4,1.9,1.3,1.9c0.4,0,0.6-0.2,0.9-0.5c0.2-0.3,0.4-0.7,0.4-1.2c0-0.5-0.1-0.9-0.4-1.2
		C689.9,81.2,689.6,81.1,689.2,81.1z" />
	</g>
	<g class="coach-seat" data-number='30'>
		<rect x="762" y="12" class="st7" width="26" height="18" />
		<path class="st8" d="M768.7,20.1h1.1c0.9,0,1.3-0.4,1.3-1.3c0-0.3-0.1-0.6-0.3-0.8c-0.2-0.2-0.5-0.3-0.9-0.3
		c-0.3,0-0.6,0.1-0.8,0.3c-0.2,0.2-0.3,0.4-0.3,0.7h-2.3c0-0.5,0.1-1,0.4-1.4c0.3-0.4,0.7-0.7,1.2-1c0.5-0.2,1.1-0.3,1.7-0.3
		c1.1,0,2,0.3,2.6,0.8c0.6,0.5,1,1.2,1,2.1c0,0.4-0.1,0.8-0.4,1.2c-0.3,0.4-0.6,0.7-1.1,0.9c0.5,0.2,0.9,0.5,1.2,0.9
		c0.3,0.4,0.5,0.9,0.5,1.4c0,0.9-0.3,1.6-1,2.1c-0.7,0.5-1.6,0.8-2.7,0.8c-0.7,0-1.3-0.1-1.8-0.4c-0.6-0.3-1-0.6-1.3-1
		c-0.3-0.4-0.4-0.9-0.4-1.5h2.3c0,0.3,0.1,0.6,0.4,0.8c0.2,0.2,0.5,0.3,0.9,0.3c0.4,0,0.7-0.1,1-0.3c0.2-0.2,0.4-0.5,0.4-0.9
		c0-0.5-0.1-0.9-0.4-1.1c-0.3-0.2-0.6-0.3-1-0.3h-1.1V20.1z M781.6,21.9c0,1.3-0.3,2.4-0.9,3.1c-0.6,0.7-1.5,1.1-2.5,1.1
		c-1.1,0-2-0.4-2.6-1.1c-0.6-0.7-0.9-1.8-0.9-3.1v-1.8c0-1.3,0.3-2.4,0.9-3.1c0.6-0.7,1.5-1.1,2.6-1.1c1.1,0,2,0.4,2.6,1.1
		c0.6,0.7,0.9,1.8,0.9,3.1V21.9z M779.3,19.8c0-0.7-0.1-1.2-0.3-1.6c-0.2-0.4-0.5-0.5-0.9-0.5c-0.4,0-0.7,0.2-0.9,0.5
		c-0.2,0.3-0.3,0.8-0.3,1.5v2.5c0,0.7,0.1,1.3,0.3,1.6c0.2,0.3,0.5,0.5,0.9,0.5c0.4,0,0.7-0.2,0.9-0.5c0.2-0.3,0.3-0.9,0.3-1.6V19.8
		z" />
	</g>
	<g class="coach-seat" data-number='60'>
		<rect x="762" y="72" class="st7" width="26" height="18" />
		<path class="st8" d="M772.2,75.9v1.8h-0.1c-0.9,0-1.6,0.2-2.1,0.6c-0.6,0.4-0.9,1-1,1.7c0.5-0.5,1.2-0.8,2-0.8
		c0.9,0,1.5,0.3,2.1,0.9c0.5,0.6,0.8,1.5,0.8,2.5c0,0.6-0.2,1.2-0.5,1.7c-0.3,0.5-0.7,0.9-1.3,1.2c-0.5,0.3-1.1,0.4-1.8,0.4
		c-0.7,0-1.3-0.2-1.9-0.5c-0.6-0.3-1-0.8-1.3-1.4s-0.5-1.3-0.5-2.1v-0.9c0-1,0.2-1.9,0.7-2.8c0.4-0.8,1.1-1.5,1.9-1.9
		c0.8-0.5,1.7-0.7,2.7-0.7H772.2z M770.1,81.1c-0.3,0-0.6,0.1-0.8,0.2c-0.2,0.1-0.4,0.3-0.5,0.5v0.7c0,1.3,0.4,1.9,1.3,1.9
		c0.4,0,0.6-0.2,0.9-0.5c0.2-0.3,0.4-0.7,0.4-1.2c0-0.5-0.1-0.9-0.4-1.2C770.8,81.2,770.5,81.1,770.1,81.1z M781.6,81.9
		c0,1.3-0.3,2.4-0.9,3.1c-0.6,0.7-1.5,1.1-2.5,1.1c-1.1,0-2-0.4-2.6-1.1c-0.6-0.7-0.9-1.8-0.9-3.1v-1.8c0-1.3,0.3-2.4,0.9-3.1
		c0.6-0.7,1.5-1.1,2.6-1.1c1.1,0,2,0.4,2.6,1.1c0.6,0.7,0.9,1.8,0.9,3.1V81.9z M779.3,79.8c0-0.7-0.1-1.2-0.3-1.6
		c-0.2-0.4-0.5-0.5-0.9-0.5c-0.4,0-0.7,0.2-0.9,0.5c-0.2,0.3-0.3,0.8-0.3,1.5v2.5c0,0.7,0.1,1.3,0.3,1.6c0.2,0.3,0.5,0.5,0.9,0.5
		c0.4,0,0.7-0.2,0.9-0.5c0.2-0.3,0.3-0.9,0.3-1.6V79.8z" />
	</g>
	<g class="coach-seat" data-number='16'>
		<rect x="453" y="12" class="st7" width="26" height="18" />
		<path class="st8" d="M462.7,26h-2.3v-7.4l-2.3,0.7v-1.8l4.4-1.5h0.2V26z M471.3,15.9v1.8h-0.1c-0.9,0-1.6,0.2-2.1,0.6
		c-0.6,0.4-0.9,1-1,1.7c0.5-0.5,1.2-0.8,2-0.8c0.9,0,1.5,0.3,2.1,0.9c0.5,0.6,0.8,1.5,0.8,2.5c0,0.6-0.2,1.2-0.5,1.7
		c-0.3,0.5-0.7,0.9-1.3,1.2c-0.5,0.3-1.1,0.4-1.8,0.4c-0.7,0-1.3-0.2-1.9-0.5c-0.6-0.3-1-0.8-1.3-1.4c-0.3-0.6-0.5-1.3-0.5-2.1v-0.9
		c0-1,0.2-1.9,0.7-2.8c0.4-0.8,1.1-1.5,1.9-1.9c0.8-0.5,1.7-0.7,2.7-0.7H471.3z M469.2,21.1c-0.3,0-0.6,0.1-0.8,0.2
		c-0.2,0.1-0.4,0.3-0.5,0.5v0.7c0,1.3,0.4,1.9,1.3,1.9c0.4,0,0.6-0.2,0.9-0.5c0.2-0.3,0.4-0.7,0.4-1.2c0-0.5-0.1-0.9-0.4-1.2
		C469.9,21.2,469.6,21.1,469.2,21.1z" />
	</g>
	<g class="coach-seat" data-number='46'>
		<rect x="453" y="72" class="st7" width="26" height="18" />
		<path class="st8" d="M463.7,82.1h1v1.8h-1V86h-2.3v-2.1h-3.8l-0.1-1.4l4-6.4v0h2.3V82.1z M459.6,82.1h1.8V79l-0.1,0.2L459.6,82.1z
		 M471.3,75.9v1.8h-0.1c-0.9,0-1.6,0.2-2.1,0.6c-0.6,0.4-0.9,1-1,1.7c0.5-0.5,1.2-0.8,2-0.8c0.9,0,1.5,0.3,2.1,0.9
		c0.5,0.6,0.8,1.5,0.8,2.5c0,0.6-0.2,1.2-0.5,1.7c-0.3,0.5-0.7,0.9-1.3,1.2c-0.5,0.3-1.1,0.4-1.8,0.4c-0.7,0-1.3-0.2-1.9-0.5
		c-0.6-0.3-1-0.8-1.3-1.4c-0.3-0.6-0.5-1.3-0.5-2.1v-0.9c0-1,0.2-1.9,0.7-2.8c0.4-0.8,1.1-1.5,1.9-1.9c0.8-0.5,1.7-0.7,2.7-0.7
		H471.3z M469.2,81.1c-0.3,0-0.6,0.1-0.8,0.2c-0.2,0.1-0.4,0.3-0.5,0.5v0.7c0,1.3,0.4,1.9,1.3,1.9c0.4,0,0.6-0.2,0.9-0.5
		c0.2-0.3,0.4-0.7,0.4-1.2c0-0.5-0.1-0.9-0.4-1.2C469.9,81.2,469.6,81.1,469.2,81.1z" />
	</g>
	<g class="coach-seat" data-number='20'>
		<rect x="541" y="12" class="st7" width="26" height="18" />
		<path class="st8" d="M552.6,26h-6.9v-1.5l3.2-3.4c0.8-0.9,1.2-1.6,1.2-2.1c0-0.4-0.1-0.8-0.3-1c-0.2-0.2-0.5-0.3-0.8-0.3
		c-0.3,0-0.6,0.2-0.9,0.5c-0.2,0.3-0.3,0.7-0.3,1.1h-2.3c0-0.6,0.2-1.2,0.5-1.7c0.3-0.5,0.7-0.9,1.3-1.2c0.5-0.3,1.1-0.4,1.8-0.4
		c1.1,0,1.9,0.2,2.5,0.7c0.6,0.5,0.9,1.2,0.9,2.1c0,0.4-0.1,0.8-0.2,1.1c-0.1,0.4-0.4,0.8-0.7,1.2c-0.3,0.4-0.8,1-1.5,1.6l-1.3,1.5
		h3.9V26z M560.6,21.9c0,1.3-0.3,2.4-0.9,3.1c-0.6,0.7-1.5,1.1-2.5,1.1c-1.1,0-2-0.4-2.6-1.1c-0.6-0.7-0.9-1.8-0.9-3.1v-1.8
		c0-1.3,0.3-2.4,0.9-3.1c0.6-0.7,1.5-1.1,2.6-1.1c1.1,0,2,0.4,2.6,1.1c0.6,0.7,0.9,1.8,0.9,3.1V21.9z M558.3,19.8
		c0-0.7-0.1-1.2-0.3-1.6c-0.2-0.4-0.5-0.5-0.9-0.5c-0.4,0-0.7,0.2-0.9,0.5c-0.2,0.3-0.3,0.8-0.3,1.5v2.5c0,0.7,0.1,1.3,0.3,1.6
		c0.2,0.3,0.5,0.5,0.9,0.5c0.4,0,0.7-0.2,0.9-0.5c0.2-0.3,0.3-0.9,0.3-1.6V19.8z" />
	</g>
	<g class="coach-seat" data-number='50'>
		<rect x="541" y="72" class="st7" width="26" height="18" />
		<path class="st8" d="M545.7,81.1l0.6-5.1h5.8v1.8h-3.9l-0.2,2c0.2-0.1,0.4-0.2,0.6-0.3c0.3-0.1,0.5-0.1,0.8-0.1
		c1,0,1.7,0.3,2.3,0.9c0.5,0.6,0.8,1.4,0.8,2.5c0,0.6-0.1,1.2-0.4,1.7c-0.3,0.5-0.7,0.9-1.2,1.2c-0.5,0.3-1.1,0.4-1.8,0.4
		c-0.6,0-1.2-0.1-1.8-0.4c-0.5-0.3-1-0.6-1.3-1.1c-0.3-0.5-0.5-1-0.5-1.5h2.3c0,0.4,0.1,0.7,0.3,0.9c0.2,0.2,0.5,0.3,0.8,0.3
		c0.8,0,1.2-0.6,1.2-1.7c0-1.1-0.5-1.6-1.4-1.6c-0.5,0-0.9,0.2-1.2,0.5L545.7,81.1z M560.6,81.9c0,1.3-0.3,2.4-0.9,3.1
		c-0.6,0.7-1.5,1.1-2.5,1.1c-1.1,0-2-0.4-2.6-1.1c-0.6-0.7-0.9-1.8-0.9-3.1v-1.8c0-1.3,0.3-2.4,0.9-3.1c0.6-0.7,1.5-1.1,2.6-1.1
		c1.1,0,2,0.4,2.6,1.1c0.6,0.7,0.9,1.8,0.9,3.1V81.9z M558.3,79.8c0-0.7-0.1-1.2-0.3-1.6c-0.2-0.4-0.5-0.5-0.9-0.5
		c-0.4,0-0.7,0.2-0.9,0.5c-0.2,0.3-0.3,0.8-0.3,1.5v2.5c0,0.7,0.1,1.3,0.3,1.6c0.2,0.3,0.5,0.5,0.9,0.5c0.4,0,0.7-0.2,0.9-0.5
		c0.2-0.3,0.3-0.9,0.3-1.6V79.8z" />
	</g>
	<g class="coach-seat" data-number='24'>
		<rect x="629" y="12" class="st7" width="26" height="18" />
		<path class="st8" d="M640.6,26h-6.9v-1.5l3.2-3.4c0.8-0.9,1.2-1.6,1.2-2.1c0-0.4-0.1-0.8-0.3-1c-0.2-0.2-0.5-0.3-0.8-0.3
		c-0.3,0-0.6,0.2-0.9,0.5c-0.2,0.3-0.3,0.7-0.3,1.1h-2.3c0-0.6,0.2-1.2,0.5-1.7c0.3-0.5,0.7-0.9,1.3-1.2c0.5-0.3,1.1-0.4,1.8-0.4
		c1.1,0,1.9,0.2,2.5,0.7c0.6,0.5,0.9,1.2,0.9,2.1c0,0.4-0.1,0.8-0.2,1.1c-0.1,0.4-0.4,0.8-0.7,1.2c-0.3,0.4-0.8,1-1.5,1.6l-1.3,1.5
		h3.9V26z M647.8,22.1h1v1.8h-1V26h-2.3v-2.1h-3.8l-0.1-1.4l4-6.4v0h2.3V22.1z M643.7,22.1h1.8V19l-0.1,0.2L643.7,22.1z" />
	</g>
	<g class="coach-seat" data-number='54'>
		<rect x="629" y="72" class="st7" width="26" height="18" />
		<path class="st8" d="M633.7,81.1l0.6-5.1h5.8v1.8h-3.9l-0.2,2c0.2-0.1,0.4-0.2,0.6-0.3c0.3-0.1,0.5-0.1,0.8-0.1
		c1,0,1.7,0.3,2.3,0.9c0.5,0.6,0.8,1.4,0.8,2.5c0,0.6-0.1,1.2-0.4,1.7c-0.3,0.5-0.7,0.9-1.2,1.2c-0.5,0.3-1.1,0.4-1.8,0.4
		c-0.6,0-1.2-0.1-1.8-0.4c-0.5-0.3-1-0.6-1.3-1.1c-0.3-0.5-0.5-1-0.5-1.5h2.3c0,0.4,0.1,0.7,0.3,0.9c0.2,0.2,0.5,0.3,0.8,0.3
		c0.8,0,1.2-0.6,1.2-1.7c0-1.1-0.5-1.6-1.4-1.6c-0.5,0-0.9,0.2-1.2,0.5L633.7,81.1z M647.8,82.1h1v1.8h-1V86h-2.3v-2.1h-3.8
		l-0.1-1.4l4-6.4v0h2.3V82.1z M643.7,82.1h1.8V79l-0.1,0.2L643.7,82.1z" />
	</g>
	<g class="coach-seat" data-number='28'>
		<rect x="717" y="12" class="st7" width="26" height="18" />
		<path class="st8" d="M728.6,26h-6.9v-1.5l3.2-3.4c0.8-0.9,1.2-1.6,1.2-2.1c0-0.4-0.1-0.8-0.3-1c-0.2-0.2-0.5-0.3-0.8-0.3
		c-0.3,0-0.6,0.2-0.9,0.5c-0.2,0.3-0.3,0.7-0.3,1.1h-2.3c0-0.6,0.2-1.2,0.5-1.7c0.3-0.5,0.7-0.9,1.3-1.2c0.5-0.3,1.1-0.4,1.8-0.4
		c1.1,0,1.9,0.2,2.5,0.7c0.6,0.5,0.9,1.2,0.9,2.1c0,0.4-0.1,0.8-0.2,1.1c-0.1,0.4-0.4,0.8-0.7,1.2c-0.3,0.4-0.8,1-1.5,1.6l-1.3,1.5
		h3.9V26z M736.4,18.7c0,0.5-0.1,0.9-0.4,1.3c-0.2,0.4-0.6,0.7-1,0.9c0.5,0.2,0.9,0.6,1.1,1c0.3,0.4,0.4,0.9,0.4,1.4
		c0,0.9-0.3,1.6-0.9,2.1c-0.6,0.5-1.5,0.8-2.5,0.8c-1.1,0-1.9-0.3-2.6-0.8c-0.6-0.5-0.9-1.2-0.9-2.1c0-0.5,0.1-1,0.4-1.4
		c0.3-0.4,0.7-0.7,1.2-1c-0.4-0.2-0.8-0.5-1-0.9c-0.2-0.4-0.4-0.8-0.4-1.3c0-0.9,0.3-1.5,0.9-2.1c0.6-0.5,1.4-0.8,2.4-0.8
		c1,0,1.8,0.3,2.4,0.8S736.4,17.8,736.4,18.7z M734.3,23.1c0-0.4-0.1-0.7-0.3-0.9c-0.2-0.2-0.5-0.3-0.8-0.3s-0.6,0.1-0.8,0.3
		c-0.2,0.2-0.3,0.5-0.3,0.9c0,0.4,0.1,0.7,0.3,0.9c0.2,0.2,0.5,0.3,0.9,0.3c0.3,0,0.6-0.1,0.8-0.3C734.2,23.8,734.3,23.5,734.3,23.1
		z M733.2,17.7c-0.3,0-0.5,0.1-0.7,0.3c-0.2,0.2-0.2,0.5-0.2,0.8c0,0.4,0.1,0.6,0.2,0.9c0.2,0.2,0.4,0.3,0.7,0.3
		c0.3,0,0.5-0.1,0.7-0.3c0.2-0.2,0.2-0.5,0.2-0.9c0-0.4-0.1-0.6-0.2-0.8C733.7,17.8,733.5,17.7,733.2,17.7z" />
	</g>
	<g class="coach-seat" data-number='58'>
		<rect x="717" y="72" class="st7" width="26" height="18" />
		<path class="st8" d="M721.7,81.1l0.6-5.1h5.8v1.8h-3.9l-0.2,2c0.2-0.1,0.4-0.2,0.6-0.3c0.3-0.1,0.5-0.1,0.8-0.1
		c1,0,1.7,0.3,2.3,0.9c0.5,0.6,0.8,1.4,0.8,2.5c0,0.6-0.1,1.2-0.4,1.7c-0.3,0.5-0.7,0.9-1.2,1.2c-0.5,0.3-1.1,0.4-1.8,0.4
		c-0.6,0-1.2-0.1-1.8-0.4c-0.5-0.3-1-0.6-1.3-1.1c-0.3-0.5-0.5-1-0.5-1.5h2.3c0,0.4,0.1,0.7,0.3,0.9c0.2,0.2,0.5,0.3,0.8,0.3
		c0.8,0,1.2-0.6,1.2-1.7c0-1.1-0.5-1.6-1.4-1.6c-0.5,0-0.9,0.2-1.2,0.5L721.7,81.1z M736.4,78.7c0,0.5-0.1,0.9-0.4,1.3
		c-0.2,0.4-0.6,0.7-1,0.9c0.5,0.2,0.9,0.6,1.1,1c0.3,0.4,0.4,0.9,0.4,1.4c0,0.9-0.3,1.6-0.9,2.1c-0.6,0.5-1.5,0.8-2.5,0.8
		c-1.1,0-1.9-0.3-2.6-0.8c-0.6-0.5-0.9-1.2-0.9-2.1c0-0.5,0.1-1,0.4-1.4c0.3-0.4,0.7-0.7,1.2-1c-0.4-0.2-0.8-0.5-1-0.9
		c-0.2-0.4-0.4-0.8-0.4-1.3c0-0.9,0.3-1.5,0.9-2.1c0.6-0.5,1.4-0.8,2.4-0.8c1,0,1.8,0.3,2.4,0.8C736.1,77.2,736.4,77.8,736.4,78.7z
		 M734.3,83.1c0-0.4-0.1-0.7-0.3-0.9c-0.2-0.2-0.5-0.3-0.8-0.3s-0.6,0.1-0.8,0.3c-0.2,0.2-0.3,0.5-0.3,0.9c0,0.4,0.1,0.7,0.3,0.9
		c0.2,0.2,0.5,0.3,0.9,0.3c0.3,0,0.6-0.1,0.8-0.3C734.2,83.8,734.3,83.5,734.3,83.1z M733.2,77.7c-0.3,0-0.5,0.1-0.7,0.3
		c-0.2,0.2-0.2,0.5-0.2,0.8c0,0.4,0.1,0.6,0.2,0.9c0.2,0.2,0.4,0.3,0.7,0.3c0.3,0,0.5-0.1,0.7-0.3c0.2-0.2,0.2-0.5,0.2-0.9
		s-0.1-0.6-0.2-0.8C733.7,77.8,733.5,77.7,733.2,77.7z" />
	</g>
	<g class="coach-seat" data-number='32'>
		<rect x="806" y="12" class="st7" width="26" height="18" />
		<path class="st8" d="M812.7,20.1h1.1c0.9,0,1.3-0.4,1.3-1.3c0-0.3-0.1-0.6-0.3-0.8c-0.2-0.2-0.5-0.3-0.9-0.3
		c-0.3,0-0.6,0.1-0.8,0.3c-0.2,0.2-0.3,0.4-0.3,0.7h-2.3c0-0.5,0.1-1,0.4-1.4c0.3-0.4,0.7-0.7,1.2-1c0.5-0.2,1.1-0.3,1.7-0.3
		c1.1,0,2,0.3,2.6,0.8c0.6,0.5,1,1.2,1,2.1c0,0.4-0.1,0.8-0.4,1.2c-0.3,0.4-0.6,0.7-1.1,0.9c0.5,0.2,0.9,0.5,1.2,0.9
		c0.3,0.4,0.5,0.9,0.5,1.4c0,0.9-0.3,1.6-1,2.1c-0.7,0.5-1.6,0.8-2.7,0.8c-0.7,0-1.3-0.1-1.8-0.4c-0.6-0.3-1-0.6-1.3-1
		c-0.3-0.4-0.4-0.9-0.4-1.5h2.3c0,0.3,0.1,0.6,0.4,0.8c0.2,0.2,0.5,0.3,0.9,0.3c0.4,0,0.7-0.1,1-0.3c0.2-0.2,0.4-0.5,0.4-0.9
		c0-0.5-0.1-0.9-0.4-1.1c-0.3-0.2-0.6-0.3-1-0.3h-1.1V20.1z M825.7,26h-6.9v-1.5l3.2-3.4c0.8-0.9,1.2-1.6,1.2-2.1
		c0-0.4-0.1-0.8-0.3-1c-0.2-0.2-0.5-0.3-0.8-0.3c-0.4,0-0.6,0.2-0.9,0.5c-0.2,0.3-0.3,0.7-0.3,1.1h-2.3c0-0.6,0.2-1.2,0.5-1.7
		c0.3-0.5,0.7-0.9,1.3-1.2c0.5-0.3,1.1-0.4,1.8-0.4c1.1,0,1.9,0.2,2.5,0.7c0.6,0.5,0.9,1.2,0.9,2.1c0,0.4-0.1,0.8-0.2,1.1
		c-0.1,0.4-0.4,0.8-0.7,1.2c-0.3,0.4-0.8,1-1.5,1.6l-1.3,1.5h3.9V26z" />
	</g>
	<rect x="17" y="1" class="st1" width="14" height="6" />
	<rect x="17" y="117" class="st1" width="14" height="6" />
	<g>
		<defs>
			<rect id="SVGID_5_" x="861" y="10" width="18" height="18" />
		</defs>
		<clipPath id="SVGID_6_">
			<use xlink:href="#SVGID_5_" style="overflow:visible;" />
		</clipPath>
		<g class="st9">
			<path class="st4" d="M874.7,28.1c-0.3,0-0.5-0.2-0.5-0.5v-5.4h0.9v5.4C875.1,27.9,874.9,28.1,874.7,28.1z M876.7,27.6
			c0,0.3-0.2,0.5-0.5,0.5c-0.3,0-0.5-0.2-0.5-0.5v-5.4h0.9V27.6z M878.2,20.5c0,0.3-0.2,0.5-0.5,0.5c-0.3,0-0.5-0.2-0.5-0.5v-3.9
			c0-0.2-0.1-0.3-0.3-0.3c-0.2,0-0.3,0.1-0.3,0.3v5h-2.5v-5c0-0.2-0.1-0.3-0.3-0.3c-0.2,0-0.3,0.1-0.3,0.3v3.9
			c0,0.3-0.2,0.5-0.5,0.5c-0.3,0-0.5-0.2-0.5-0.5v-3.9c0-0.7,0.6-1.2,1.2-1.2h3.1c0.7,0,1.2,0.6,1.2,1.2V20.5z" />
			<path class="st4" d="M864.7,28.1c-0.1,0-0.2,0-0.3-0.1c-0.1-0.1-0.1-0.2-0.1-0.3v-4.2h0.9v4.2C865.2,27.9,865,28.1,864.7,28.1z
			 M866.7,27.6c0,0.3-0.2,0.5-0.5,0.5s-0.5-0.2-0.5-0.5v-4.2h0.9V27.6z M868.7,20.7c-0.2,0.1-0.5-0.1-0.6-0.3l-1.1-3.9
			c0-0.2-0.2-0.3-0.4-0.2c-0.2,0-0.3,0.2-0.2,0.4l1.7,6.1h-5.4l1.7-6.1c0-0.2-0.1-0.3-0.2-0.4c-0.2,0-0.3,0-0.4,0.2l-1.1,3.9
			c-0.1,0.2-0.3,0.4-0.6,0.3c-0.2-0.1-0.4-0.3-0.3-0.6l1.1-3.9c0.2-0.5,0.6-0.9,1.2-0.9h3c0.3,0,0.5,0.2,0.6,0.4l1.2,4.3
			c0,0.1,0,0.2,0,0.4C869,20.6,868.9,20.7,868.7,20.7z" />
			<path class="st4" d="M871.1,11h-0.6c-0.2,0-0.3,0.1-0.3,0.3v17.4c0,0.2,0.1,0.3,0.3,0.3h0.6c0.2,0,0.3-0.1,0.3-0.3V11.3
			C871.4,11.1,871.3,11,871.1,11z" />
			<path class="st4" d="M865.5,14.4c0.7,0,1.2-0.6,1.2-1.2c0-0.7-0.6-1.2-1.2-1.2s-1.2,0.6-1.2,1.2C864.3,13.9,864.8,14.4,865.5,14.4
			z" />
			<path class="st4" d="M875.4,14.4c0.7,0,1.2-0.6,1.2-1.2c0-0.7-0.6-1.2-1.2-1.2c-0.7,0-1.2,0.6-1.2,1.2
			C874.2,13.9,874.7,14.4,875.4,14.4z" />
		</g>
	</g>
	<g>
		<defs>
			<rect id="SVGID_7_" x="860" y="101" width="16" height="16" />
		</defs>
		<clipPath id="SVGID_8_">
			<use xlink:href="#SVGID_7_" style="overflow:visible;" />
		</clipPath>
		<g class="st10">
			<path class="st4" d="M874.5,104.6l-0.4-1.1c-0.1-0.4-0.5-0.7-0.9-0.7h-3v-1c0-0.5-0.4-0.9-0.9-0.9h-2.7c-0.5,0-0.9,0.4-0.9,0.9v1
			h-3c-0.4,0-0.8,0.3-0.9,0.7l-0.4,1.1c-0.1,0.2,0,0.5,0.1,0.7c0.1,0.2,0.4,0.3,0.6,0.3h0.4l0.8,10c0.1,0.7,0.7,1.3,1.4,1.3h6.4
			c0.7,0,1.4-0.6,1.4-1.3l0.8-10h0.2c0.3,0,0.5-0.1,0.6-0.3C874.5,105.1,874.6,104.8,874.5,104.6z M866.7,101.9h2.6v0.9h-2.6V101.9z
			 M871.8,115.6c0,0.3-0.2,0.5-0.5,0.5h-6.4c-0.3,0-0.5-0.2-0.5-0.5l-0.8-10h9L871.8,115.6z M862.5,104.7l0.3-0.9c0,0,0,0,0,0h10.4
			c0,0,0,0,0,0l0.3,0.9H862.5z" />
			<path class="st4" d="M870.3,115.6C870.3,115.6,870.3,115.6,870.3,115.6c0.3,0,0.5-0.2,0.5-0.4l0.4-8.4c0-0.3-0.2-0.5-0.4-0.5
			c-0.3,0-0.5,0.2-0.5,0.4l-0.4,8.4C869.8,115.3,870,115.5,870.3,115.6z" />
			<path class="st4" d="M865.2,115.1c0,0.2,0.2,0.4,0.5,0.4c0,0,0,0,0,0c0.3,0,0.5-0.2,0.4-0.5l-0.5-8.5c0-0.3-0.2-0.5-0.5-0.4
			c-0.3,0-0.5,0.2-0.4,0.5L865.2,115.1z" />
			<path class="st4" d="M868,115.6c0.3,0,0.5-0.2,0.5-0.5v-8.5c0-0.3-0.2-0.5-0.5-0.5c-0.3,0-0.5,0.2-0.5,0.5v8.5
			C867.5,115.4,867.7,115.6,868,115.6z" />
		</g>
	</g>
</svg>