<svg width="920" height="124" viewBox="0 0 920 124" fill="none" xmlns="http://www.w3.org/2000/svg">
  <rect x="0.5" y="3.5" width="919" height="116" rx="11.5" stroke="#CCCCCC" />
  <line x1="40.5" y1="70" x2="40.5" y2="120" stroke="#CCCCCC" />
  <line x1="72.5" y1="91" x2="72.5" y2="120" stroke="#CCCCCC" />
  <line x1="130" y1="66.5" x2="87" y2="66.5" stroke="#CCCCCC" />
  <line x1="73.5" y1="4" x2="73.5" y2="59" stroke="#CCCCCC" />
  <line x1="40.5" y1="1" x2="40.5" y2="40" stroke="#CCCCCC" />
  <line x1="40.0046" y1="70.3689" x2="72.2747" y2="91.5822" stroke="#CCCCCC" />
  <line x1="40.2491" y1="39.5664" x2="87.2491" y2="66.5664" stroke="#CCCCCC" />
  <line x1="846" y1="98.5" x2="134" y2="98.5" stroke="#CCCCCC" />
  <line x1="883" y1="38.5" x2="865" y2="38.5" stroke="#CCCCCC" />
  <line x1="882.5" y1="4" x2="882.5" y2="119" stroke="#CCCCCC" />
  <line x1="864.315" y1="54.3881" x2="848.315" y2="67.3881" stroke="#CCCCCC" />
  <line x1="864.5" y1="38" x2="864.5" y2="55" stroke="#CCCCCC" />
  <line x1="132" y1="92" x2="132" y2="120" stroke="#999999" stroke-width="4" />
  <line x1="882" y1="38" x2="882" y2="60" stroke="#999999" stroke-width="2" />
  <line x1="40" y1="40" x2="40" y2="72" stroke="#999999" stroke-width="2" />
  <line x1="2" y1="40" x2="2" y2="78" stroke="#999999" stroke-width="2" />
  <line x1="130" y1="118" x2="849" y2="118" stroke="#999999" stroke-width="4" />
  <line x1="401" y1="92" x2="401" y2="120" stroke="#999999" stroke-width="4" />
  <line x1="669" y1="92" x2="669" y2="120" stroke="#999999" stroke-width="4" />
  <line x1="222" y1="92" x2="222" y2="120" stroke="#999999" stroke-width="4" />
  <line x1="491" y1="92" x2="491" y2="120" stroke="#999999" stroke-width="4" />
  <line x1="759" y1="92" x2="759" y2="120" stroke="#999999" stroke-width="4" />
  <line x1="311" y1="92" x2="311" y2="120" stroke="#999999" stroke-width="4" />
  <line x1="580" y1="92" x2="580" y2="120" stroke="#999999" stroke-width="4" />
  <line x1="848" y1="92" x2="848" y2="120" stroke="#999999" stroke-width="4" />
  <line x1="160" y1="68" x2="130" y2="68" stroke="#999999" stroke-width="4" />
  <line x1="250" y1="68" x2="193" y2="68" stroke="#999999" stroke-width="4" />
  <line x1="429" y1="68" x2="372" y2="68" stroke="#999999" stroke-width="4" />
  <line x1="339" y1="68" x2="282" y2="68" stroke="#999999" stroke-width="4" />
  <line x1="518" y1="68" x2="461" y2="68" stroke="#999999" stroke-width="4" />
  <line x1="608" y1="68" x2="551" y2="68" stroke="#999999" stroke-width="4" />
  <g clip-path="url(#clip0)">
    <path
      d="M60.6552 34.069C60.3981 34.069 60.1897 33.8606 60.1897 33.6035V28.1724H61.1207V33.6035C61.1207 33.8606 60.9123 34.069 60.6552 34.069ZM62.6724 33.6035C62.6724 33.8606 62.464 34.069 62.2069 34.069C61.9498 34.069 61.7414 33.8606 61.7414 33.6035V28.1724H62.6724V33.6035ZM64.2241 26.4655C64.2241 26.7226 64.0157 26.9311 63.7586 26.9311C63.5015 26.9311 63.2931 26.7226 63.2931 26.4655V22.5862C63.2931 22.4148 63.1542 22.2759 62.9828 22.2759C62.8114 22.2759 62.6724 22.4148 62.6724 22.5862V27.5517H60.1897V22.5862C60.1897 22.4148 60.0507 22.2759 59.8793 22.2759C59.7079 22.2759 59.569 22.4148 59.569 22.5862V26.4655C59.569 26.7226 59.3606 26.9311 59.1035 26.9311C58.8464 26.9311 58.6379 26.7226 58.6379 26.4655V22.5862C58.6379 21.9006 59.1937 21.3448 59.8793 21.3448H62.9828C63.6684 21.3448 64.2241 21.9006 64.2241 22.5862V26.4655Z"
      fill="#999999" />
    <path
      d="M50.7241 34.069C50.6004 34.0697 50.4816 34.0209 50.3941 33.9335C50.3067 33.846 50.2579 33.7272 50.2586 33.6035L50.2586 29.4138H51.1897V33.6035C51.1897 33.8606 50.9812 34.069 50.7241 34.069ZM52.7414 33.6035C52.7414 33.8606 52.533 34.069 52.2759 34.069C52.0188 34.069 51.8103 33.8606 51.8103 33.6035V29.4138H52.7414V33.6035ZM54.7428 26.6955C54.4957 26.7655 54.2384 26.6232 54.1662 26.3768L53.0517 22.4975C53.003 22.3348 52.8325 22.2415 52.6692 22.2881C52.5059 22.3347 52.4104 22.504 52.4549 22.6678L54.1907 28.7931H48.8068L50.5448 22.6669C50.583 22.5053 50.4873 22.3422 50.3276 22.2968C50.1678 22.2515 50.0007 22.3399 49.9483 22.4975L48.8345 26.3749C48.764 26.6226 48.5061 26.7663 48.2585 26.6958C48.0108 26.6254 47.8671 26.3675 47.9376 26.1198L49.0514 22.2448C49.2068 21.7136 49.6927 21.3476 50.2462 21.3448H53.2224C53.4984 21.3462 53.7406 21.5287 53.818 21.7936L55.0624 26.1192C55.0966 26.238 55.0821 26.3655 55.0222 26.4736C54.9622 26.5818 54.8617 26.6616 54.7428 26.6955Z"
      fill="#999999" />
    <path
      d="M57.0862 17H56.4655C56.2941 17 56.1552 17.1389 56.1552 17.3103V34.6897C56.1552 34.8611 56.2941 35 56.4655 35H57.0862C57.2576 35 57.3966 34.8611 57.3966 34.6897V17.3103C57.3966 17.1389 57.2576 17 57.0862 17Z"
      fill="#999999" />
    <path
      d="M51.5 20.4138C52.1856 20.4138 52.7414 19.858 52.7414 19.1724C52.7414 18.4868 52.1856 17.931 51.5 17.931C50.8144 17.931 50.2586 18.4868 50.2586 19.1724C50.2586 19.858 50.8144 20.4138 51.5 20.4138Z"
      fill="#999999" />
    <path
      d="M61.431 20.4138C62.1166 20.4138 62.6724 19.858 62.6724 19.1724C62.6724 18.4868 62.1166 17.931 61.431 17.931C60.7455 17.931 60.1897 18.4868 60.1897 19.1724C60.1897 19.858 60.7455 20.4138 61.431 20.4138Z"
      fill="#999999" />
  </g>
  <path
    d="M110.134 41.3866L108.586 40.6733C110.264 40.0105 110.469 39.117 110.487 39.0077C110.518 38.8214 110.396 38.6439 110.211 38.6069C109.002 38.3651 109.037 36.4446 109.077 34.2211C109.085 33.8189 109.092 33.4096 109.092 33.0001C109.149 31.3535 108.33 29.7997 106.939 28.9166L106.278 26.6039C106.247 26.4927 106.162 26.4045 106.053 26.368C105.22 26.129 104.358 26.0051 103.492 26C102.626 26.0051 101.764 26.129 100.931 26.368C100.822 26.4045 100.737 26.4927 100.705 26.6039L100.045 28.9166C98.6539 29.7997 97.8347 31.3535 97.8919 33.0001C97.8919 33.4096 97.8993 33.8189 97.9067 34.2211C97.9472 36.4446 97.982 38.3651 96.7733 38.6069C96.5879 38.6439 96.4655 38.8214 96.4967 39.0077C96.515 39.117 96.7194 40.0105 98.398 40.6733L96.8476 41.3874C96.2098 41.6843 95.7617 42.2794 95.6524 42.9742L95.0958 46.5967C95.0803 46.6978 95.1097 46.8005 95.1762 46.8779C95.2427 46.9555 95.3398 47 95.4419 47H111.542C111.644 47 111.741 46.9555 111.808 46.8779C111.874 46.8004 111.903 46.6978 111.888 46.5969L111.331 42.9729C111.222 42.2778 110.773 41.683 110.134 41.3866ZM105.96 42.5607C106.121 43.0441 105.897 43.7846 105.648 44.3622C105.319 43.7617 104.8 43.2879 104.171 43.0156C105.151 42.0983 105.937 40.9944 106.483 39.7691C106.992 40.0336 107.428 40.4202 107.751 40.8943C108.108 41.4305 108.021 42.3957 107.878 43.0936C107.464 42.6639 106.96 42.3308 106.403 42.118C106.277 42.076 106.138 42.1087 106.044 42.2026C105.951 42.2963 105.918 42.4351 105.96 42.5609V42.5607ZM103.492 42.6845C102.647 41.9301 101.942 41.0324 101.409 40.0328L101.742 39.8663V39.9999C101.742 40.1933 101.899 40.35 102.092 40.35C102.285 40.35 102.442 40.1933 102.442 39.9999V37.6505C103.091 38.0285 103.893 38.0285 104.542 37.6505V39.9999C104.542 40.1933 104.699 40.35 104.892 40.35C105.085 40.35 105.242 40.1933 105.242 39.9999V39.8663L105.576 40.0334C105.043 41.033 104.338 41.9307 103.492 42.6845ZM100.939 42.2026C100.846 42.1087 100.707 42.076 100.581 42.118C100.023 42.3308 99.5196 42.664 99.1056 43.0941C98.9617 42.397 98.8745 41.4321 99.2331 40.8943C99.5563 40.4202 99.9917 40.0336 100.501 39.7691C101.047 40.9944 101.833 42.0983 102.813 43.0156C102.184 43.2881 101.664 43.7622 101.336 44.3631C101.087 43.7862 100.862 43.0458 101.024 42.561C101.066 42.4351 101.033 42.2963 100.939 42.2026ZM101.042 32.8727C102.066 32.6657 102.955 32.0368 103.492 31.1403C104.028 32.0368 104.918 32.6657 105.942 32.8727V34.7919C105.944 35.5166 105.571 36.1906 104.955 36.5727L104.234 37.0234C103.779 37.3054 103.204 37.3054 102.75 37.0234L102.029 36.5727C101.413 36.1908 101.04 35.5166 101.042 34.7919V32.8727ZM101.326 26.9784C102.035 26.8014 102.762 26.708 103.492 26.7C104.222 26.708 104.949 26.8014 105.658 26.9784L106.151 28.7066C105.273 28.5539 104.384 28.4681 103.492 28.45C102.6 28.4681 101.711 28.5539 100.833 28.7066L101.326 26.9784ZM97.3385 39.1559C98.6853 38.533 98.647 36.4266 98.6066 34.2083C98.5993 33.8106 98.5919 33.4052 98.5919 33.0001C98.5321 31.5759 99.247 30.2307 100.461 29.4834C101.461 29.2902 102.474 29.1787 103.492 29.15C104.509 29.1789 105.523 29.2902 106.522 29.4833C107.731 30.2352 108.444 31.5772 108.392 33.0001C108.392 33.4052 108.385 33.8106 108.377 34.2083C108.337 36.4277 108.299 38.5348 109.647 39.1566C109.217 39.6273 108.661 39.9641 108.044 40.126C107.602 39.6098 107.038 39.2118 106.403 38.9681C106.315 38.9387 106.219 38.9456 106.136 38.9871C106.052 39.0285 105.989 39.1013 105.96 39.1894C105.959 39.1933 105.932 39.2698 105.878 39.4015L105.242 39.0837V37.2189L105.326 37.1665C106.147 36.6569 106.645 35.7582 106.642 34.7919V33.0001H106.643C106.827 32.9996 106.98 32.8559 106.991 32.6714C107.002 32.4872 106.869 32.3257 106.685 32.3028C104.196 31.9915 103.85 30.2161 103.837 30.1405C103.836 30.1367 103.834 30.1339 103.833 30.1301C103.827 30.1064 103.818 30.0836 103.806 30.0618C103.8 30.042 103.791 30.0227 103.78 30.0043C103.751 29.9716 103.719 29.9404 103.686 29.9109C103.669 29.901 103.65 29.8925 103.631 29.8857C103.609 29.8744 103.586 29.8654 103.562 29.8593C103.557 29.8584 103.554 29.8555 103.55 29.8547C103.511 29.8574 103.473 29.8574 103.434 29.8547C103.43 29.8555 103.427 29.8582 103.423 29.8592C103.398 29.8654 103.375 29.8744 103.353 29.8857C103.295 29.9146 103.244 29.9553 103.203 30.0051C103.193 30.0231 103.184 30.042 103.177 30.0613C103.166 30.0835 103.157 30.1068 103.151 30.1309C103.15 30.135 103.148 30.1379 103.147 30.1423C103.144 30.1608 102.811 31.9886 100.299 32.3026C100.115 32.3252 99.9807 32.4869 99.992 32.6714C100.003 32.8562 100.156 33.0001 100.341 33.0001H100.342V34.7919C100.339 35.7582 100.837 36.657 101.658 37.1665L101.742 37.2189V39.0837L101.107 39.4012C101.052 39.2694 101.025 39.1928 101.024 39.1889C100.962 39.006 100.764 38.9073 100.581 38.968C99.9464 39.2117 99.3823 39.6097 98.9397 40.1259C98.324 39.9629 97.7681 39.6262 97.3385 39.1559ZM96.3441 43.082C96.4173 42.6181 96.7166 42.2207 97.1424 42.0224L98.3162 41.4818C98.2519 42.3194 98.3517 43.1614 98.6098 43.9607C98.6521 44.0876 98.763 44.1792 98.8955 44.1968C99.028 44.2146 99.1591 44.1553 99.2331 44.0442C99.5053 43.6425 99.8597 43.3033 100.273 43.0492C100.372 43.8923 100.651 44.7042 101.092 45.43C101.155 45.5355 101.269 45.6 101.392 45.6C101.412 45.6 101.432 45.5983 101.452 45.5949C101.594 45.5702 101.707 45.4605 101.735 45.3187C101.891 44.5564 102.419 43.9235 103.142 43.6345V46.3H95.8499L96.3441 43.082ZM103.842 46.3V43.637C104.563 43.9269 105.091 44.558 105.249 45.3187C105.277 45.4605 105.39 45.5702 105.533 45.5949C105.552 45.5983 105.572 45.6 105.592 45.6C105.715 45.6 105.829 45.5355 105.892 45.43C106.332 44.7042 106.612 43.8923 106.711 43.0492C107.124 43.3035 107.479 43.6425 107.751 44.0442C107.825 44.1553 107.956 44.2146 108.088 44.1968C108.221 44.1792 108.332 44.0876 108.374 43.9607C108.632 43.1614 108.732 42.3194 108.668 41.4818L109.84 42.0217C110.266 42.2196 110.566 42.6166 110.64 43.0806L111.134 46.3H103.842Z"
    fill="#999999" />
  <g clip-path="url(#clip1)">
    <path
      d="M60.5527 110.208H60.1739V109.829C60.1739 109.203 59.664 108.693 59.0373 108.693H58.6178C58.6786 108.631 58.737 108.565 58.7925 108.497C58.932 108.324 59.0493 108.135 59.1436 107.935H59.208C60.264 107.935 61 107.204 61 106.549C61 106.283 60.8843 106.049 60.6741 105.889C60.4768 105.738 60.2097 105.662 59.8804 105.662C59.5118 105.662 57.4398 105.662 57.1431 105.662V104.096H57.5219C57.7311 104.096 57.9008 103.926 57.9008 103.717V102.58H58.2796C58.4888 102.58 58.6585 102.411 58.6585 102.202V101.065H59.0373C59.664 101.065 60.1739 100.555 60.1739 99.9285V98.413C60.1739 98.2038 60.0043 98.0342 59.795 98.0342H50.652C49.6075 98.0342 48.7577 98.884 48.7577 99.9284C48.7577 100.104 48.7577 109.928 48.7577 110.208H48.3789C48.1696 110.208 48 110.378 48 110.587C48 110.796 48.1696 110.966 48.3789 110.966H60.5527C60.7619 110.966 60.9316 110.796 60.9316 110.587C60.9316 110.378 60.762 110.208 60.5527 110.208ZM59.4162 106.722V106.42H59.8803C60.0972 106.42 60.1862 106.47 60.2144 106.491C60.2337 106.506 60.2422 106.518 60.2422 106.549C60.2422 106.72 59.9495 107.101 59.3804 107.167C59.4037 107.021 59.4162 106.872 59.4162 106.722ZM58.6585 106.42V106.722C58.6585 107.703 57.958 108.56 57.0638 108.674C56.8711 108.699 56.6575 108.699 56.465 108.674C55.5705 108.561 54.8699 107.704 54.8699 106.722V106.42H58.6585ZM55.2488 102.58H55.6276V103.717C55.6276 103.926 55.7972 104.096 56.0065 104.096H56.3853V105.662H54.491C54.2818 105.662 54.1122 105.831 54.1122 106.041V106.722C54.1122 107.368 54.3338 107.999 54.7361 108.497C54.7914 108.566 54.8496 108.631 54.9103 108.693H53.3545V101.444C53.3545 101.235 53.5245 101.065 53.7333 101.065H54.8699V102.202C54.8699 102.411 55.0395 102.58 55.2488 102.58ZM56.3853 103.338V102.58H57.143V103.338H56.3853ZM57.9008 101.823C57.6707 101.823 55.9981 101.823 55.6276 101.823V101.065H57.9008V101.823ZM49.5154 99.9285C49.5154 99.3018 50.0253 98.7919 50.652 98.7919H59.4161V99.9285C59.4161 100.137 59.2462 100.307 59.0373 100.307C58.7991 100.307 54.0138 100.307 53.7333 100.307C53.1066 100.307 52.5968 100.817 52.5968 101.444V108.693H49.5154V99.9285ZM59.4162 110.208H49.5154V109.45C49.7536 109.45 58.6404 109.45 59.0373 109.45C59.2462 109.45 59.4162 109.62 59.4162 109.829V110.208Z"
      fill="#999999" />
    <path
      d="M51.0309 100.307C50.6131 100.307 50.2732 100.647 50.2732 101.065C50.2732 101.483 50.6131 101.823 51.0309 101.823C51.4487 101.823 51.7886 101.483 51.7886 101.065C51.7886 100.647 51.4487 100.307 51.0309 100.307Z"
      fill="#999999" />
    <path
      d="M51.0309 102.58C50.6131 102.58 50.2732 102.92 50.2732 103.338C50.2732 103.756 50.6131 104.096 51.0309 104.096C51.4487 104.096 51.7886 103.756 51.7886 103.338C51.7886 102.92 51.4487 102.58 51.0309 102.58Z"
      fill="#999999" />
  </g>
  <line x1="697" y1="68" x2="640" y2="68" stroke="#999999" stroke-width="4" />
  <line x1="787" y1="68" x2="731" y2="68" stroke="#999999" stroke-width="4" />
  <line x1="849" y1="67" x2="821" y2="67" stroke="#999999" stroke-width="4" />
  <line x1="850" y1="6" x2="131" y2="6.00006" stroke="#999999" stroke-width="4" />
  <line x1="579.5" y1="69" x2="579.5" y2="4" stroke="#999999" stroke-width="3" />
  <line x1="310.5" y1="69" x2="310.5" y2="4" stroke="#999999" stroke-width="3" />
  <line x1="758.5" y1="69" x2="758.5" y2="4" stroke="#999999" stroke-width="3" />
  <line x1="848.5" y1="69" x2="848.5" y2="4" stroke="#999999" stroke-width="3" />
  <line x1="489.5" y1="69" x2="489.5" y2="4" stroke="#999999" stroke-width="3" />
  <line x1="221.5" y1="69" x2="221.5" y2="4" stroke="#999999" stroke-width="3" />
  <line x1="668.5" y1="69" x2="668.5" y2="4" stroke="#999999" stroke-width="3" />
  <line x1="400.5" y1="69" x2="400.5" y2="4" stroke="#999999" stroke-width="3" />
  <line x1="131.5" y1="69" x2="131.5" y2="4" stroke="#999999" stroke-width="3" />

  <g class="coach-seat" data-number='1'>
    <rect x="133" y="8" width="27" height="58" fill="#C4C4C4" />
    <path d="M147.715 57H145.404V49.6445L143.135 50.3076V48.5576L147.503 47.0469H147.715V57Z" fill="#F5F5F5" />
  </g>

  <g class="coach-seat" data-number='2'>
    <rect x="193" y="8" width="27" height="58" fill="#C4C4C4" />
    <path
      d="M209.554 57H202.608V55.4961L205.808 52.1328C206.596 51.235 206.99 50.5218 206.99 49.9932C206.99 49.5648 206.897 49.2389 206.71 49.0156C206.523 48.7923 206.252 48.6807 205.896 48.6807C205.546 48.6807 205.261 48.8311 205.042 49.1318C204.823 49.4281 204.714 49.7995 204.714 50.2461H202.403C202.403 49.6354 202.556 49.0726 202.861 48.5576C203.167 48.0381 203.59 47.6325 204.133 47.3408C204.675 47.0492 205.281 46.9033 205.951 46.9033C207.027 46.9033 207.854 47.1517 208.433 47.6484C209.016 48.1452 209.308 48.8584 209.308 49.7881C209.308 50.18 209.235 50.5628 209.089 50.9365C208.943 51.3057 208.715 51.6953 208.405 52.1055C208.1 52.5111 207.605 53.0557 206.922 53.7393L205.637 55.2227H209.554V57Z"
      fill="#F5F5F5" />
  </g>

  <g class="coach-seat" data-number='3'>
    <rect x="223" y="8" width="27" height="58" fill="#C4C4C4" />
    <path
      d="M234.714 51.0596H235.801C236.662 51.0596 237.093 50.638 237.093 49.7949C237.093 49.4668 236.99 49.2002 236.785 48.9951C236.58 48.7855 236.291 48.6807 235.917 48.6807C235.612 48.6807 235.345 48.7695 235.117 48.9473C234.894 49.125 234.782 49.346 234.782 49.6104H232.479C232.479 49.0863 232.624 48.6191 232.916 48.209C233.208 47.7988 233.611 47.4798 234.126 47.252C234.646 47.0195 235.215 46.9033 235.835 46.9033C236.942 46.9033 237.813 47.1562 238.446 47.6621C239.08 48.168 239.396 48.863 239.396 49.7471C239.396 50.1755 239.264 50.5811 239 50.9639C238.74 51.3421 238.36 51.6497 237.858 51.8867C238.387 52.0781 238.802 52.3698 239.103 52.7617C239.403 53.1491 239.554 53.6299 239.554 54.2041C239.554 55.0928 239.212 55.8037 238.528 56.3369C237.845 56.8701 236.947 57.1367 235.835 57.1367C235.183 57.1367 234.577 57.0137 234.017 56.7676C233.461 56.5169 233.039 56.1729 232.752 55.7354C232.465 55.2933 232.321 54.792 232.321 54.2314H234.639C234.639 54.5368 234.762 54.8011 235.008 55.0244C235.254 55.2477 235.557 55.3594 235.917 55.3594C236.323 55.3594 236.646 55.2477 236.888 55.0244C237.129 54.7965 237.25 54.5072 237.25 54.1562C237.25 53.6549 237.125 53.2995 236.874 53.0898C236.623 52.8802 236.277 52.7754 235.835 52.7754H234.714V51.0596Z"
      fill="#F5F5F5" />
  </g>


  <g class="coach-seat" data-number='4'>
    <rect x="282" y="8" width="27" height="58" fill="#C4C4C4" />
    <path
      d="M297.692 53.1104H298.704V54.8877H297.692V57H295.389V54.8877H291.54L291.403 53.4795L295.389 47.0674V47.0469H297.692V53.1104ZM293.598 53.1104H295.389V50.0479L295.245 50.2803L293.598 53.1104Z"
      fill="#F5F5F5" />
  </g>


  <g class="coach-seat" data-number='5'>
    <rect x="312" y="8" width="27" height="58" fill="#C4C4C4" />
    <path
      d="M321.745 52.1328L322.354 47.0469H328.171V48.8379H324.227L324.001 50.8135C324.165 50.7178 324.379 50.6335 324.644 50.5605C324.912 50.4876 325.174 50.4512 325.43 50.4512C326.419 50.4512 327.177 50.7451 327.706 51.333C328.239 51.9163 328.506 52.7367 328.506 53.7939C328.506 54.432 328.362 55.0107 328.075 55.5303C327.793 56.0452 327.394 56.4417 326.879 56.7197C326.364 56.9977 325.756 57.1367 325.054 57.1367C324.429 57.1367 323.844 57.0091 323.297 56.7539C322.75 56.4941 322.322 56.141 322.012 55.6943C321.702 55.2432 321.549 54.735 321.554 54.1699H323.864C323.887 54.5345 324.003 54.8239 324.213 55.0381C324.423 55.2523 324.698 55.3594 325.04 55.3594C325.815 55.3594 326.202 54.7852 326.202 53.6367C326.202 52.5749 325.728 52.0439 324.78 52.0439C324.243 52.0439 323.841 52.2171 323.577 52.5635L321.745 52.1328Z"
      fill="#F5F5F5" />
  </g>


  <g class="coach-seat" data-number='6'>
    <rect x="372" y="8" width="27" height="58" fill="#C4C4C4" />
    <path
      d="M387.173 46.9033V48.7148H387.07C386.209 48.7148 385.5 48.9222 384.944 49.3369C384.393 49.7471 384.053 50.319 383.926 51.0527C384.445 50.5423 385.102 50.2871 385.895 50.2871C386.756 50.2871 387.442 50.6016 387.952 51.2305C388.463 51.8594 388.718 52.6842 388.718 53.7051C388.718 54.3385 388.567 54.9196 388.267 55.4482C387.97 55.9769 387.553 56.3916 387.016 56.6924C386.482 56.9886 385.89 57.1367 385.238 57.1367C384.532 57.1367 383.901 56.9772 383.345 56.6582C382.789 56.3346 382.356 55.8743 382.046 55.2773C381.736 54.6803 381.576 53.9922 381.567 53.2129V52.29C381.567 51.2646 381.786 50.3441 382.224 49.5283C382.666 48.708 383.295 48.0654 384.11 47.6006C384.926 47.1357 385.831 46.9033 386.824 46.9033H387.173ZM385.095 52.0508C384.789 52.0508 384.534 52.1214 384.329 52.2627C384.124 52.404 383.971 52.5771 383.871 52.7822V53.4727C383.871 54.7305 384.306 55.3594 385.177 55.3594C385.528 55.3594 385.819 55.2021 386.052 54.8877C386.289 54.5732 386.407 54.179 386.407 53.7051C386.407 53.2174 386.286 52.821 386.045 52.5156C385.808 52.2057 385.491 52.0508 385.095 52.0508Z"
      fill="#F5F5F5" />
  </g>

  <g class="coach-seat" data-number='7'>
    <rect x="402" y="8" width="27" height="58" fill="#C4C4C4" />
    <path d="M418.526 48.2773L414.808 57H412.374L416.1 48.8242H411.355V47.0469H418.526V48.2773Z" fill="#F5F5F5" />
  </g>

  <g class="coach-seat" data-number='8'>
    <rect x="461" y="8" width="27" height="58" fill="#C4C4C4" />
    <path
      d="M477.321 49.7061C477.321 50.1891 477.201 50.6152 476.959 50.9844C476.722 51.3535 476.394 51.6497 475.975 51.873C476.449 52.1055 476.825 52.4245 477.103 52.8301C477.381 53.2311 477.52 53.7074 477.52 54.2588C477.52 55.1475 477.212 55.8493 476.597 56.3643C475.986 56.8792 475.143 57.1367 474.067 57.1367C472.987 57.1367 472.135 56.8792 471.511 56.3643C470.886 55.8447 470.574 55.1429 470.574 54.2588C470.574 53.7256 470.711 53.2539 470.984 52.8438C471.258 52.4336 471.645 52.11 472.146 51.873C471.723 51.6497 471.39 51.3535 471.148 50.9844C470.907 50.6152 470.786 50.1891 470.786 49.7061C470.786 48.8402 471.08 48.1566 471.668 47.6553C472.256 47.154 473.049 46.9033 474.047 46.9033C475.054 46.9033 475.852 47.154 476.439 47.6553C477.027 48.1566 477.321 48.8402 477.321 49.7061ZM475.209 54.0742C475.209 53.6641 475.102 53.3496 474.888 53.1309C474.678 52.9076 474.4 52.7959 474.054 52.7959C473.707 52.7959 473.427 52.9076 473.213 53.1309C472.999 53.3496 472.892 53.6641 472.892 54.0742C472.892 54.4707 472.999 54.7852 473.213 55.0176C473.432 55.2454 473.716 55.3594 474.067 55.3594C474.409 55.3594 474.685 55.2454 474.895 55.0176C475.104 54.7897 475.209 54.4753 475.209 54.0742ZM474.047 48.6807C473.737 48.6807 473.5 48.7832 473.336 48.9883C473.176 49.1888 473.097 49.4691 473.097 49.8291C473.097 50.1846 473.179 50.4717 473.343 50.6904C473.507 50.9092 473.748 51.0186 474.067 51.0186C474.382 51.0186 474.617 50.9092 474.771 50.6904C474.931 50.4717 475.011 50.1846 475.011 49.8291C475.011 49.4736 474.929 49.1934 474.765 48.9883C474.605 48.7832 474.366 48.6807 474.047 48.6807Z"
      fill="#F5F5F5" />
  </g>


  <g class="coach-seat" data-number='9'>
    <rect x="491" y="8" width="27" height="58" fill="#C4C4C4" />
    <path
      d="M505.147 53.1514C504.651 53.598 504.095 53.8213 503.479 53.8213C502.577 53.8213 501.862 53.516 501.333 52.9053C500.804 52.2946 500.54 51.4788 500.54 50.458C500.54 49.82 500.688 49.2275 500.984 48.6807C501.281 48.1338 501.695 47.7008 502.229 47.3818C502.766 47.0628 503.359 46.9033 504.006 46.9033C504.662 46.9033 505.255 47.0697 505.783 47.4023C506.316 47.7305 506.731 48.1976 507.027 48.8037C507.324 49.4053 507.476 50.1003 507.485 50.8887V51.7705C507.485 52.8688 507.269 53.8213 506.836 54.6279C506.408 55.4346 505.795 56.0544 504.997 56.4873C504.2 56.9202 503.27 57.1367 502.208 57.1367H502.064V55.291L502.502 55.2842C504.088 55.2067 504.97 54.4958 505.147 53.1514ZM504.102 52.1602C504.603 52.1602 504.963 51.9437 505.182 51.5107V50.5537C505.182 49.9157 505.075 49.444 504.86 49.1387C504.646 48.8333 504.357 48.6807 503.992 48.6807C503.669 48.6807 503.397 48.8538 503.179 49.2002C502.96 49.5465 502.851 49.9658 502.851 50.458C502.851 50.9775 502.962 51.3923 503.186 51.7021C503.409 52.0075 503.714 52.1602 504.102 52.1602Z"
      fill="#F5F5F5" />
  </g>


  <g class="coach-seat" data-number='10'>
    <rect x="551" y="8" width="27" height="58" fill="#C4C4C4" />
    <path
      d="M561.715 57H559.404V49.6445L557.135 50.3076V48.5576L561.503 47.0469H561.715V57ZM571.627 52.9326C571.627 54.277 571.324 55.3138 570.718 56.043C570.116 56.7721 569.266 57.1367 568.168 57.1367C567.061 57.1367 566.204 56.7699 565.598 56.0361C564.992 55.3024 564.688 54.2679 564.688 52.9326V51.1143C564.688 49.7699 564.989 48.7331 565.591 48.0039C566.197 47.2747 567.051 46.9102 568.154 46.9102C569.257 46.9102 570.112 47.277 570.718 48.0107C571.324 48.7445 571.627 49.7812 571.627 51.1211V52.9326ZM569.323 50.8203C569.323 50.1048 569.23 49.5716 569.043 49.2207C568.856 48.8652 568.56 48.6875 568.154 48.6875C567.758 48.6875 567.468 48.8516 567.286 49.1797C567.108 49.5078 567.013 50.0046 566.999 50.6699V53.2129C566.999 53.9557 567.092 54.5003 567.279 54.8467C567.466 55.1885 567.762 55.3594 568.168 55.3594C568.56 55.3594 568.849 55.193 569.036 54.8604C569.223 54.5231 569.319 53.9967 569.323 53.2812V50.8203Z"
      fill="#F5F5F5" />
  </g>

  <g class="coach-seat" data-number='11'>
    <rect x="581" y="8" width="27" height="58" fill="#C4C4C4" />
    <path
      d="M591.715 57H589.404V49.6445L587.135 50.3076V48.5576L591.503 47.0469H591.715V57ZM599.822 57H597.512V49.6445L595.242 50.3076V48.5576L599.61 47.0469H599.822V57Z"
      fill="#F5F5F5" />

  </g>

  <g class="coach-seat" data-number='12'>
    <rect x="640" y="8" width="27" height="58" fill="#C4C4C4" />
    <path
      d="M650.715 57H648.404V49.6445L646.135 50.3076V48.5576L650.503 47.0469H650.715V57ZM660.661 57H653.716V55.4961L656.915 52.1328C657.703 51.235 658.098 50.5218 658.098 49.9932C658.098 49.5648 658.004 49.2389 657.817 49.0156C657.631 48.7923 657.359 48.6807 657.004 48.6807C656.653 48.6807 656.368 48.8311 656.149 49.1318C655.931 49.4281 655.821 49.7995 655.821 50.2461H653.511C653.511 49.6354 653.663 49.0726 653.969 48.5576C654.274 48.0381 654.698 47.6325 655.24 47.3408C655.783 47.0492 656.389 46.9033 657.059 46.9033C658.134 46.9033 658.961 47.1517 659.54 47.6484C660.123 48.1452 660.415 48.8584 660.415 49.7881C660.415 50.18 660.342 50.5628 660.196 50.9365C660.05 51.3057 659.823 51.6953 659.513 52.1055C659.207 52.5111 658.713 53.0557 658.029 53.7393L656.744 55.2227H660.661V57Z"
      fill="#F5F5F5" />
  </g>


  <g class="coach-seat" data-number='13'>
    <rect x="670" y="8" width="27" height="58" fill="#C4C4C4" />
    <path
      d="M680.715 57H678.404V49.6445L676.135 50.3076V48.5576L680.503 47.0469H680.715V57ZM685.821 51.0596H686.908C687.77 51.0596 688.2 50.638 688.2 49.7949C688.2 49.4668 688.098 49.2002 687.893 48.9951C687.688 48.7855 687.398 48.6807 687.024 48.6807C686.719 48.6807 686.452 48.7695 686.225 48.9473C686.001 49.125 685.89 49.346 685.89 49.6104H683.586C683.586 49.0863 683.732 48.6191 684.023 48.209C684.315 47.7988 684.718 47.4798 685.233 47.252C685.753 47.0195 686.323 46.9033 686.942 46.9033C688.05 46.9033 688.92 47.1562 689.554 47.6621C690.187 48.168 690.504 48.863 690.504 49.7471C690.504 50.1755 690.372 50.5811 690.107 50.9639C689.848 51.3421 689.467 51.6497 688.966 51.8867C689.494 52.0781 689.909 52.3698 690.21 52.7617C690.511 53.1491 690.661 53.6299 690.661 54.2041C690.661 55.0928 690.319 55.8037 689.636 56.3369C688.952 56.8701 688.054 57.1367 686.942 57.1367C686.291 57.1367 685.685 57.0137 685.124 56.7676C684.568 56.5169 684.146 56.1729 683.859 55.7354C683.572 55.2933 683.429 54.792 683.429 54.2314H685.746C685.746 54.5368 685.869 54.8011 686.115 55.0244C686.361 55.2477 686.664 55.3594 687.024 55.3594C687.43 55.3594 687.754 55.2477 687.995 55.0244C688.237 54.7965 688.357 54.5072 688.357 54.1562C688.357 53.6549 688.232 53.2995 687.981 53.0898C687.731 52.8802 687.384 52.7754 686.942 52.7754H685.821V51.0596Z"
      fill="#F5F5F5" />
  </g>


  <g class="coach-seat" data-number='14'>
    <rect x="731" y="8" width="27" height="58" fill="#C4C4C4" />
    <path
      d="M741.715 57H739.404V49.6445L737.135 50.3076V48.5576L741.503 47.0469H741.715V57ZM750.8 53.1104H751.812V54.8877H750.8V57H748.496V54.8877H744.647L744.511 53.4795L748.496 47.0674V47.0469H750.8V53.1104ZM746.705 53.1104H748.496V50.0479L748.353 50.2803L746.705 53.1104Z"
      fill="#F5F5F5" />
  </g>


  <g class="coach-seat" data-number='15'>
    <rect x="760" y="8" width="27" height="58" fill="#C4C4C4" />
    <path
      d="M770.715 57H768.404V49.6445L766.135 50.3076V48.5576L770.503 47.0469H770.715V57ZM773.853 52.1328L774.461 47.0469H780.278V48.8379H776.334L776.108 50.8135C776.272 50.7178 776.487 50.6335 776.751 50.5605C777.02 50.4876 777.282 50.4512 777.537 50.4512C778.526 50.4512 779.285 50.7451 779.813 51.333C780.347 51.9163 780.613 52.7367 780.613 53.7939C780.613 54.432 780.47 55.0107 780.183 55.5303C779.9 56.0452 779.501 56.4417 778.986 56.7197C778.471 56.9977 777.863 57.1367 777.161 57.1367C776.537 57.1367 775.951 57.0091 775.404 56.7539C774.857 56.4941 774.429 56.141 774.119 55.6943C773.809 55.2432 773.657 54.735 773.661 54.1699H775.972C775.994 54.5345 776.111 54.8239 776.32 55.0381C776.53 55.2523 776.806 55.3594 777.147 55.3594C777.922 55.3594 778.31 54.7852 778.31 53.6367C778.31 52.5749 777.836 52.0439 776.888 52.0439C776.35 52.0439 775.949 52.2171 775.685 52.5635L773.853 52.1328Z"
      fill="#F5F5F5" />
  </g>


  <g class="coach-seat" data-number='16'>
    <rect x="821" y="8" width="26" height="58" fill="#C4C4C4" />
    <path
      d="M831.715 57H829.404V49.6445L827.135 50.3076V48.5576L831.503 47.0469H831.715V57ZM840.28 46.9033V48.7148H840.178C839.316 48.7148 838.608 48.9222 838.052 49.3369C837.5 49.7471 837.161 50.319 837.033 51.0527C837.553 50.5423 838.209 50.2871 839.002 50.2871C839.863 50.2871 840.549 50.6016 841.06 51.2305C841.57 51.8594 841.825 52.6842 841.825 53.7051C841.825 54.3385 841.675 54.9196 841.374 55.4482C841.078 55.9769 840.661 56.3916 840.123 56.6924C839.59 56.9886 838.997 57.1367 838.346 57.1367C837.639 57.1367 837.008 56.9772 836.452 56.6582C835.896 56.3346 835.463 55.8743 835.153 55.2773C834.843 54.6803 834.684 53.9922 834.675 53.2129V52.29C834.675 51.2646 834.894 50.3441 835.331 49.5283C835.773 48.708 836.402 48.0654 837.218 47.6006C838.034 47.1357 838.938 46.9033 839.932 46.9033H840.28ZM838.202 52.0508C837.897 52.0508 837.642 52.1214 837.437 52.2627C837.231 52.404 837.079 52.5771 836.979 52.7822V53.4727C836.979 54.7305 837.414 55.3594 838.284 55.3594C838.635 55.3594 838.927 55.2021 839.159 54.8877C839.396 54.5732 839.515 54.179 839.515 53.7051C839.515 53.2174 839.394 52.821 839.152 52.5156C838.915 52.2057 838.599 52.0508 838.202 52.0508Z"
      fill="#F5F5F5" />
  </g>

  <rect x="17" y="1" width="14" height="6" stroke="#999999" stroke-width="2" />
  <rect x="17" y="117" width="14" height="6" stroke="#999999" stroke-width="2" />
  <g clip-path="url(#clip2)">
    <path
      d="M874.655 28.069C874.398 28.069 874.19 27.8606 874.19 27.6035V22.1724H875.121V27.6035C875.121 27.8606 874.912 28.069 874.655 28.069ZM876.672 27.6035C876.672 27.8606 876.464 28.069 876.207 28.069C875.95 28.069 875.741 27.8606 875.741 27.6035V22.1724H876.672V27.6035ZM878.224 20.4655C878.224 20.7226 878.016 20.9311 877.759 20.9311C877.502 20.9311 877.293 20.7226 877.293 20.4655V16.5862C877.293 16.4148 877.154 16.2759 876.983 16.2759C876.811 16.2759 876.672 16.4148 876.672 16.5862V21.5517H874.19V16.5862C874.19 16.4148 874.051 16.2759 873.879 16.2759C873.708 16.2759 873.569 16.4148 873.569 16.5862V20.4655C873.569 20.7226 873.361 20.9311 873.103 20.9311C872.846 20.9311 872.638 20.7226 872.638 20.4655V16.5862C872.638 15.9006 873.194 15.3448 873.879 15.3448H876.983C877.668 15.3448 878.224 15.9006 878.224 16.5862V20.4655Z"
      fill="#999999" />
    <path
      d="M864.724 28.069C864.6 28.0697 864.482 28.0209 864.394 27.9335C864.307 27.846 864.258 27.7272 864.259 27.6035L864.259 23.4138H865.19V27.6035C865.19 27.8606 864.981 28.069 864.724 28.069ZM866.741 27.6035C866.741 27.8606 866.533 28.069 866.276 28.069C866.019 28.069 865.81 27.8606 865.81 27.6035V23.4138H866.741V27.6035ZM868.743 20.6955C868.496 20.7655 868.238 20.6232 868.166 20.3768L867.052 16.4975C867.003 16.3348 866.833 16.2415 866.669 16.2881C866.506 16.3347 866.41 16.504 866.455 16.6678L868.191 22.7931H862.807L864.545 16.6669C864.583 16.5053 864.487 16.3422 864.328 16.2968C864.168 16.2515 864.001 16.3399 863.948 16.4975L862.834 20.3749C862.764 20.6226 862.506 20.7663 862.258 20.6958C862.011 20.6254 861.867 20.3675 861.938 20.1198L863.051 16.2448C863.207 15.7136 863.693 15.3476 864.246 15.3448H867.222C867.498 15.3462 867.741 15.5287 867.818 15.7936L869.062 20.1192C869.097 20.238 869.082 20.3655 869.022 20.4736C868.962 20.5818 868.862 20.6616 868.743 20.6955Z"
      fill="#999999" />
    <path
      d="M871.086 11H870.466C870.294 11 870.155 11.1389 870.155 11.3103V28.6897C870.155 28.8611 870.294 29 870.466 29H871.086C871.258 29 871.397 28.8611 871.397 28.6897V11.3103C871.397 11.1389 871.258 11 871.086 11Z"
      fill="#999999" />
    <path
      d="M865.5 14.4138C866.186 14.4138 866.741 13.858 866.741 13.1724C866.741 12.4868 866.186 11.931 865.5 11.931C864.814 11.931 864.259 12.4868 864.259 13.1724C864.259 13.858 864.814 14.4138 865.5 14.4138Z"
      fill="#999999" />
    <path
      d="M875.431 14.4138C876.117 14.4138 876.672 13.858 876.672 13.1724C876.672 12.4868 876.117 11.931 875.431 11.931C874.745 11.931 874.19 12.4868 874.19 13.1724C874.19 13.858 874.745 14.4138 875.431 14.4138Z"
      fill="#999999" />
  </g>
  <g clip-path="url(#clip3)">
    <path
      d="M874.496 104.576L874.143 103.517C874.008 103.114 873.632 102.843 873.207 102.843H870.238V101.876C870.238 101.393 869.845 101 869.362 101H866.643C866.16 101 865.767 101.393 865.767 101.876V102.843H862.798C862.373 102.843 861.997 103.114 861.863 103.517L861.509 104.576C861.429 104.817 861.47 105.084 861.618 105.291C861.767 105.497 862.007 105.62 862.261 105.62H862.63L863.443 115.67C863.504 116.416 864.136 117 864.884 117H871.286C872.034 117 872.667 116.416 872.727 115.67L873.54 105.62H873.744C873.998 105.62 874.239 105.497 874.387 105.291C874.536 105.084 874.577 104.817 874.496 104.576ZM866.705 101.938H869.301V102.843H866.705V101.938ZM871.792 115.594C871.771 115.857 871.549 116.062 871.286 116.062H864.884C864.621 116.062 864.399 115.857 864.378 115.594L863.571 105.62H872.599L871.792 115.594ZM862.462 104.682L862.752 103.814C862.759 103.794 862.777 103.781 862.798 103.781H873.207C873.228 103.781 873.247 103.794 873.254 103.814L873.543 104.682H862.462Z"
      fill="#999999" />
    <path
      d="M870.297 115.561C870.306 115.562 870.314 115.562 870.322 115.562C870.57 115.562 870.777 115.368 870.79 115.117L871.23 106.667C871.243 106.409 871.045 106.188 870.786 106.175C870.527 106.161 870.307 106.36 870.294 106.619L869.854 115.069C869.84 115.327 870.039 115.548 870.297 115.561Z"
      fill="#999999" />
    <path
      d="M865.236 115.119C865.25 115.368 865.457 115.562 865.704 115.562C865.713 115.562 865.721 115.562 865.73 115.561C865.989 115.547 866.187 115.326 866.173 115.067L865.712 106.618C865.698 106.359 865.477 106.161 865.218 106.175C864.96 106.189 864.761 106.41 864.776 106.669L865.236 115.119Z"
      fill="#999999" />
    <path
      d="M868.008 115.562C868.267 115.562 868.477 115.352 868.477 115.093V106.643C868.477 106.384 868.267 106.174 868.008 106.174C867.749 106.174 867.539 106.384 867.539 106.643V115.093C867.539 115.352 867.749 115.562 868.008 115.562Z"
      fill="#999999" />
  </g>
  <defs>
    <clipPath id="clip0">
      <rect x="47" y="17" width="18" height="18" fill="white" />
    </clipPath>
    <clipPath id="clip1">
      <rect x="48" y="98" width="13" height="13" fill="white" />
    </clipPath>
    <clipPath id="clip2">
      <rect x="861" y="10" width="18" height="18" fill="white" />
    </clipPath>
    <clipPath id="clip3">
      <rect x="860" y="101" width="16" height="16" fill="white" />
    </clipPath>
  </defs>
</svg>